<?xml version="1.0" encoding="utf-8"?>
<!-- Generator: Adobe Illustrator 21.0.2, SVG Export Plug-In . SVG Version: 6.00 Build 0)  -->
<svg version="1.1" xmlns="http://www.w3.org/2000/svg" xmlns:xlink="http://www.w3.org/1999/xlink" x="0px" y="0px"
	 viewBox="0 0 512 512" style="enable-background:new 0 0 512 512;" xml:space="preserve">
<style type="text/css">
	.st0{display:none;}
	.st1{display:inline;fill:#B8C2DA;}
	.st2{display:inline;fill:#002655;}
	.st3{display:inline;}
	.st4{fill:#002655;}
	.st5{fill:#B8C2DA;}
	.st6{fill:#002655;stroke:#002655;stroke-width:5;stroke-miterlimit:10;}
</style>
<g id="Layer_1" class="st0">
	<rect x="356.4" y="144.5" class="st1" width="25.6" height="99.6"/>
	<path class="st1" d="M383.1,273.2c0,0,69.9,18.7,69.9,90.2s-71.8,90.2-71.8,90.2s90.3,13.7,97.3-90.2S383.1,273.2,383.1,273.2z"/>
	<path class="st2" d="M387.7,77h-11.3c-0.6,0-1.2,0.2-1.7,0.4c0,0-6.1,34.8-6.6,37c-1.5,6.2-6.6,11.1-12.9,12.1
		c-10.2,1.7-19-6.1-19-15.9c0-1.6,0.6-7.1,0.8-8.4l4.2-24c-0.7-0.7-1.7-1.2-2.8-1.2h-18.5c-0.6,0-1.2,0.2-1.7,0.4
		c0,0-6.1,34.8-6.7,37c-1.5,6.2-6.6,11.1-12.9,12.1c-10.2,1.7-19-6.1-19-15.9c0-1.6,0.6-7.1,0.8-8.4l4.2-24
		c-0.7-0.7-1.7-1.2-2.8-1.2h-18.5c-0.6,0-1.2,0.2-1.7,0.4c0,0-6.1,34.8-6.6,37c-1.5,6.2-6.6,11.1-12.9,12.1
		c-10.2,1.7-19-6.1-19-15.9c0-1.6,0.6-7.1,0.8-8.4l4.2-24c-0.7-0.7-1.7-1.2-2.8-1.2h-18.5c-0.6,0-1.2,0.2-1.7,0.4
		c0,0-6.1,34.8-6.7,37c-1.5,6.2-6.6,11.1-12.9,12.1c-10.2,1.7-19-6.1-19-15.9c0-1.6,0.6-7.1,0.8-8.4l4.2-24
		c-0.7-0.7-1.7-1.2-2.8-1.2h-18.5c-0.6,0-1.2,0.2-1.7,0.4c0,0-6.1,34.8-6.6,37c-1.5,6.2-6.6,11.1-12.9,12.1
		c-10.2,1.7-19-6.1-19-15.9c0-1.6,0.6-7.1,0.8-8.4l4.2-24c-0.7-0.7-1.7-1.2-2.8-1.2H94c-0.6,0-1.2,0.2-1.7,0.4c0,0-6.1,34.8-6.7,37
		c-1.5,6.2-6.6,11.1-12.9,12.1c-10.2,1.7-19-6.1-19-15.9c0-1.6,0.6-7.1,0.8-8.4l4.2-24C58.1,77.5,57.1,77,56,77H35.4
		c-7.2,0-13.1,5.9-13.1,13.1v320.6c0,7.2,5.9,13.1,13.1,13.1h246.5c-1.7-3.5-7.3-15.1-8.7-18.8H42.4c-1.3,0-2.3-1-2.3-2.3v-238H382
		v79.3c1,0,2,0,3.1,0c2.6,0,13.2,1.1,15.7,1.3V90.1C400.8,82.9,394.9,77,387.7,77z"/>
	<path class="st2" d="M353.7,118.5l-5.2-0.9c-3.8-0.7-6.3-4.3-5.7-8.1l8.2-46.7c0.7-3.8,4.3-6.3,8.1-5.7l5.2,0.9
		c3.8,0.7,6.3,4.3,5.7,8.1l-8.2,46.7C361.1,116.6,357.5,119.2,353.7,118.5z"/>
	<path class="st2" d="M297.2,118.5l-5.2-0.9c-3.8-0.7-6.3-4.3-5.7-8.1l8.2-46.7c0.7-3.8,4.3-6.3,8.1-5.7l5.2,0.9
		c3.8,0.7,6.3,4.3,5.7,8.1l-8.2,46.7C304.7,116.6,301,119.2,297.2,118.5z"/>
	<path class="st2" d="M240.7,118.5l-5.2-0.9c-3.8-0.7-6.3-4.3-5.7-8.1l8.2-46.7c0.7-3.8,4.3-6.3,8.1-5.7l5.2,0.9
		c3.8,0.7,6.3,4.3,5.7,8.1l-8.2,46.7C248.2,116.6,244.5,119.2,240.7,118.5z"/>
	<path class="st2" d="M184.3,118.5l-5.2-0.9c-3.8-0.7-6.3-4.3-5.7-8.1l8.2-46.7c0.7-3.8,4.3-6.3,8.1-5.7l5.2,0.9
		c3.8,0.7,6.3,4.3,5.7,8.1l-8.2,46.7C191.7,116.6,188.1,119.2,184.3,118.5z"/>
	<path class="st2" d="M127.8,118.5l-5.2-0.9c-3.8-0.7-6.3-4.3-5.7-8.1l8.2-46.7c0.7-3.8,4.3-6.3,8.1-5.7l5.2,0.9
		c3.8,0.7,6.3,4.3,5.7,8.1l-8.2,46.7C135.2,116.6,131.6,119.2,127.8,118.5z"/>
	<path class="st2" d="M71.3,118.5l-5.2-0.9c-3.8-0.7-6.3-4.3-5.7-8.1l8.2-46.7c0.7-3.8,4.3-6.3,8.1-5.7l5.2,0.9
		c3.8,0.7,6.3,4.3,5.7,8.1l-8.2,46.7C78.7,116.6,75.1,119.2,71.3,118.5z"/>
	<g class="st3">
		<g>
			<path class="st4" d="M357.5,233.1h-45.2c-1.8,0-3.2-1.4-3.2-3.2v-45.2c0-1.8,1.4-3.2,3.2-3.2h45.2c1.8,0,3.2,1.4,3.2,3.2v45.2
				C360.7,231.7,359.3,233.1,357.5,233.1z"/>
			<path class="st4" d="M226.6,229.9v-45.2c0-1.8,1.4-3.2,3.2-3.2h45.2c1.8,0,3.2,1.4,3.2,3.2v45.2c0,1.8-1.4,3.2-3.2,3.2h-45.2
				C228,233.1,226.6,231.7,226.6,229.9z"/>
			<path class="st4" d="M144,229.9v-45.2c0-1.8,1.4-3.2,3.2-3.2h45.2c1.8,0,3.2,1.4,3.2,3.2v45.2c0,1.8-1.4,3.2-3.2,3.2h-45.2
				C145.4,233.1,144,231.7,144,229.9z"/>
		</g>
		<g>
			<path class="st4" d="M312.3,257h18.8c-7.9,4-15.3,8.9-22,14.5v-11.3C309.1,258.4,310.6,257,312.3,257z"/>
			<path class="st4" d="M226.6,305.4v-45.2c0-1.8,1.4-3.2,3.2-3.2h45.2c1.8,0,3.2,1.4,3.2,3.2v45.2c0,1.8-1.4,3.2-3.2,3.2h-45.2
				C228,308.6,226.6,307.2,226.6,305.4z"/>
			<path class="st4" d="M144,305.4v-45.2c0-1.8,1.4-3.2,3.2-3.2h45.2c1.8,0,3.2,1.4,3.2,3.2v45.2c0,1.8-1.4,3.2-3.2,3.2h-45.2
				C145.4,308.6,144,307.2,144,305.4z"/>
			<path class="st4" d="M64.6,308.6h45.2c1.8,0,3.2-1.4,3.2-3.2v-45.2c0-1.8-1.4-3.2-3.2-3.2H64.6c-1.8,0-3.2,1.4-3.2,3.2v45.2
				C61.4,307.2,62.8,308.6,64.6,308.6z"/>
		</g>
		<g>
			<path class="st4" d="M265.7,363.5c0,7,0.6,13.9,1.8,20.6h-37.8c-1.8,0-3.2-1.4-3.2-3.2v-45.2c0-1.8,1.4-3.2,3.2-3.2h40.1
				C267.2,342.4,265.7,352.7,265.7,363.5z"/>
			<path class="st4" d="M144,380.9v-45.2c0-1.8,1.4-3.2,3.2-3.2h45.2c1.8,0,3.2,1.4,3.2,3.2v45.2c0,1.8-1.4,3.2-3.2,3.2h-45.2
				C145.4,384.1,144,382.6,144,380.9z"/>
			<path class="st4" d="M64.6,384.1h45.2c1.8,0,3.2-1.4,3.2-3.2v-45.2c0-1.8-1.4-3.2-3.2-3.2H64.6c-1.8,0-3.2,1.4-3.2,3.2v45.2
				C61.4,382.6,62.8,384.1,64.6,384.1z"/>
		</g>
	</g>
	<g class="st3">
		<path class="st4" d="M385.1,473c-60.4,0-109.6-49.1-109.6-109.6c0-60.4,49.1-109.6,109.6-109.6c60.4,0,109.6,49.1,109.6,109.6
			C494.7,423.9,445.5,473,385.1,473z M385.1,273.2c-49.8,0-90.2,40.5-90.2,90.2c0,49.8,40.5,90.2,90.2,90.2s90.2-40.5,90.2-90.2
			C475.3,313.7,434.9,273.2,385.1,273.2z"/>
	</g>
	<path class="st2" d="M398.6,404.9c-3.8,3.2-9,4.9-15.7,4.9c-5.9,0-10.8-1.7-14.9-5.1c-4.1-3.4-6.1-9-6.1-17.2h-14.9l-0.1,0.4
		c-0.3,10.8,2.6,19.1,8.3,24.7c5.7,5.9,13,9,22,10v15h12.2v-15c9.3-1.1,16.7-4.1,22-9.5c5.3-5.2,8-12.4,8-21.4
		c0-8.7-2.7-15.7-7.8-20.8c-5.1-5.1-13-9.4-23.7-13c-8.3-2.7-13.9-5.7-17-8.9c-3.2-3.2-4.8-7.2-4.8-12.2c0-5.6,1.6-10,4.6-13.1
		s7.5-4.9,13.8-4.9c5.7,0,10.2,2.2,13.5,6.2c3.3,4,4.9,9.4,4.9,15.9h15.3c0-10.1-2.3-18.1-7.2-23.9c-4.9-6-11.6-9.5-20.2-10.5v-17.2
		h-12.3v17.2c-8.6,1.1-15.4,4.4-20.3,9.7c-5,5.3-7.3,12.4-7.3,20.9c0,8.9,2.7,15.9,8,21.3c5.3,5.3,13.2,9.6,23.7,12.8
		c7.7,2.6,13.1,5.5,16.4,8.7c3.3,3.3,5,7.3,5,11.9C404.2,397.3,402.4,401.7,398.6,404.9z"/>
</g>
<g id="Layer_2">
	<rect x="371.8" y="72.5" class="st5" width="26.7" height="409.5"/>
	<rect x="212.5" y="400.2" class="st5" width="90" height="81.8"/>
	<rect x="335.1" y="28.5" class="st5" width="28" height="39"/>
	<g>
		<path class="st6" d="M412.5,62.5h-38.6V20.1H138.4v42.4H99.8l-0.4,429.4l313.2-0.1L412.5,62.5z M151.3,33H361v29.5H151.3V33z
			 M249.7,478.9h-34.1v-70.1h34.1V478.9z M296.7,478.9h-34.1v-70.1h34.1V478.9z M399.7,478.9h-90.1v-83h-46.9h-12.9h-47v83h-90.1
			V75.4h25.8v0.2h235.5v-0.2h25.8V478.9z"/>
		<path class="st6" d="M316.3,344.9h55.5v-55.5h-55.5V344.9z M329.2,302.3h29.7V332h-29.7V302.3z"/>
		<path class="st6" d="M228.4,344.9h55.5v-55.5h-55.5V344.9z M241.3,302.3H271V332h-29.7V302.3z"/>
		<path class="st6" d="M140.5,344.9H196v-55.5h-55.5V344.9z M153.4,302.3h29.7V332h-29.7V302.3z"/>
		<path class="st6" d="M316.3,257h55.5v-55.5h-55.5V257z M329.2,214.4h29.7v29.7h-29.7V214.4z"/>
		<path class="st6" d="M228.4,257h55.5v-55.5h-55.5V257z M241.3,214.4H271v29.7h-29.7V214.4z"/>
		<path class="st6" d="M140.5,257H196v-55.5h-55.5V257z M153.4,214.4h29.7v29.7h-29.7V214.4z"/>
		<path class="st6" d="M316.3,169.1h55.5v-55.5h-55.5V169.1z M329.2,126.5h29.7v29.7h-29.7V126.5z"/>
		<path class="st6" d="M228.4,169.1h55.5v-55.5h-55.5V169.1z M241.3,126.5H271v29.7h-29.7V126.5z"/>
		<path class="st6" d="M140.5,169.1H196v-55.5h-55.5V169.1z M153.4,126.5h29.7v29.7h-29.7V126.5z"/>
	</g>
</g>
</svg>
