<?xml version="1.0" encoding="utf-8"?>
<!-- Generator: Adobe Illustrator 21.0.2, SVG Export Plug-In . SVG Version: 6.00 Build 0)  -->
<svg version="1.1" id="Layer_2" xmlns="http://www.w3.org/2000/svg" xmlns:xlink="http://www.w3.org/1999/xlink" x="0px" y="0px"
	 viewBox="0 0 512 512" style="enable-background:new 0 0 512 512;" xml:space="preserve">
<style type="text/css">
	.st0{fill:#B8C2DA;}
	.st1{fill:#002655;}
</style>
<g>
	<path class="st0" d="M421,449.8V60.2h9.4c3.3,0,6.1,2.7,6.1,6.1v377.3c0,3.3-2.7,6.1-6.1,6.1L421,449.8L421,449.8z M388,303.5
		c2,0,3.7,1.6,3.7,3.7c0,2.1-1.6,3.7-3.7,3.7h-8v13.6h8c2,0,3.7,1.6,3.7,3.7c0,2-1.6,3.7-3.7,3.7h-8v75.2h18.2V228.4H380v75.2
		L388,303.5L388,303.5z M398.2,184.3v-80.7H380v80.6L398.2,184.3L398.2,184.3z M279.5,258.3c2,0,3.7,1.6,3.7,3.7
		c0,2-1.6,3.7-3.7,3.7h-7.2v30h17.4v-67.4h-17.4v30H279.5z M279.5,369.6c2,0,3.7,1.6,3.7,3.7c0,2-1.6,3.7-3.7,3.7h-7.2v30h17.4
		v-67.4h-17.4v30L279.5,369.6L279.5,369.6z M171,258.3c2,0,3.7,1.6,3.7,3.7c0,2-1.6,3.7-3.7,3.7h-7.2v30h17.4v-67.4h-17.4v30H171z
		 M166.8,354.1c1.4,1.4,1.4,3.7,0,5.2l-2.9,2.9v22.3l2.9,2.9c1.4,1.4,1.4,3.7,0,5.2c-0.8,0.8-1.9,1.1-2.9,1.1V407h17.4v-67.4h-17.4
		v13.4C164.9,352.9,165.9,353.3,166.8,354.1z"/>
	<path class="st1" d="M407.2,85.4H104.8c-5,0-9.1,4.1-9.1,9.1v98.8c0,5,4.1,9.1,9.1,9.1h302.6c5,0,9.1-4.1,9.1-9.1V94.5
		C416.4,89.5,412.3,85.4,407.2,85.4z M113.8,103.6H380h18.2v80.6H380H113.8V103.6z M407.2,210.1h-85.6c-5,0-9.1,4.1-9.1,9.1v196.9
		c0,5,4.1,9.1,9.1,9.1h85.6c5,0,9.1-4.1,9.1-9.1V219.2C416.4,214.3,412.3,210.1,407.2,210.1z M330.8,228.4H380h18.2v178.7H380h-49.2
		V228.4z M190.3,210.1h-85.5c-5,0-9.1,4.1-9.1,9.1v85.6c0,5,4.1,9.1,9.1,9.1h85.6c5,0,9.1-4.1,9.1-9.1v-85.6
		C199.4,214.3,195.4,210.1,190.3,210.1z M113.8,228.4h50.1h17.4v67.3h-17.4h-50.1V228.4z M430.4,41.4H81.6
		c-13.8,0-24.9,11.2-24.9,24.9v377.3c0,13.8,11.2,24.9,24.9,24.9h348.9c13.8,0,24.9-11.2,24.9-24.9V66.3
		C455.4,52.6,444.2,41.4,430.4,41.4z M75.4,443.7V66.3c0-3.3,2.7-6.1,6.1-6.1H421h9.4c3.3,0,6.1,2.7,6.1,6.1v377.3
		c0,3.3-2.7,6.1-6.1,6.1H421H81.6C78.2,449.8,75.4,447.1,75.4,443.7z M256,381.6c-5.8,0-10.5,4.7-10.5,10.5
		c0,5.8,4.7,10.5,10.5,10.5c5.8,0,10.5-4.7,10.5-10.5C266.5,386.4,261.8,381.6,256,381.6z M256,395.4c-1.7,0-3.2-1.4-3.2-3.2
		c0-1.7,1.4-3.2,3.2-3.2c1.7,0,3.2,1.4,3.2,3.2C259.2,393.9,257.7,395.4,256,395.4z M298.8,321.4h-85.6c-5,0-9.1,4.1-9.1,9.1v85.5
		c0,5,4.1,9.1,9.1,9.1h85.6c5,0,9.1-4.1,9.1-9.1v-85.6C307.9,325.5,303.8,321.4,298.8,321.4z M222.3,339.6h50h17.4v67.4h-17.4h-50.1
		L222.3,339.6L222.3,339.6z M298.8,210.1h-85.6c-5,0-9.1,4.1-9.1,9.1v85.6c0,5,4.1,9.1,9.1,9.1h85.6c5,0,9.1-4.1,9.1-9.1v-85.6
		C307.9,214.3,303.8,210.1,298.8,210.1z M222.3,228.4h50h17.4v67.3h-17.4h-50.1L222.3,228.4L222.3,228.4z M190.3,321.4h-85.5
		c-5,0-9.1,4.1-9.1,9.1v85.5c0,5,4.1,9.1,9.1,9.1h85.6c5,0,9.1-4.1,9.1-9.1v-85.6C199.4,325.5,195.4,321.4,190.3,321.4z
		 M113.8,339.6h50.1h17.4v67.4h-17.4h-50.1V339.6z M256,364.9c5.8,0,10.5-4.7,10.5-10.5c0-5.8-4.7-10.5-10.5-10.5
		c-5.8,0-10.5,4.7-10.5,10.5S250.2,364.9,256,364.9z M256,351.2c1.7,0,3.2,1.4,3.2,3.2s-1.4,3.2-3.2,3.2c-1.7,0-3.2-1.4-3.2-3.2
		S254.3,351.2,256,351.2z M388,331.8h-8h-39c-2,0-3.7-1.6-3.7-3.7c0-2,1.6-3.7,3.7-3.7h39h8c2,0,3.7,1.6,3.7,3.7
		C391.7,330.1,390.1,331.8,388,331.8z M388,310.8h-8h-39c-2,0-3.7-1.6-3.7-3.7c0-2.1,1.6-3.7,3.7-3.7h39h8c2,0,3.7,1.6,3.7,3.7
		C391.7,309.2,390.1,310.8,388,310.8z M279.5,265.8h-7.2h-39.8c-2,0-3.7-1.6-3.7-3.7c0-2,1.6-3.7,3.7-3.7h39.8h7.2
		c2,0,3.7,1.6,3.7,3.7C283.2,264,281.5,265.8,279.5,265.8z M279.5,377h-7.2h-39.8c-2,0-3.7-1.6-3.7-3.7c0-2,1.6-3.7,3.7-3.7h39.8
		h7.2c2,0,3.7,1.6,3.7,3.7C283.2,375.3,281.5,377,279.5,377z M171,265.8h-7.2h-12.7v19.8c0,2-1.6,3.7-3.7,3.7c-2,0-3.7-1.6-3.7-3.7
		v-19.8h-19.8c-2,0-3.7-1.6-3.7-3.7c0-2,1.6-3.7,3.7-3.7h19.8v-19.8c0-2,1.6-3.7,3.7-3.7c2,0,3.7,1.6,3.7,3.7v19.8h12.7h7.2
		c2,0,3.7,1.6,3.7,3.7C174.7,264,173.1,265.8,171,265.8z M163.9,393.6c-0.8-0.1-1.6-0.4-2.3-1.1l-14-14l-14,14
		c-1.4,1.4-3.7,1.4-5.2,0c-1.4-1.4-1.4-3.7,0-5.2l14-14l-14-14c-1.4-1.4-1.4-3.7,0-5.2c1.4-1.4,3.7-1.4,5.2,0l14,14l14-14
		c0.6-0.6,1.4-1,2.3-1.1c1-0.1,2.1,0.3,2.9,1.1c1.4,1.4,1.4,3.7,0,5.2l-2.9,2.9l-11.1,11.1l11.1,11.1l2.9,2.9c1.4,1.4,1.4,3.7,0,5.2
		C165.9,393.3,164.9,393.7,163.9,393.6z"/>
</g>
</svg>
