<?xml version="1.0" encoding="utf-8"?>
<!-- Generator: Adobe Illustrator 21.0.2, SVG Export Plug-In . SVG Version: 6.00 Build 0)  -->
<svg version="1.1" id="Layer_1" xmlns="http://www.w3.org/2000/svg" xmlns:xlink="http://www.w3.org/1999/xlink" x="0px" y="0px"
	 viewBox="0 0 512 512" style="enable-background:new 0 0 512 512;" xml:space="preserve">
<style type="text/css">
	.st0{fill:#B0BAD1;}
	.st1{fill:#002655;}
</style>
<path class="st0" d="M273.7,392.8c-35-0.5-72.9-11.8-72.9-11.8c6.1,10.5,13.4,18.1,13.4,18.1l8.4,2.5c16.6,5.1,34,7.6,51.8,7.6
	c22.4,0,51-3.9,69.5-9.5l8.7-2.6l9.7-16.2C362.4,381.1,311.5,392.8,273.7,392.8z M274.4,182.7c-25.2,0-51.5,5.8-74.1,16.4l0.5,38.6
	l4.8-28.2c20.5-9.6,44.3-14.9,67.1-14.9c75.7,0,142.2,47.9,142.2,102.6c0,23.8-10.7,47-30.2,65.4l-2.3,2.2L375,423h-12.6l4.6,12
	h20.4l8.2-64.3l2.5-2.4c21.5-20.3,33.3-46,33.3-72.3C431.4,235.7,358.1,182.7,274.4,182.7z M176.7,434.9H199l5-11.8h-27.3V434.9z
	 M348.4,136.8c0-32.2-26.1-58.2-58.2-58.2c-3.4,0-6.7,0.3-9.9,0.9c0.1,0,0.2,0.1,0.4,0.1c27.2,4.9,48,28.6,48,57.3
	c0,7-1.3,13.7-3.5,20c6,1.4,11.9,3,17.7,4.8l0,0C346.3,154.1,348.4,145.7,348.4,136.8z"/>
<path class="st1" d="M162.7,250c8.8,0,15.9,6.6,15.9,14.8s-7.1,14.8-15.9,14.8s-15.9-6.6-15.9-14.8S153.9,250,162.7,250z M234.4,155
	c-1.9-5.8-2.9-11.8-2.9-17.9c0-29,21.3-53,49-57.5c-0.1,0-0.2-0.1-0.4-0.1c3.2-0.6,6.5-0.9,9.9-0.9c32.2,0,58.2,26.1,58.2,58.2
	c0,8.9-2,17.3-5.6,24.8l0,0c6.3,2,12.4,4.2,18.4,6.7c4.3-9.8,6.5-20.3,6.5-31.2c0-42.9-34.9-77.8-77.8-77.8s-77.8,34.9-77.8,77.8
	c0,7.7,1.2,15.3,3.4,22.5C221.7,157.8,228,156.3,234.4,155z M274.4,163.3c-30.4,0-61.8,7.5-88.4,21.2l-2.2,1.1
	c-16.9-12.7-38.7-19.4-51.6-19.4c-7.1,0-12.2,2-15.4,5.9c-6.9,8.6-1.3,22.2,13.1,47.6c-10.3,8.5-18.6,19-24.7,31.2
	c-6.4,2.3-14.3,3.4-24.6,3.4h-1.1c-5.8,0-10.8,2.9-14,8.2c-8.2,13.7-2.9,44.1,7.1,62.9c7.1,13.4,34,33.8,84.6,64.1v65h54.6
	l13.6-31.7c15.9,4.1,32.4,6.1,49.1,6.1c20.6,0,46.5-3.1,66.4-7.9l12.8,33.6h51L414,380c23.8-23.6,36.9-53.4,36.9-83.9
	C450.9,225.3,368.4,163.3,274.4,163.3z M398.1,368.3l-2.5,2.4l-8.2,64.3H367l-4.5-11.9l-9.8-25.8l-8.7,2.6
	c-18.5,5.6-47.1,9.5-69.5,9.5c-17.8,0-35.2-2.6-51.8-7.6l-8.4-2.5L204,423.1l-5,11.8l-0.1,0.2h-22.2v-0.2v-11.8v-43.8l-3.8-2.9
	c-0.5-0.4-2.7-1.8-5.7-3.5c-60.5-36.2-74.5-51-77.4-56.5c-8.3-15.7-10.2-36.4-8.2-42.6c14.4-0.1,25.4-2.2,34.8-6.5l3.3-1.5l1.5-3.3
	c6-13.2,15.2-24.3,26.8-32.1l7.6-5.1l-4.6-7.9c-3.7-6.4-13.2-22.6-16.5-31.6c13.6,1.1,37.8,11.2,48.1,26l18.1,26l-0.5-38.6
	c22.6-10.6,48.9-16.4,74.1-16.4c83.6,0,157,53,157,113.3C431.4,322.3,419.6,348,398.1,368.3z"/>
</svg>
