<svg xmlns="http://www.w3.org/2000/svg" width="33" height="34" viewBox="0 0 33 34">
  <g fill="#5D5E5F" fill-rule="evenodd">
    <path d="M0.115796407,9.51363743 L16.7122275,0.00994152047 L32.9387425,9.60768421 L32.9387425,12.9480351 L30.3499222,12.9480351 L30.3499222,24.7569708 L2.65837725,24.7569708 L2.65837725,12.9480351 L0.115796407,12.9480351 L0.115796407,9.51363743 Z M16.7110419,3.58869006 L6.03208383,9.89300585 L6.03208383,21.7488655 L27.1591976,21.7488655 L27.1591976,9.89300585 L16.7110419,3.58869006 Z"/>
    <polygon points="11.031 14.408 22.08 14.408 22.08 11.491 11.031 11.491"/>
    <polygon points="11.031 18.752 22.08 18.752 22.08 15.835 11.031 15.835"/>
    <path d="M17.0483533 33.8130994L17.0483533 30.0963626 18.990018 30.0963626C20.3768084 30.0963626 21.3476407 30.5198713 21.3476407 32.0254152 21.3476407 33.4838363 20.4692874 33.8130994 18.9437784 33.8130994L17.0483533 33.8130994zM18.0646347 30.8946667L18.0646347 33.0118129 18.8967485 33.0118129C19.6826228 33.0118129 20.237497 32.8706433 20.237497 32.0238246 20.237497 31.2710526 19.6363832 30.8946667 18.9892275 30.8946667L18.0646347 30.8946667zM27.1811317 33.8130994L27.1811317 30.0963626 29.8624311 30.0963626C30.879503 30.0963626 31.2956587 30.4258246 31.2956587 31.2726433 31.2956587 31.8842456 30.971982 32.1665848 30.2783892 32.2606316L31.3418982 33.8130994 30.2323473 33.8130994 29.1690359 32.2606316 28.1982036 32.2606316 28.1982036 33.8130994 27.1811317 33.8130994zM29.7191677 30.9002339L28.1934611 30.9002339 28.1934611 31.4649123 29.6729281 31.4649123C30.1815629 31.4649123 30.3200838 31.4649123 30.3200838 31.1825731 30.3200838 30.9473567 30.1351257 30.9002339 29.7191677 30.9002339z"/>
    <polyline points="11.475 30.096 11.475 33.813 12.445 33.813 12.445 31.555 14.387 33.813 15.543 33.813 15.543 30.096 14.572 30.096 14.572 32.402 12.63 30.096 11.475 30.096"/>
    <polyline points="1.943 30.096 1.943 33.813 5.596 33.813 5.596 33.013 2.961 32.966 2.961 30.096 1.943 30.096"/>
    <polyline points="6.641 33.813 10.201 33.813 10.201 33.013 7.704 33.013 7.704 32.214 9.785 32.214 9.785 31.461 7.704 31.461 7.704 30.896 10.201 30.896 10.201 30.096 6.641 30.096 6.641 33.813"/>
    <polyline points="22.486 30.096 22.486 33.813 25.999 33.766 25.999 33.013 23.503 33.013 23.503 32.214 25.629 32.214 25.629 31.461 23.503 31.461 23.503 30.896 25.999 30.896 25.999 30.096 22.486 30.096"/>
    <path d="M9.18882036 29.181345L10.1134132 25.8409942 10.899485 25.8409942 11.8240778 29.181345 11.104006 29.181345 10.899485 28.4285731 10.0671737 28.4285731 9.86265269 29.181345 9.18882036 29.181345zM10.4870838 26.5557895L10.2096467 27.8732398 10.8107605 27.8732398 10.4870838 26.5557895zM4.0342994 27.9591345L4.0342994 27.0649942C4.0342994 26.2183743 4.31173653 25.7477427 5.1438503 25.7477427 6.06844311 25.7477427 6.2534012 26.3124211 6.2534012 27.112117L6.2534012 27.8179649C6.2534012 28.2412749 6.20716168 28.4295673 6.06844311 28.7119064L6.62311976 28.9 6.57688024 29.1352164C4.68145509 29.1352164 4.0342994 29.0882924 4.0342994 27.9591345zM4.72492814 27.1111228L4.72492814 27.9110175C4.72492814 28.5226199 4.81740719 28.7107135 5.14108383 28.7107135 5.511 28.7107135 5.55704192 28.5697427 5.55704192 27.9579415L5.55704192 27.0641988C5.55704192 26.4054737 5.511 26.3114269 5.18732335 26.3114269 4.77116766 26.3114269 4.72492814 26.4995205 4.72492814 27.1111228zM22.8968623 28.2872047C22.8968623 28.8047602 23.2205389 29.228269 23.9601737 29.228269 24.5610898 29.228269 25.1159641 28.8047602 25.1159641 28.2872047 25.1159641 27.4875088 23.636497 27.1111228 23.636497 26.5935673 23.636497 26.4052749 23.8214551 26.3112281 24.0064132 26.3112281 24.2838503 26.3112281 24.4223713 26.4995205 24.5610898 26.7816608L25.023485 26.5935673C24.9772455 26.1231345 24.6535689 25.7467485 23.9601737 25.7467485 23.405497 25.7467485 22.9431018 26.0288889 22.9431018 26.5935673 22.9431018 27.5344327 24.4223713 27.7696491 24.4223713 28.3812515 24.4223713 28.6166667 24.2838503 28.7107135 24.0064132 28.7107135 23.728976 28.7107135 23.5442156 28.5224211 23.4515389 28.1931579L22.8968623 28.2872047M17.8848144 28.0991111L17.8848144 27.0168772C17.8848144 26.1231345 18.3007725 25.7467485 18.9941677 25.7467485 19.8727186 25.7467485 20.1037186 26.0760117 20.1037186 26.9228304L20.1037186 27.9579415C20.1037186 28.851883 19.8727186 29.228269 18.9941677 29.228269 18.116012 29.228269 17.8848144 28.8990058 17.8848144 28.0991111zM18.5764311 26.970152L18.5764311 28.0052632C18.5764311 28.4756959 18.6226707 28.7109123 18.9923892 28.7109123 19.2698263 28.7109123 19.4085449 28.5228187 19.4085449 27.9581404L19.4085449 26.970152C19.4085449 26.5937661 19.3623054 26.2645029 18.9923892 26.2645029 18.6226707 26.2645029 18.5764311 26.5468421 18.5764311 26.970152zM29.0771497 27.9579415C29.0771497 28.9459298 29.3545868 29.228269 30.2791796 29.228269 30.9949042 29.228269 31.2037725 28.8866784 31.2037725 28.5224211L31.2037725 27.4405848 30.2329401 27.4405848 30.2329401 27.9579415 30.5564192 27.9579415 30.5564192 28.3343275C30.5564192 28.6166667 30.4641377 28.7578363 30.2329401 28.7578363 29.7705449 28.7578363 29.7243054 28.4283743 29.7243054 27.9579415L29.7243054 27.2051696C29.7243054 26.6404912 29.7705449 26.2643041 30.2329401 26.2643041 30.5564192 26.2643041 30.7413772 26.4995205 30.7876168 26.8287836L31.2498144 26.6404912C31.2037725 26.0760117 30.8338563 25.7467485 30.1867006 25.7467485 29.2621078 25.7467485 29.0771497 26.2643041 29.0771497 26.9699532L29.0771497 27.9579415M20.3928144 25.8403977L20.3928144 27.7692515C20.3928144 28.8986082 20.5831078 29.2594854 21.5539401 29.2594854 22.2935749 29.2594854 22.5656766 28.8514854 22.5656766 27.8634971L22.5656766 25.8403977 21.9183234 25.8403977 21.9183234 27.7692515C21.9183234 28.5220234 21.8720838 28.7103158 21.5023653 28.7103158 21.1324491 28.7103158 21.0862096 28.4279766 21.0862096 27.7223275L21.0862096 25.8403977 20.3928144 25.8403977"/>
    <polyline points="26.569 25.841 26.569 29.181 27.124 29.181 27.124 26.923 27.91 29.181 28.742 29.181 28.742 25.841 28.187 25.841 28.187 27.911 27.447 25.841 26.569 25.841"/>
    <path d="M6.91814371,25.8403977 L6.91814371,27.8634971 C6.91814371,28.8045614 7.01062275,29.2278713 7.93521557,29.2278713 C8.99852695,29.2278713 9.04456886,28.7103158 9.04456886,27.7694503 L9.04456886,25.8403977 L8.39741317,25.8403977 L8.39741317,27.8163743 C8.39741317,28.4750994 8.30513174,28.6633918 7.98145509,28.6633918 C7.61153892,28.6633918 7.5652994,28.4750994 7.5652994,27.7223275 L7.5652994,25.8403977 L6.91814371,25.8403977"/>
    <polyline points="15.326 25.841 15.326 29.181 15.973 29.181 15.973 27.676 16.759 27.676 16.759 29.181 17.406 29.181 17.406 25.841 16.759 25.841 16.759 27.111 15.973 27.111 15.973 25.841 15.326 25.841"/>
    <polyline points="1.896 25.841 1.896 29.181 3.561 29.181 3.561 28.664 2.544 28.664 2.544 27.723 3.468 27.723 3.468 27.252 2.544 27.252 2.544 26.359 3.561 26.359 3.561 25.841 1.896 25.841"/>
    <polyline points="12.117 25.841 12.117 29.181 13.643 29.181 13.643 28.664 12.672 28.664 12.672 25.841 12.117 25.841"/>
    <polygon points="25.455 29.181 26.056 29.181 26.056 25.841 25.455 25.841"/>
  </g>
</svg>
