<svg xmlns="http://www.w3.org/2000/svg" width="59" height="24" viewBox="0 0 59 24">
  <g fill="#5D5E5F" fill-rule="evenodd">
    <polyline points="52.338 9.036 52.338 9.699 52.162 9.699 52.162 9.201 52.104 9.201 52.162 9.036 52.338 9.036"/>
    <path d="M52.6521649 9.20147368C52.6521649 9.36726316 52.8169255 9.47747368 52.9264521 9.47747368 53.0362926 9.47747368 53.0912128 9.47747368 53.146133 9.42252632 53.0362926 9.64326316 52.8169255 9.588 52.7620053 9.53273684L52.7070851 9.69852632C52.7620053 9.75378947 53.3105798 9.80905263 53.3105798 9.312 53.3105798 9.25673684 53.2556596 8.98073684 52.9264521 8.98073684L52.9264521 9.09094737C53.0362926 9.09094737 53.146133 9.14621053 53.146133 9.20147368 53.146133 9.312 53.0362926 9.36726316 52.9264521 9.36726316 52.8715319 9.36726316 52.8169255 9.312 52.8169255 9.20147368 52.8169255 9.14621053 52.8715319 9.09094737 52.9264521 9.09094737L52.9264521 8.98073684C52.8169255 8.98073684 52.6521649 9.09094737 52.6521649 9.20147368M53.7496277 9.75378947C53.5851809 9.75378947 53.4753404 9.64326316 53.4753404 9.64326316L53.5851809 9.53273684C53.5851809 9.588 53.6947074 9.588 53.7496277 9.588 53.7496277 9.588 53.8594681 9.588 53.8594681 9.53273684 53.8594681 9.47747368 53.8045479 9.42252632 53.6947074 9.42252632L53.6947074 9.312C53.8594681 9.312 53.8594681 9.25673684 53.8594681 9.20147368 53.8594681 9.14621053 53.8045479 9.14621053 53.7496277 9.14621053 53.6947074 9.14621053 53.6397872 9.14621053 53.5851809 9.20147368L53.4753404 9.09094737C53.5302606 9.036 53.6397872 8.98073684 53.7496277 8.98073684 53.9143883 8.98073684 54.0239149 9.09094737 54.0239149 9.20147368 54.0239149 9.25673684 53.9689947 9.312 53.9143883 9.36726316 53.9689947 9.36726316 54.0239149 9.47747368 54.0239149 9.53273684 54.0239149 9.64326316 53.9143883 9.75378947 53.7496277 9.75378947M54.4629628 9.75378947C54.3531223 9.75378947 54.2435957 9.64326316 54.1886755 9.64326316L54.2982021 9.53273684C54.3531223 9.588 54.4080426 9.588 54.4629628 9.588 54.517883 9.588 54.6274096 9.588 54.6274096 9.53273684 54.6274096 9.47747368 54.5728032 9.42252632 54.4080426 9.42252632L54.4080426 9.312C54.5728032 9.312 54.6274096 9.25673684 54.6274096 9.20147368 54.6274096 9.14621053 54.5728032 9.14621053 54.4629628 9.14621053 54.4629628 9.14621053 54.4080426 9.14621053 54.3531223 9.20147368L54.2435957 9.09094737C54.2982021 9.036 54.3531223 8.98073684 54.4629628 8.98073684 54.6274096 8.98073684 54.73725 9.09094737 54.73725 9.20147368 54.73725 9.25673684 54.73725 9.312 54.6823298 9.36726316 54.73725 9.36726316 54.73725 9.47747368 54.73725 9.53273684 54.73725 9.64326316 54.6274096 9.75378947 54.4629628 9.75378947M52.2680372 14.2812632L52.2680372 13.8394737 52.1581968 13.8394737 52.1581968 14.3365263 52.4327979 14.3365263 52.4327979 14.1707368 52.5423245 14.1707368 52.5423245 14.3365263 52.8169255 14.3365263 52.8169255 13.8394737 52.9264521 13.8394737C53.0912128 13.8394737 53.0912128 13.95 53.146133 13.95 53.2556596 13.95 53.2556596 13.8394737 53.3105798 13.8394737 53.3655 13.8394737 53.3655 13.95 53.4204202 13.95 53.5302606 13.95 53.5302606 13.8394737 53.5851809 13.8394737 53.6397872 13.8394737 53.6397872 13.95 53.6947074 13.95 53.8045479 13.95 53.8594681 13.8394737 53.9689947 13.8394737 54.0788351 13.8394737 54.0788351 13.8947368 54.0788351 14.0052632 54.0788351 14.1157895 54.2435957 14.2812632 54.4080426 14.2812632 54.517883 14.2812632 54.6823298 14.1157895 54.6823298 14.0052632L54.6823298 13.5634737C54.6823298 13.4529474 54.517883 13.2874737 54.4080426 13.2874737L54.4080426 13.3976842C54.4629628 13.3976842 54.5728032 13.4529474 54.5728032 13.5634737 54.5728032 13.7292632 54.517883 13.7842105 54.517883 13.7842105 54.517883 13.7842105 54.5728032 13.8394737 54.5728032 14.0052632 54.5728032 14.1157895 54.4629628 14.1707368 54.4080426 14.1707368 54.2982021 14.1707368 54.2435957 14.1157895 54.2435957 14.0052632 54.2435957 13.8394737 54.2982021 13.7842105 54.2982021 13.7842105 54.2982021 13.7842105 54.2435957 13.7292632 54.2435957 13.5634737 54.2435957 13.4529474 54.2982021 13.3976842 54.4080426 13.3976842L54.4080426 13.2874737C54.2435957 13.2874737 54.0788351 13.4529474 54.0788351 13.5634737 54.0788351 13.674 54.0788351 13.7292632 53.9689947 13.7292632 53.8594681 13.7292632 53.8045479 13.6187368 53.6947074 13.6187368 53.6397872 13.6187368 53.6397872 13.7292632 53.5851809 13.7292632 53.5302606 13.7292632 53.5302606 13.6187368 53.4204202 13.6187368 53.3655 13.6187368 53.3655 13.7292632 53.3105798 13.7292632 53.2556596 13.7292632 53.2556596 13.6187368 53.146133 13.6187368 53.0912128 13.6187368 53.0912128 13.7292632 52.9264521 13.7292632L52.0486702 13.7292632 52.0486702 13.8394737 52.7620053 13.8394737 52.7620053 14.2812632 52.6521649 14.2812632 52.6521649 14.0605263 52.3778777 14.0605263 52.3778777 14.2812632 52.2680372 14.2812632"/>
    <path d="M57.042016,12.0173684 C57.042016,13.95 55.4505851,15.5510526 53.4753404,15.5510526 L53.4753404,15.3855789 C55.3410585,15.3855789 56.8772553,13.8947368 56.8772553,12.0173684 C56.8772553,10.1403158 55.3410585,8.64915789 53.4753404,8.64915789 C51.6645426,8.64915789 50.1280319,10.1403158 50.1280319,12.0173684 C50.1280319,13.8947368 51.6645426,15.3855789 53.4753404,15.3855789 L53.4753404,15.5510526 C51.5547021,15.5510526 49.9632713,13.95 49.9632713,12.0173684 C49.9632713,10.0297895 51.5547021,8.42842105 53.4753404,8.42842105 C55.4505851,8.42842105 57.042016,10.0297895 57.042016,12.0173684"/>
    <path d="M57.1518564,12.0173684 C57.1518564,9.97452632 55.5055053,8.37315789 53.4753404,8.37315789 C51.4997819,8.37315789 49.8537447,9.97452632 49.8537447,12.0173684 C49.8537447,14.0052632 51.4997819,15.6615789 53.4753404,15.6615789 L53.4753404,15.7168421 C51.4451755,15.7168421 49.7988245,14.0605263 49.7988245,12.0173684 C49.7988245,9.91926316 51.4451755,8.26294737 53.4753404,8.26294737 C55.5604255,8.26294737 57.2064628,9.91926316 57.2064628,12.0173684 C57.2064628,14.0605263 55.5604255,15.7168421 53.4753404,15.7168421 L53.4753404,15.6615789 C55.5055053,15.6615789 57.1518564,14.0052632 57.1518564,12.0173684"/>
    <path d="M58.5236064,12.0173684 C58.5236064,14.8332632 56.2737606,17.0971579 53.4753404,17.0971579 L53.4753404,17.2629474 C56.3836011,17.2629474 58.7429734,14.8885263 58.7429734,12.0173684 C58.7429734,9.09094737 56.3836011,6.77210526 53.4753404,6.77210526 C50.622,6.77210526 48.2623138,9.09094737 48.2623138,12.0173684 C48.2623138,14.8885263 50.622,17.2629474 53.4753404,17.2629474 L53.4753404,17.0971579 C50.7315266,17.0971579 48.4819947,14.8332632 48.4819947,12.0173684 C48.4819947,9.20147368 50.7315266,6.93757895 53.4753404,6.93757895 C56.2737606,6.93757895 58.5236064,9.20147368 58.5236064,12.0173684"/>
    <path d="M58.413766,12.0173684 C58.413766,9.25673684 56.2188404,7.04810526 53.4753404,7.04810526 C50.7864468,7.04810526 48.5366011,9.25673684 48.5366011,12.0173684 C48.5366011,14.7230526 50.7864468,16.9866316 53.4753404,16.9866316 L53.4753404,16.8764211 C50.841367,16.8764211 48.6464415,14.7230526 48.6464415,12.0173684 C48.6464415,9.312 50.841367,7.10336842 53.4753404,7.10336842 C56.1639202,7.10336842 58.3588457,9.312 58.3588457,12.0173684 C58.3588457,14.7230526 56.1639202,16.8764211 53.4753404,16.8764211 L53.4753404,16.9866316 C56.2188404,16.9866316 58.413766,14.7230526 58.413766,12.0173684"/>
    <path d="M52.5972447 7.43463158L52.9813723 8.09715789C52.9264521 8.15242105 52.8715319 8.15242105 52.8169255 8.15242105L52.7070851 8.04189474 52.4874043 8.09715789 52.5423245 7.87642105 52.6521649 7.87642105 52.5423245 7.71063158 52.5423245 7.87642105 52.4874043 8.09715789 52.4874043 8.20768421C52.4327979 8.20768421 52.3778777 8.26294737 52.3229574 8.26294737L52.3778777 7.48989474 52.5972447 7.43463158M56.7677287 8.75968421L56.5480479 8.98073684C56.4931277 8.98073684 56.4931277 9.036 56.4931277 9.09094737L56.6578883 9.25673684 56.6029681 9.36726316 56.3836011 9.09094737 56.2737606 9.20147368 56.4931277 9.53273684 56.6578883 9.53273684 56.8772553 9.312 56.8772553 9.25673684 56.7128085 9.036 56.8223351 8.98073684 57.042016 9.20147368 57.1518564 9.09094737 56.8772553 8.81494737C56.8223351 8.75968421 56.7677287 8.75968421 56.7677287 8.75968421M50.0181915 10.3057895C49.9632713 10.3057895 49.9632713 10.3610526 49.9086649 10.4163158L49.25025 10.0850526 49.469617 9.64326316 49.6340638 9.75378947 49.469617 10.0297895 49.5794574 10.0850526 49.688984 9.864 49.8537447 9.91926316 49.7439043 10.1403158 50.0181915 10.3057895M56.5480479 8.48368421C56.6029681 8.48368421 56.6029681 8.59421053 56.5480479 8.59421053L56.2188404 9.036C56.1639202 9.09094737 56.1093138 9.09094737 56.0543936 9.036 55.9994734 8.98073684 55.9445532 8.92547368 55.9445532 8.92547368 55.889633 8.92547368 55.8347128 8.87021053 55.7797926 8.81494737 55.7251862 8.81494737 55.7251862 8.75968421 55.7797926 8.70442105L56.1093138 8.26294737C56.1639202 8.20768421 56.2188404 8.20768421 56.2737606 8.26294737L56.2188404 8.42842105 55.9445532 8.75968421 56.1093138 8.87021053 56.3836011 8.53894737 56.2188404 8.42842105 56.2737606 8.26294737 56.5480479 8.48368421M51.8289894 8.15242105L51.7194628 8.20768421 51.6096223 8.04189474 51.774383 7.98694737C51.8289894 7.98694737 51.8289894 7.93168421 51.8289894 7.93168421L51.774383 7.87642105C51.774383 7.87642105 51.774383 7.87642105 51.7194628 7.87642105L51.5547021 7.93168421 51.6096223 8.04189474 51.7194628 8.20768421 51.8289894 8.48368421C51.774383 8.48368421 51.7194628 8.53894737 51.6645426 8.53894737L51.3353351 7.87642105 51.774383 7.65536842C51.8289894 7.65536842 51.8839096 7.65536842 51.8839096 7.71063158L51.99375 7.93168421C51.99375 7.93168421 51.99375 7.98694737 51.9388298 7.98694737L51.9388298 8.04189474C51.99375 7.98694737 52.0486702 8.04189474 52.0486702 8.04189474 52.0486702 8.09715789 52.1581968 8.20768421 52.1581968 8.26294737 52.1581968 8.26294737 52.1581968 8.31789474 52.213117 8.31789474 52.1581968 8.31789474 52.1035904 8.37315789 52.0486702 8.37315789 51.99375 8.37315789 51.99375 8.37315789 51.99375 8.31789474 51.99375 8.31789474 51.9388298 8.20768421 51.9388298 8.15242105L51.8289894 8.15242105M53.5851809 8.09715789L53.5851809 7.93168421 53.2556596 7.93168421 53.2556596 7.32410526 53.0912128 7.32410526 53.146133 8.09715789 53.5851809 8.09715789M50.3473989 9.42252632L50.4572394 9.53273684C50.4023191 9.64326316 50.2927926 9.75378947 50.1829521 9.91926316L49.5794574 9.47747368 49.8537447 9.09094737 50.0181915 9.20147368 49.7988245 9.42252632 49.9086649 9.53273684 50.0731117 9.312 50.2378723 9.36726316 50.0731117 9.588 50.1829521 9.69852632 50.3473989 9.42252632M50.5670798 9.42252632L50.0181915 8.87021053 50.1280319 8.81494737 50.2927926 8.87021053 50.5670798 9.20147368 50.7315266 8.98073684 50.4572394 8.70442105 50.2927926 8.87021053 50.1280319 8.81494737 50.3473989 8.53894737C50.4023191 8.48368421 50.4572394 8.48368421 50.5121596 8.53894737L50.8962872 8.92547368C50.9512074 8.98073684 50.9512074 9.036 50.8962872 9.09094737 50.841367 9.14621053 50.7864468 9.20147368 50.7864468 9.20147368 50.7315266 9.20147368 50.622 9.36726316 50.5670798 9.42252632M51.3902553 8.48368421L51.4997819 8.64915789C51.3902553 8.70442105 51.2254947 8.81494737 51.1156543 8.92547368L50.6769202 8.26294737 51.0610479 8.04189474 51.1705745 8.15242105 50.8962872 8.31789474 51.0061277 8.42842105 51.2254947 8.26294737 51.2804149 8.42842105 51.0610479 8.59421053 51.1705745 8.70442105 51.3902553 8.48368421M53.9143883 8.09715789L54.0239149 7.32410526 54.1337553 7.37936842 54.1886755 7.54515789 54.0788351 7.98694737 54.3531223 7.98694737 54.4080426 7.60042105 54.1886755 7.54515789 54.1337553 7.37936842 54.517883 7.43463158C54.5728032 7.43463158 54.5728032 7.48989474 54.5728032 7.54515789L54.4629628 8.09715789C54.4629628 8.15242105 54.4080426 8.20768421 54.3531223 8.15242105L54.1886755 8.15242105C54.1886755 8.15242105 53.9689947 8.09715789 53.9143883 8.09715789M55.1213777 8.26294737L55.0664574 8.42842105C54.9569309 8.37315789 54.7921702 8.31789474 54.6274096 8.26294737L54.9020106 7.54515789 55.3410585 7.71063158 55.2861383 7.87642105 55.0115372 7.76589474 54.9569309 7.87642105 55.1762979 7.98694737 55.1213777 8.15242105 54.9020106 8.04189474 54.8470904 8.15242105 55.1213777 8.26294737M55.4505851 8.26294737L55.5604255 8.15242105 55.7251862 8.20768421C55.7251862 8.26294737 55.7797926 8.20768421 55.7797926 8.20768421L55.7797926 8.15242105C55.7797926 8.15242105 55.7797926 8.15242105 55.7797926 8.09715789L55.6153457 8.04189474 55.5604255 8.15242105 55.4505851 8.26294737 55.3410585 8.53894737C55.2861383 8.53894737 55.2312181 8.48368421 55.1762979 8.48368421L55.5604255 7.82115789 55.9994734 8.04189474C55.9994734 8.04189474 56.0543936 8.09715789 55.9994734 8.15242105L55.8347128 8.42842105C55.8347128 8.42842105 55.7797926 8.48368421 55.7797926 8.42842105L55.4505851 8.26294737M56.7128085 9.75378947L57.3163032 9.312 57.3712234 9.47747368 56.7677287 9.864C56.7677287 9.864 56.7677287 9.80905263 56.7128085 9.80905263L56.7128085 9.75378947M57.5356702 10.0297895L56.9870957 10.3057895 56.9870957 10.1952632C56.9321755 10.1952632 56.9321755 10.1403158 56.9321755 10.1403158L57.4261436 9.864 57.3712234 9.75378947 57.5356702 9.64326316 57.7553511 10.0850526 57.5905904 10.1403158 57.5356702 10.0297895"/>
    <polyline points="49.305 10.692 49.305 10.858 49.525 10.968 49.305 11.024 49.305 11.189 49.195 11.024 48.976 11.079 49.085 10.913 49.031 10.748 49.195 10.803 49.305 10.692"/>
    <polyline points="57.7 10.692 57.7 10.858 57.481 10.968 57.7 11.024 57.7 11.189 57.81 11.024 58.03 11.079 57.865 10.913 57.975 10.748 57.81 10.803 57.7 10.692"/>
    <path d="M51.774383 16.1033684L51.774383 16.1586316 51.5547021 16.0481053 51.7194628 15.6615789 51.9388298 15.7721053 51.9388298 15.8273684 52.0486702 15.8826316 52.1035904 15.7721053C52.1035904 15.7168421 52.1035904 15.6615789 52.0486702 15.6615789 51.99375 15.6063158 51.8839096 15.6063158 51.8839096 15.5510526 51.8839096 15.5510526 51.8289894 15.5510526 51.7194628 15.4961053 51.6645426 15.4961053 51.6096223 15.4961053 51.6096223 15.5510526L51.3902553 16.0481053C51.3353351 16.1033684 51.3902553 16.1586316 51.4451755 16.2138947L51.7194628 16.3241053C51.774383 16.3793684 51.8839096 16.3241053 51.8839096 16.2691579L51.9388298 16.2138947 51.774383 16.1033684M49.6340638 11.8641754L48.8661223 11.8058421 48.8661223 11.6308421 49.6340638 11.6891754 49.6340638 11.7475088 49.6340638 11.8641754M49.5794574 12.7904211L49.3051702 12.8456842C49.25025 12.8456842 49.25025 12.9009474 49.25025 12.9562105L49.3051702 13.1769474 49.1953298 13.2322105 49.0854894 12.9009474 48.9756489 12.9562105 49.0305691 13.3427368C49.0854894 13.3976842 49.0854894 13.3976842 49.1404096 13.3976842L49.469617 13.3427368C49.469617 13.2874737 49.5245372 13.2874737 49.469617 13.2322105L49.4146968 13.0111579 49.5794574 12.9562105 49.6340638 13.2874737 49.7988245 13.2322105 49.688984 12.8456842C49.688984 12.7904211 49.6340638 12.7904211 49.5794574 12.7904211M49.1953298 12.5144211L49.6340638 12.4591579 49.6340638 12.5696842 49.6340638 12.6249474 48.9207287 12.6798947 48.9207287 12.5696842 49.3597766 12.1831579 48.8661223 12.2384211 48.8661223 12.0726316 49.6340638 12.0173684 49.6340638 12.1278947 49.6340638 12.1831579 49.1953298 12.5144211M49.3597766 14.0605263C49.3597766 14.1157895 49.4146968 14.1157895 49.469617 14.1157895L50.0731117 13.8394737 50.0181915 13.7292632 49.469617 13.95 49.3597766 13.7292632 49.9086649 13.5082105 49.8537447 13.3427368 49.25025 13.6187368C49.1953298 13.6187368 49.1953298 13.674 49.1953298 13.7292632L49.3597766 14.0605263"/>
    <polyline points="50.128 15.22 50.238 15.165 50.402 15.054 50.567 14.999 50.512 15.165 50.402 15.054 50.238 15.165 50.402 15.33 50.347 15.441 50.457 15.551 50.841 14.889 50.677 14.723 50.018 15.11 50.128 15.22"/>
    <path d="M50.4572394 14.3917895C50.4572394 14.4470526 50.4572394 14.502 50.4023191 14.502L50.2378723 14.6677895 50.1280319 14.6677895 50.1280319 14.7230526C50.0731117 14.7783158 49.9632713 14.8332632 49.9086649 14.8332632 49.9086649 14.8885263 49.8537447 14.8885263 49.9086649 14.9437895L49.7988245 14.7783158 49.7988245 14.7230526C49.8537447 14.7230526 49.9086649 14.6677895 49.9632713 14.6125263 49.9632713 14.6125263 50.0181915 14.5572632 49.9632713 14.5572632L49.9086649 14.3917895 50.0181915 14.3365263 50.1280319 14.4470526C50.1280319 14.502 50.1829521 14.502 50.1829521 14.502L50.2378723 14.4470526 50.2378723 14.3917895 50.1280319 14.226 50.0181915 14.3365263 49.9086649 14.3917895 49.6340638 14.6125263 49.5245372 14.4470526 50.1829521 14.0052632C50.2378723 14.1707368 50.3473989 14.2812632 50.4572394 14.3917895M52.5972447 15.9928421L52.6521649 15.8273684C52.5423245 15.8273684 52.3778777 15.7721053 52.213117 15.7168421L51.99375 16.4346316 52.4874043 16.5451579 52.4874043 16.4346316 52.213117 16.3241053 52.2680372 16.2138947 52.4874043 16.2691579 52.5423245 16.1033684 52.2680372 16.0481053 52.3229574 15.9375789 52.5972447 15.9928421M51.1705745 15.6615789L51.3902553 15.3303158C51.4451755 15.3303158 51.4451755 15.3303158 51.4997819 15.3855789L51.5547021 15.3855789 51.1156543 16.0481053 51.0061277 15.9375789 51.0061277 15.3855789 50.7315266 15.7721053 50.622 15.6615789 51.0610479 15.0543158C51.0610479 15.1095789 51.1156543 15.1095789 51.1156543 15.1095789 51.1705745 15.1095789 51.1705745 15.1645263 51.1705745 15.1645263L51.1705745 15.6615789M53.9143883 16.6556842C53.8594681 16.6556842 53.8045479 16.6556842 53.8045479 16.6004211L53.7496277 16.0481053C53.7496277 15.9928421 53.7496277 15.9375789 53.8045479 15.9375789 53.9143883 15.8826316 53.9689947 15.8826316 54.0239149 15.8826316L54.1886755 15.8826316C54.2435957 15.8826316 54.2982021 15.8826316 54.2982021 15.9375789L54.3531223 16.4898947C54.3531223 16.5451579 54.3531223 16.6004211 54.2982021 16.6004211L54.1886755 16.4898947 54.1337553 16.0481053 53.9143883 16.1033684 53.9689947 16.4898947 54.1886755 16.4898947 54.2982021 16.6004211 53.9143883 16.6556842M55.5604255 15.3303158C55.6153457 15.3303158 55.6153457 15.3303158 55.670266 15.3855789L55.7797926 15.6615789C55.8347128 15.7168421 55.8347128 15.7168421 55.7797926 15.7721053L55.5055053 15.9375789 55.3956649 15.7721053 55.5604255 15.6615789C55.6153457 15.6615789 55.6153457 15.6615789 55.6153457 15.6063158L55.5604255 15.6063158C55.5604255 15.5510526 55.5055053 15.5510526 55.5055053 15.5510526L55.3410585 15.6615789 55.3956649 15.7721053 55.5055053 15.9375789 55.6153457 16.1586316C55.5604255 16.2138947 55.5055053 16.2138947 55.4505851 16.2691579L55.1213777 15.6063158C55.2312181 15.5510526 55.4505851 15.4408421 55.5604255 15.3303158M57.7553511 13.95L57.2064628 13.674 57.1518564 13.8394737 56.9870957 13.7842105C57.042016 13.674 57.1518564 13.4529474 57.1518564 13.3427368L57.3163032 13.3976842 57.261383 13.5634737 57.8102713 13.7842105 57.7553511 13.95M53.4753404 16.4898947L53.4753404 16.5451579 53.2010532 16.4898947 53.2556596 16.1033684 53.4753404 16.1033684 53.4753404 16.1586316 53.6397872 16.1586316 53.6397872 16.0481053C53.6397872 15.9928421 53.5851809 15.9375789 53.5302606 15.9375789L53.3655 15.9375789 53.2010532 15.9375789C53.146133 15.9375789 53.0912128 15.9375789 53.0912128 15.9928421L53.0362926 16.5451579C53.0362926 16.6004211 53.0912128 16.6556842 53.146133 16.6556842L53.5302606 16.7106316C53.5851809 16.7106316 53.6397872 16.6556842 53.6397872 16.6004211L53.6397872 16.4898947 53.4753404 16.4898947M54.9020106 15.6615789C54.9020106 15.6615789 54.9569309 15.6615789 54.9569309 15.7168421L55.0664574 15.9375789C55.0664574 15.9928421 55.0115372 16.0481053 55.0115372 16.0481053 55.0664574 16.0481053 55.0664574 16.0481053 55.0664574 16.1033684 55.1213777 16.1586316 55.1213777 16.2691579 55.1762979 16.3241053 55.1762979 16.3241053 55.1762979 16.3793684 55.2312181 16.3793684L55.0115372 16.4346316 55.0115372 16.3793684C54.9569309 16.3241053 54.9569309 16.2138947 54.9569309 16.2138947 54.9569309 16.1586316 54.9020106 16.1586316 54.8470904 16.1586316L54.73725 16.2138947 54.6823298 16.0481053 54.8470904 15.9928421C54.8470904 15.9928421 54.8470904 15.9928421 54.8470904 15.9375789L54.8470904 15.8826316C54.8470904 15.8826316 54.8470904 15.8826316 54.7921702 15.8826316L54.6274096 15.9375789 54.6823298 16.0481053 54.73725 16.2138947 54.7921702 16.4898947 54.6274096 16.5451579 54.4080426 15.8273684C54.5728032 15.7721053 54.73725 15.7168421 54.9020106 15.6615789M56.2737606 15.7721053C56.2188404 15.8273684 56.1639202 15.8273684 56.1093138 15.7721053L55.7797926 15.3303158C55.7251862 15.2750526 55.7251862 15.2197895 55.7797926 15.2197895 55.8347128 15.1645263 55.9445532 15.1095789 55.9445532 15.0543158 55.9445532 15.0543158 55.9994734 14.9990526 56.0543936 14.9437895 56.1093138 14.9437895 56.1639202 14.9437895 56.2188404 14.9990526L56.5480479 15.4408421C56.6029681 15.4408421 56.6029681 15.4961053 56.5480479 15.5510526L56.3836011 15.4961053 56.1093138 15.1095789 55.9445532 15.2750526 56.2188404 15.6063158 56.3836011 15.4961053 56.5480479 15.5510526 56.2737606 15.7721053M56.6029681 14.4470526C56.6029681 14.3917895 56.6578883 14.3917895 56.6578883 14.4470526L56.8772553 14.6125263 56.8772553 14.6677895 56.9870957 14.6677895C56.9870957 14.7230526 57.0969362 14.8332632 57.0969362 14.8332632 57.1518564 14.8332632 57.1518564 14.8885263 57.2064628 14.8332632L57.0969362 14.9990526C57.042016 14.9990526 57.042016 14.9990526 57.042016 14.9437895 56.9870957 14.9437895 56.9321755 14.8885263 56.8772553 14.8332632L56.8223351 14.8332632 56.7128085 14.9990526 56.6029681 14.8332632 56.7128085 14.7230526 56.7128085 14.6677895 56.6578883 14.6125263C56.6578883 14.6125263 56.6029681 14.6125263 56.6029681 14.6677895L56.4931277 14.7783158 56.6029681 14.8332632 56.7128085 14.9990526 56.9321755 15.1645263 56.8223351 15.2750526 56.2737606 14.7783158C56.3836011 14.6677895 56.4931277 14.5572632 56.6029681 14.4470526"/>
    <polyline points="57.371 14.613 57.261 14.502 57.152 14.392 57.042 14.226 57.261 14.281 57.152 14.392 57.261 14.502 57.426 14.337 57.536 14.337 57.646 14.226 56.877 14.005 56.768 14.171 57.261 14.778 57.371 14.613"/>
    <path d="M57.261383 13.0664211L57.9747181 13.2874737 57.9197979 13.4529474 57.2064628 13.2322105C57.2064628 13.1769474 57.261383 13.1769474 57.261383 13.1216842L57.261383 13.0664211M57.8102713 11.7413684L57.4261436 11.7966316C57.4261436 11.7413684 57.4261436 11.7413684 57.3712234 11.6861053L57.3712234 11.6308421 58.1394787 11.5758947 58.1394787 11.7413684 57.7004309 12.0726316 58.1394787 12.0726316 58.1394787 12.2384211 57.4261436 12.2384211 57.4261436 12.1278947 57.4261436 12.0726316 57.8102713 11.7413684M58.0845585 12.9562105C58.0845585 13.0111579 58.0296383 13.0111579 57.9747181 13.0111579L57.4261436 12.9562105C57.3712234 12.9009474 57.3163032 12.8456842 57.3163032 12.7904211 57.3163032 12.7351579 57.3712234 12.6798947 57.3712234 12.6249474L57.3712234 12.4591579C57.3712234 12.4038947 57.4261436 12.3486316 57.4810638 12.4038947L58.0296383 12.4591579C58.0845585 12.4591579 58.1394787 12.5144211 58.1394787 12.5696842L57.9747181 12.6249474 57.5356702 12.5696842 57.4810638 12.7904211 57.9197979 12.8456842 57.9747181 12.6249474 58.1394787 12.5696842 58.0845585 12.9562105M52.3816222 10.4804561C52.440287 10.4804561 52.4986165 10.4224561 52.4986165 10.3641228 52.4986165 10.3057895 52.440287 10.3057895 52.3816222 10.3057895 52.3229574 10.3057895 52.3229574 10.3057895 52.3229574 10.3641228 52.3229574 10.4224561 52.3229574 10.4804561 52.3816222 10.4804561"/>
    <path d="M52.3778777 10.4163158L52.1035904 11.4653684 52.1581968 11.4653684 52.3778777 10.6923158 52.3778777 11.4653684 52.4327979 11.4653684 52.4327979 10.6923158 52.5972447 11.4653684 52.1035904 11.4653684C52.1581968 11.5758947 52.2680372 11.6308421 52.3778777 11.6308421 52.4874043 11.6308421 52.6521649 11.5758947 52.7070851 11.4653684L52.4327979 10.4163158 52.3778777 10.4163158M53.4753404 9.91926316L53.6397872 9.97452632C53.5302606 9.97452632 53.5302606 10.0850526 53.5302606 10.1952632 53.5302606 10.1952632 53.5851809 10.2505263 53.6397872 10.2505263 53.6947074 10.2505263 53.8045479 10.1952632 53.9143883 10.1952632 54.0788351 10.1952632 54.2435957 10.2505263 54.3531223 10.2505263 54.517883 10.2505263 54.5728032 10.1952632 54.5728032 10.1952632 54.6274096 10.1952632 54.6823298 10.2505263 54.6823298 10.3057895 54.6823298 10.3610526 54.6274096 10.3610526 54.5728032 10.3610526 54.5728032 10.3610526 54.517883 10.3057895 54.3531223 10.3057895 54.2435957 10.3057895 54.0788351 10.3610526 53.9143883 10.3610526 53.8045479 10.3610526 53.6947074 10.3057895 53.6397872 10.3057895 53.5851809 10.3057895 53.5302606 10.3610526 53.5302606 10.4163158L53.5851809 10.4712632 53.4753404 10.6923158 53.3655 10.4712632 53.4753404 10.4163158C53.4753404 10.3610526 53.4204202 10.3057895 53.3655 10.3057895 53.3105798 10.3057895 53.2010532 10.3610526 53.0912128 10.3610526 52.9264521 10.3610526 52.7620053 10.3057895 52.6521649 10.3057895 52.4874043 10.3057895 52.4327979 10.3610526 52.3778777 10.3610526 52.3778777 10.3610526 52.2680372 10.3610526 52.2680372 10.3057895 52.2680372 10.2505263 52.3778777 10.1952632 52.3778777 10.1952632 52.4327979 10.1952632 52.4874043 10.2505263 52.6521649 10.2505263 52.7620053 10.2505263 52.9264521 10.1952632 53.0912128 10.1952632 53.2010532 10.1952632 53.3105798 10.2505263 53.3655 10.2505263 53.4204202 10.2505263 53.4753404 10.1952632 53.4753404 10.1952632 53.4753404 10.0850526 53.4204202 9.97452632 53.3655 9.97452632L53.4753404 9.91926316"/>
    <path d="M54.6348773,10.4804561 C54.5765478,10.4804561 54.517883,10.4224561 54.517883,10.3641228 C54.517883,10.3057895 54.5765478,10.3057895 54.6348773,10.3057895 C54.6935421,10.3057895 54.6935421,10.3057895 54.6935421,10.3641228 C54.6935421,10.4224561 54.6935421,10.4804561 54.6348773,10.4804561"/>
    <path d="M54.6274096 10.4163158L54.9020106 11.4653684 54.8470904 11.4653684 54.6274096 10.6923158 54.6274096 11.4653684 54.5728032 11.4653684 54.5728032 10.6923158 54.3531223 11.4653684 54.9020106 11.4653684C54.8470904 11.5758947 54.73725 11.6308421 54.6274096 11.6308421 54.517883 11.6308421 54.3531223 11.5758947 54.2982021 11.4653684L54.5728032 10.4163158 54.6274096 10.4163158M51.7232073 10.1464561C51.7818721 10.1464561 51.7818721 10.1464561 51.7818721 10.0881228 51.7818721 10.0297895 51.7818721 10.0297895 51.7232073 10.0297895 51.6645426 10.0297895 51.6645426 10.0297895 51.6645426 10.0881228 51.6645426 10.1464561 51.6645426 10.1464561 51.7232073 10.1464561M51.5072496 10.4255263C51.5072496 10.4255263 51.5659144 10.367193 51.5659144 10.3088596L51.5072496 10.2505263C51.4489201 10.2505263 51.3902553 10.3088596 51.3902553 10.3088596 51.3902553 10.367193 51.4489201 10.4255263 51.5072496 10.4255263M52.0012391 10.4255263C52.0012391 10.4255263 52.0599039 10.367193 52.0599039 10.3088596L52.0012391 10.2505263C51.9425743 10.2505263 51.8839096 10.3088596 51.8839096 10.3088596 51.8839096 10.367193 51.9425743 10.4255263 52.0012391 10.4255263M51.7232073 10.643193C51.7818721 10.643193 51.7818721 10.643193 51.7818721 10.5848596 51.7818721 10.5265263 51.7818721 10.5265263 51.7232073 10.5265263 51.6645426 10.5265263 51.6645426 10.5265263 51.6645426 10.5848596 51.6645426 10.643193 51.6645426 10.643193 51.7232073 10.643193M52.2168616 10.1464561C52.2755264 10.1464561 52.2755264 10.1464561 52.2755264 10.0881228 52.2755264 10.0297895 52.2755264 10.0297895 52.2168616 10.0297895 52.1581968 10.0297895 52.1581968 10.0297895 52.1581968 10.0881228 52.1581968 10.1464561 52.1581968 10.1464561 52.2168616 10.1464561M54.7959148 10.1464561C54.8545795 10.1464561 54.8545795 10.1464561 54.8545795 10.0881228 54.8545795 10.0297895 54.8545795 10.0297895 54.7959148 10.0297895 54.73725 10.0297895 54.73725 10.0297895 54.73725 10.0881228 54.73725 10.1464561 54.73725 10.1464561 54.7959148 10.1464561M55.3448031 10.1464561C55.4031326 10.1464561 55.4031326 10.1464561 55.4031326 10.0881228 55.4031326 10.0297895 55.4031326 10.0297895 55.3448031 10.0297895 55.2861383 10.0297895 55.2861383 10.0297895 55.2861383 10.0881228 55.2861383 10.1464561 55.2861383 10.1464561 55.3448031 10.1464561M52.2168616 10.6462632C52.2755264 10.6462632 52.2755264 10.5879298 52.2755264 10.5879298 52.2755264 10.5295965 52.2755264 10.4712632 52.2168616 10.4712632 52.1581968 10.4712632 52.1581968 10.5295965 52.1581968 10.5879298 52.1581968 10.5879298 52.1581968 10.6462632 52.2168616 10.6462632M52.7694944 11.1402456C52.7694944 11.1402456 52.8281592 11.1402456 52.8281592 11.0819123 52.8281592 11.0235789 52.7694944 11.0235789 52.7694944 11.0235789 52.7108297 11.0235789 52.6521649 11.0235789 52.6521649 11.0819123 52.6521649 11.1402456 52.7108297 11.1402456 52.7694944 11.1402456M53.0437817 11.3609825C53.0437817 11.3609825 53.1024464 11.3609825 53.1024464 11.3026491 53.1024464 11.2443158 53.0437817 11.2443158 53.0437817 11.2443158 52.9851169 11.2443158 52.9264521 11.2443158 52.9264521 11.3026491 52.9264521 11.3609825 52.9851169 11.3609825 53.0437817 11.3609825M52.0012391 10.9222456C52.0012391 10.9222456 52.0599039 10.8639123 52.0599039 10.8059123L52.0012391 10.7475789C51.9425743 10.7475789 51.8839096 10.8059123 51.8839096 10.8059123 51.8839096 10.8639123 51.9425743 10.9222456 52.0012391 10.9222456M51.7232073 11.1433158C51.7818721 11.1433158 51.7818721 11.0849825 51.7818721 11.0849825 51.7818721 11.0266491 51.7818721 10.9683158 51.7232073 10.9683158 51.6645426 10.9683158 51.6645426 11.0266491 51.6645426 11.0849825 51.6645426 11.0849825 51.6645426 11.1433158 51.7232073 11.1433158M52.0012391 11.4193158C52.0012391 11.4193158 52.0599039 11.3609825 52.0599039 11.3026491 52.0599039 11.2443158 52.0012391 11.2443158 52.0012391 11.2443158 51.9425743 11.2443158 51.8839096 11.2443158 51.8839096 11.3026491 51.8839096 11.3609825 51.9425743 11.4193158 52.0012391 11.4193158M52.4911274 11.9163684C52.5497922 11.9163684 52.5497922 11.8580351 52.5497922 11.8580351 52.5497922 11.7997018 52.5497922 11.7413684 52.4911274 11.7413684 52.4327979 11.7413684 52.4327979 11.7997018 52.4327979 11.8580351 52.4327979 11.8580351 52.4327979 11.9163684 52.4911274 11.9163684M51.7232073 11.6400351C51.7818721 11.6400351 51.7818721 11.5820351 51.7818721 11.5820351 51.7818721 11.5237018 51.7818721 11.4653684 51.7232073 11.4653684 51.6645426 11.4653684 51.6645426 11.5237018 51.6645426 11.5820351 51.6645426 11.5820351 51.6645426 11.6400351 51.7232073 11.6400351M51.7232073 12.1340351C51.7818721 12.1340351 51.7818721 12.1340351 51.7818721 12.0757018 51.7818721 12.0173684 51.7818721 12.0173684 51.7232073 12.0173684 51.6645426 12.0173684 51.6645426 12.0173684 51.6645426 12.0757018 51.6645426 12.1340351 51.6645426 12.1340351 51.7232073 12.1340351M51.7232073 12.6310877C51.7818721 12.6310877 51.7818721 12.6310877 51.7818721 12.5727544 51.7818721 12.5144211 51.7818721 12.5144211 51.7232073 12.5144211 51.6645426 12.5144211 51.6645426 12.5144211 51.6645426 12.5727544 51.6645426 12.6310877 51.6645426 12.6310877 51.7232073 12.6310877M51.9974946 12.4130877C52.0561593 12.4130877 52.0561593 12.3547544 52.0561593 12.2967544 52.0561593 12.2967544 52.0561593 12.2384211 51.9974946 12.2384211 51.9388298 12.2384211 51.9388298 12.2967544 51.9388298 12.2967544 51.9388298 12.3547544 51.9388298 12.4130877 51.9974946 12.4130877M52.2755264 12.1340351C52.2755264 12.1340351 52.3341911 12.1340351 52.3341911 12.0757018 52.3341911 12.0173684 52.2755264 12.0173684 52.2755264 12.0173684 52.2168616 12.0173684 52.1581968 12.0173684 52.1581968 12.0757018 52.1581968 12.1340351 52.2168616 12.1340351 52.2755264 12.1340351M51.9974946 11.9163684C52.0561593 11.9163684 52.0561593 11.8580351 52.0561593 11.7997018 52.0561593 11.7997018 52.0561593 11.7413684 51.9974946 11.7413684 51.9388298 11.7413684 51.9388298 11.7997018 51.9388298 11.7997018 51.9388298 11.8580351 51.9388298 11.9163684 51.9974946 11.9163684M51.5072496 12.9101579L51.5659144 12.8518246C51.5659144 12.7934912 51.5072496 12.7351579 51.5072496 12.7351579 51.4489201 12.7351579 51.3902553 12.7934912 51.3902553 12.8518246 51.3902553 12.8518246 51.4489201 12.9101579 51.5072496 12.9101579M52.7694944 10.6462632L52.8281592 10.5879298C52.8281592 10.5295965 52.7694944 10.4712632 52.7694944 10.4712632 52.7108297 10.4712632 52.6521649 10.5295965 52.6521649 10.5879298 52.6521649 10.5879298 52.7108297 10.6462632 52.7694944 10.6462632M52.9851169 10.9222456C53.0437817 10.9222456 53.1024464 10.8639123 53.1024464 10.8059123 53.1024464 10.8059123 53.0437817 10.7475789 52.9851169 10.7475789 52.9264521 10.7475789 52.9264521 10.8059123 52.9264521 10.8059123 52.9264521 10.8639123 52.9264521 10.9222456 52.9851169 10.9222456M53.2593827 11.1433158C53.3180475 11.1433158 53.3180475 11.0849825 53.3180475 11.0849825 53.3180475 11.0266491 53.3180475 10.9683158 53.2593827 10.9683158 53.2010532 10.9683158 53.2010532 11.0266491 53.2010532 11.0849825 53.2010532 11.0849825 53.2010532 11.1433158 53.2593827 11.1433158M53.2593827 10.6462632C53.3180475 10.6462632 53.3180475 10.5879298 53.3180475 10.5879298 53.3180475 10.5295965 53.3180475 10.4712632 53.2593827 10.4712632 53.2010532 10.4712632 53.2010532 10.5295965 53.2010532 10.5879298 53.2010532 10.5879298 53.2010532 10.6462632 53.2593827 10.6462632M53.5377498 10.9222456C53.5377498 10.9222456 53.5964145 10.8639123 53.5964145 10.8059123L53.5377498 10.7475789C53.479085 10.7475789 53.4204202 10.8059123 53.4204202 10.8059123 53.4204202 10.8639123 53.479085 10.9222456 53.5377498 10.9222456M53.7533722 10.6462632C53.812037 10.6462632 53.812037 10.5879298 53.812037 10.5879298 53.812037 10.5295965 53.812037 10.4712632 53.7533722 10.4712632 53.6947074 10.4712632 53.6947074 10.5295965 53.6947074 10.5879298 53.6947074 10.5879298 53.6947074 10.6462632 53.7533722 10.6462632M54.0276595 10.9222456C54.0863242 10.9222456 54.144989 10.8639123 54.144989 10.8059123 54.144989 10.8059123 54.0863242 10.7475789 54.0276595 10.7475789L53.9689947 10.8059123C53.9689947 10.8639123 54.0276595 10.9222456 54.0276595 10.9222456M54.3019253 10.643193C54.3605901 10.643193 54.3605901 10.643193 54.3605901 10.5848596 54.3605901 10.5265263 54.3605901 10.5265263 54.3019253 10.5265263 54.2435957 10.5265263 54.2435957 10.5265263 54.2435957 10.5848596 54.2435957 10.643193 54.2435957 10.643193 54.3019253 10.643193M53.812037 11.1402456C53.812037 11.1402456 53.8707018 11.1402456 53.8707018 11.0819123 53.8707018 11.0235789 53.812037 11.0235789 53.812037 11.0235789 53.7533722 11.0235789 53.6947074 11.0235789 53.6947074 11.0819123 53.6947074 11.1402456 53.7533722 11.1402456 53.812037 11.1402456M54.0863242 11.4193158L54.144989 11.3609825C54.144989 11.3026491 54.0863242 11.2443158 54.0863242 11.2443158 54.0276595 11.2443158 53.9689947 11.3026491 53.9689947 11.3609825 53.9689947 11.3609825 54.0276595 11.4193158 54.0863242 11.4193158"/>
    <path d="M54.3019253 11.1402456C54.3605901 11.1402456 54.4192548 11.1402456 54.4192548 11.0819123 54.4192548 11.0235789 54.3605901 11.0235789 54.3019253 11.0235789 54.2435957 11.0235789 54.2435957 11.0235789 54.2435957 11.0819123 54.2435957 11.1402456 54.2435957 11.1402456 54.3019253 11.1402456M55.070202 10.4255263C55.1288668 10.4255263 55.1288668 10.367193 55.1288668 10.367193 55.1288668 10.3088596 55.1288668 10.2505263 55.070202 10.2505263 55.0115372 10.2505263 55.0115372 10.3088596 55.0115372 10.367193 55.0115372 10.367193 55.0115372 10.4255263 55.070202 10.4255263M55.5641701 10.367193C55.6228349 10.367193 55.6814996 10.367193 55.6814996 10.3088596 55.6814996 10.2505263 55.6228349 10.2505263 55.5641701 10.2505263 55.5641701 10.2505263 55.5055053 10.2505263 55.5055053 10.3088596 55.5055053 10.367193 55.5641701 10.367193 55.5641701 10.367193M55.3485476 10.643193C55.3485476 10.643193 55.4068772 10.643193 55.4068772 10.5848596 55.4068772 10.5265263 55.3485476 10.5265263 55.3485476 10.5265263 55.2898829 10.5265263 55.2312181 10.5265263 55.2312181 10.5848596 55.2312181 10.643193 55.2898829 10.643193 55.3485476 10.643193M55.0739252 10.9222456C55.1325899 10.9222456 55.1325899 10.8639123 55.1325899 10.8639123 55.1325899 10.8059123 55.1325899 10.7475789 55.0739252 10.7475789 55.0152604 10.7475789 54.9569309 10.8059123 54.9569309 10.8639123 54.9569309 10.8639123 55.0152604 10.9222456 55.0739252 10.9222456M55.0739252 11.4193158C55.1325899 11.4193158 55.1325899 11.3609825 55.1325899 11.3609825 55.1325899 11.3026491 55.1325899 11.2443158 55.0739252 11.2443158 55.0152604 11.2443158 54.9569309 11.3026491 54.9569309 11.3609825 54.9569309 11.3609825 55.0152604 11.4193158 55.0739252 11.4193158M55.3485476 11.1985789C55.3485476 11.1985789 55.4068772 11.1402456 55.4068772 11.0819123L55.3485476 11.0235789C55.2898829 11.0235789 55.2312181 11.0819123 55.2312181 11.0819123 55.2312181 11.1402456 55.2898829 11.1985789 55.3485476 11.1985789M55.4031326 11.6952982C55.4031326 11.6952982 55.4617974 11.6369649 55.4617974 11.5789649L55.4031326 11.5206316C55.3448031 11.5206316 55.2861383 11.5789649 55.2861383 11.5789649 55.2861383 11.6369649 55.3448031 11.6952982 55.4031326 11.6952982M55.1288668 11.9132982C55.1288668 11.9132982 55.1875316 11.9132982 55.1875316 11.8549649 55.1875316 11.7966316 55.1288668 11.7966316 55.1288668 11.7966316 55.070202 11.7966316 55.0115372 11.7966316 55.0115372 11.8549649 55.0115372 11.9132982 55.070202 11.9132982 55.1288668 11.9132982M54.5765478 11.9132982C54.6348773 11.9132982 54.6348773 11.9132982 54.6348773 11.8549649 54.6348773 11.7966316 54.6348773 11.7966316 54.5765478 11.7966316 54.517883 11.7966316 54.517883 11.7966316 54.517883 11.8549649 54.517883 11.9132982 54.517883 11.9132982 54.5765478 11.9132982M54.850835 12.1923684C54.9094998 12.1923684 54.9094998 12.1340351 54.9094998 12.1340351 54.9094998 12.0757018 54.9094998 12.0173684 54.850835 12.0173684 54.7921702 12.0173684 54.7921702 12.0757018 54.7921702 12.1340351 54.7921702 12.1340351 54.7921702 12.1923684 54.850835 12.1923684M55.070202 12.4130877C55.1288668 12.4130877 55.1288668 12.3547544 55.1288668 12.3547544 55.1288668 12.2967544 55.1288668 12.2384211 55.070202 12.2384211 55.0115372 12.2384211 55.0115372 12.2967544 55.0115372 12.3547544 55.0115372 12.3547544 55.0115372 12.4130877 55.070202 12.4130877M55.3448031 12.6890877C55.4031326 12.6890877 55.4617974 12.6310877 55.4617974 12.5727544 55.4617974 12.5727544 55.4031326 12.5144211 55.3448031 12.5144211L55.2861383 12.5727544C55.2861383 12.6310877 55.3448031 12.6890877 55.3448031 12.6890877M51.9425743 14.0114035C52.0012391 14.0114035 52.0599039 14.0114035 52.0599039 13.9530702 52.0599039 13.8947368 52.0012391 13.8947368 51.9425743 13.8947368 51.9425743 13.8947368 51.8839096 13.8947368 51.8839096 13.9530702 51.8839096 14.0114035 51.9425743 14.0114035 51.9425743 14.0114035M52.494872 13.5174035C52.494872 13.5174035 52.5535368 13.4590702 52.5535368 13.4007368L52.494872 13.3427368C52.4365424 13.3427368 52.3778777 13.4007368 52.3778777 13.4007368 52.3778777 13.4590702 52.4365424 13.5174035 52.494872 13.5174035M52.7108297 13.2383509C52.7694944 13.2383509 52.7694944 13.2383509 52.7694944 13.1800175 52.7694944 13.1216842 52.7694944 13.1216842 52.7108297 13.1216842 52.6521649 13.1216842 52.6521649 13.1216842 52.6521649 13.1800175 52.6521649 13.2383509 52.6521649 13.2383509 52.7108297 13.2383509M52.9851169 13.0203509C53.0437817 13.0203509 53.0437817 12.9623509 53.0437817 12.9040175 53.0437817 12.9040175 53.0437817 12.8456842 52.9851169 12.8456842 52.9264521 12.8456842 52.9264521 12.9040175 52.9264521 12.9040175 52.9264521 12.9623509 52.9264521 13.0203509 52.9851169 13.0203509M53.2631273 12.7443509L53.3217921 12.6860175C53.3217921 12.6280175 53.2631273 12.5696842 53.2631273 12.5696842 53.2047978 12.5696842 53.146133 12.6280175 53.146133 12.6860175 53.146133 12.6860175 53.2047978 12.7443509 53.2631273 12.7443509M53.479085 12.4652982C53.5377498 12.4652982 53.5377498 12.4652982 53.5377498 12.4069649 53.5377498 12.3486316 53.5377498 12.3486316 53.479085 12.3486316 53.4204202 12.3486316 53.4204202 12.3486316 53.4204202 12.4069649 53.4204202 12.4652982 53.4204202 12.4652982 53.479085 12.4652982M53.7533722 12.7443509C53.812037 12.7443509 53.812037 12.6860175 53.812037 12.6860175 53.812037 12.6280175 53.812037 12.5696842 53.7533722 12.5696842 53.6947074 12.5696842 53.6947074 12.6280175 53.6947074 12.6860175 53.6947074 12.6860175 53.6947074 12.7443509 53.7533722 12.7443509M54.0276595 12.9623509C54.0863242 12.9623509 54.0863242 12.9623509 54.0863242 12.9040175 54.0863242 12.8456842 54.0863242 12.8456842 54.0276595 12.8456842 53.9689947 12.8456842 53.9689947 12.8456842 53.9689947 12.9040175 53.9689947 12.9623509 53.9689947 12.9623509 54.0276595 12.9623509M54.2473403 13.2414211C54.3056699 13.2414211 54.3643346 13.1830877 54.3643346 13.1830877 54.3643346 13.1247544 54.3056699 13.0664211 54.2473403 13.0664211 54.2473403 13.0664211 54.1886755 13.1247544 54.1886755 13.1830877L54.2473403 13.2414211M53.7533722 13.2383509C53.812037 13.2383509 53.812037 13.2383509 53.812037 13.1800175 53.812037 13.1216842 53.812037 13.1216842 53.7533722 13.1216842 53.6947074 13.1216842 53.6947074 13.1216842 53.6947074 13.1800175 53.6947074 13.2383509 53.6947074 13.2383509 53.7533722 13.2383509M53.479085 13.0203509C53.5377498 13.0203509 53.5964145 12.9623509 53.5964145 12.9040175 53.5964145 12.9040175 53.5377498 12.8456842 53.479085 12.8456842L53.4204202 12.9040175C53.4204202 12.9623509 53.479085 13.0203509 53.479085 13.0203509M53.2631273 13.2383509C53.2631273 13.2383509 53.3217921 13.2383509 53.3217921 13.1800175 53.3217921 13.1216842 53.2631273 13.1216842 53.2631273 13.1216842 53.2047978 13.1216842 53.146133 13.1216842 53.146133 13.1800175 53.146133 13.2383509 53.2047978 13.2383509 53.2631273 13.2383509M52.9851169 13.5174035C53.0437817 13.5174035 53.0437817 13.4590702 53.0437817 13.4590702 53.0437817 13.4007368 53.0437817 13.3427368 52.9851169 13.3427368 52.9264521 13.3427368 52.9264521 13.4007368 52.9264521 13.4590702 52.9264521 13.4590702 52.9264521 13.5174035 52.9851169 13.5174035M53.479085 13.5174035C53.5377498 13.5174035 53.5964145 13.4590702 53.5964145 13.4590702 53.5964145 13.4007368 53.5377498 13.3427368 53.479085 13.3427368 53.479085 13.3427368 53.4204202 13.4007368 53.4204202 13.4590702L53.479085 13.5174035M53.9727178 13.5174035C54.0313826 13.5174035 54.0900474 13.4590702 54.0900474 13.4590702 54.0900474 13.4007368 54.0313826 13.3427368 53.9727178 13.3427368 53.9727178 13.3427368 53.9143883 13.4007368 53.9143883 13.4590702L53.9727178 13.5174035M54.7996593 13.7384737C54.7996593 13.7384737 54.8583241 13.7384737 54.8583241 13.6801404 54.8583241 13.621807 54.7996593 13.5634737 54.7996593 13.5634737 54.7409946 13.5634737 54.6823298 13.621807 54.6823298 13.6801404 54.6823298 13.7384737 54.7409946 13.7384737 54.7996593 13.7384737M55.0739252 14.0144737C55.0739252 14.0144737 55.1325899 13.9561404 55.1325899 13.897807 55.1325899 13.8394737 55.0739252 13.8394737 55.0739252 13.8394737 55.0152604 13.8394737 54.9569309 13.8394737 54.9569309 13.897807 54.9569309 13.9561404 55.0152604 14.0144737 55.0739252 14.0144737M54.7959148 14.2321228C54.8545795 14.2321228 54.8545795 14.2321228 54.8545795 14.1737895 54.8545795 14.1157895 54.8545795 14.1157895 54.7959148 14.1157895 54.73725 14.1157895 54.73725 14.1157895 54.73725 14.1737895 54.73725 14.2321228 54.73725 14.2321228 54.7959148 14.2321228M53.7533722 14.2321228C53.812037 14.2321228 53.8707018 14.2321228 53.8707018 14.1737895 53.8707018 14.1157895 53.812037 14.1157895 53.7533722 14.1157895 53.6947074 14.1157895 53.6947074 14.1157895 53.6947074 14.1737895 53.6947074 14.2321228 53.6947074 14.2321228 53.7533722 14.2321228M53.2631273 14.2321228C53.2631273 14.2321228 53.3217921 14.2321228 53.3217921 14.1737895 53.3217921 14.1157895 53.2631273 14.1157895 53.2631273 14.1157895 53.2047978 14.1157895 53.146133 14.1157895 53.146133 14.1737895 53.146133 14.2321228 53.2047978 14.2321228 53.2631273 14.2321228M54.0313826 14.511193L54.0900474 14.453193C54.0900474 14.3948596 54.0313826 14.3365263 54.0313826 14.3365263 53.9727178 14.3365263 53.9143883 14.3948596 53.9143883 14.453193 53.9143883 14.453193 53.9727178 14.511193 54.0313826 14.511193M53.479085 14.511193C53.5377498 14.511193 53.5964145 14.453193 53.5964145 14.453193 53.5964145 14.3948596 53.5377498 14.3365263 53.479085 14.3365263 53.479085 14.3365263 53.4204202 14.3948596 53.4204202 14.453193L53.479085 14.511193M52.9851169 14.511193C53.0437817 14.511193 53.0437817 14.453193 53.0437817 14.453193 53.0437817 14.3948596 53.0437817 14.3365263 52.9851169 14.3365263 52.9264521 14.3365263 52.9264521 14.3948596 52.9264521 14.453193 52.9264521 14.453193 52.9264521 14.511193 52.9851169 14.511193"/>
    <path d="M56.2188404,10.4163158 C56.3286809,10.4712632 56.5480479,10.6923158 56.4382074,10.8577895 C55.9445532,10.6923158 55.8347128,11.0788421 55.8347128,11.2995789 C55.8347128,11.8518947 56.2188404,12.0726316 56.2188404,13.0111579 C56.2188404,13.3427368 56.1093138,14.4470526 54.6274096,14.8332632 C54.3531223,14.8885263 53.8594681,14.9990526 53.4753404,15.3303158 L53.4753404,15.2197895 C53.8594681,14.8885263 54.5728032,14.7783158 54.73725,14.7230526 C55.2861383,14.5572632 56.1639202,14.0605263 56.1639202,13.0111579 C56.1639202,12.3486316 55.889633,11.8518947 55.6153457,11.8518947 C55.5055053,11.8518947 55.5604255,11.9624211 55.6153457,12.0726316 C55.670266,12.1278947 55.670266,12.1831579 55.6153457,12.1831579 C55.5055053,12.1831579 55.3956649,12.1831579 55.3956649,12.2936842 L55.4505851,12.2936842 L55.5604255,12.2936842 C55.670266,12.2936842 55.7797926,12.3486316 55.7797926,12.4038947 C55.7797926,12.5144211 55.670266,12.4591579 55.670266,12.5144211 C55.670266,12.5696842 55.9994734,12.7904211 55.9994734,13.1216842 C55.9994734,13.1769474 55.9445532,13.1769474 55.9445532,13.1216842 C55.9445532,13.0664211 55.8347128,12.9562105 55.7797926,12.9562105 C55.7251862,12.9562105 55.7251862,13.0111579 55.7251862,13.0664211 C55.7797926,13.0664211 55.8347128,13.2322105 55.8347128,13.4529474 C55.8347128,13.674 55.7251862,13.8947368 55.6153457,14.0605263 C55.5604255,14.1157895 55.5604255,14.0605263 55.5604255,14.0605263 C55.5055053,14.0052632 55.5055053,13.95 55.4505851,13.95 C55.3956649,13.95 55.4505851,14.3365263 54.517883,14.6125263 C54.3531223,14.6125263 53.8594681,14.7783158 53.4753404,15.0543158 C53.0912128,14.7783158 52.6521649,14.6125263 52.4874043,14.6125263 C51.5547021,14.3365263 51.6096223,13.95 51.5547021,13.95 C51.4997819,13.95 51.4451755,14.0052632 51.4451755,14.0605263 C51.4451755,14.0605263 51.4451755,14.1157895 51.3902553,14.0605263 C51.2804149,13.8947368 51.1156543,13.674 51.1156543,13.4529474 C51.1156543,13.2322105 51.2254947,13.0664211 51.2804149,13.0664211 C51.2804149,13.0111579 51.2804149,12.9562105 51.1705745,12.9562105 C51.1156543,12.9562105 51.0610479,13.0664211 51.0610479,13.1216842 C51.0061277,13.1769474 51.0061277,13.1769474 51.0061277,13.1216842 C51.0061277,12.7904211 51.3353351,12.5696842 51.3353351,12.5144211 C51.3353351,12.4591579 51.2254947,12.5144211 51.2254947,12.4038947 C51.2254947,12.3486316 51.3353351,12.2936842 51.4451755,12.2936842 L51.5547021,12.2936842 L51.6096223,12.2936842 C51.6096223,12.1831579 51.4997819,12.1831579 51.3902553,12.1831579 C51.2804149,12.1831579 51.3353351,12.1278947 51.3902553,12.0726316 C51.4451755,11.9624211 51.4997819,11.8518947 51.3902553,11.8518947 C51.1156543,11.8518947 50.841367,12.3486316 50.841367,13.0111579 C50.841367,14.0605263 51.7194628,14.5572632 52.2680372,14.7230526 C52.3778777,14.7783158 53.146133,14.8885263 53.4753404,15.2197895 L53.4753404,15.3303158 C53.146133,14.9990526 52.6521649,14.8885263 52.3778777,14.8332632 C50.841367,14.4470526 50.7864468,13.3427368 50.7864468,13.0111579 C50.7864468,12.0726316 51.1705745,11.8518947 51.1705745,11.2995789 C51.1705745,11.0788421 51.0610479,10.6923158 50.5670798,10.8577895 C50.4572394,10.6923158 50.6769202,10.4712632 50.7864468,10.4163158 C50.7315266,10.3057895 51.1156543,9.80905263 51.774383,9.80905263 C52.1581968,9.80905263 52.4874043,10.0297895 52.8715319,10.0297895 C53.0362926,10.0297895 53.3655,9.97452632 53.4753404,9.864 L53.4753404,9.91926316 C53.3655,10.0297895 53.0362926,10.1403158 52.8715319,10.1403158 C52.4874043,10.1403158 52.1581968,9.91926316 51.774383,9.91926316 C51.4451755,9.91926316 51.2254947,10.0297895 51.0610479,10.1952632 L51.1705745,10.1952632 C51.2254947,10.2505263 51.1705745,10.3057895 51.1705745,10.2505263 C51.1156543,10.2505263 51.0610479,10.1952632 51.0061277,10.1952632 C51.0061277,10.2505263 50.9512074,10.2505263 50.9512074,10.3057895 L51.1705745,10.3057895 C51.2254947,10.3610526 51.1705745,10.4163158 51.1156543,10.3610526 C51.0610479,10.3610526 51.0061277,10.3057895 50.8962872,10.3610526 L50.8962872,10.5265263 C50.841367,10.5265263 50.622,10.5817895 50.6769202,10.7475789 C50.7315266,10.6923158 51.2254947,10.6923158 51.2254947,11.2443158 C51.2254947,11.3548421 51.2804149,11.2995789 51.2804149,11.2995789 C51.3353351,11.0788421 51.1705745,10.8028421 50.9512074,10.6923158 C50.8962872,10.6370526 50.8962872,10.5817895 51.0061277,10.6370526 C51.1156543,10.6923158 51.3353351,10.8577895 51.3353351,11.1893684 L51.3353351,11.4101053 C51.3353351,11.4101053 51.3902553,11.2995789 51.3902553,11.1341053 C51.3902553,10.8028421 51.1156543,10.5265263 50.8962872,10.5265263 L50.8962872,10.4163158 C51.0061277,10.4163158 51.4997819,10.5265263 51.4997819,11.1893684 C51.4997819,11.2443158 51.4451755,11.6308421 51.3353351,11.7413684 C51.4451755,11.7413684 51.6645426,11.7413684 51.4997819,12.0726316 C51.774383,12.1278947 51.7194628,12.4038947 51.6096223,12.4038947 C51.4997819,12.4038947 51.4997819,12.3486316 51.3902553,12.3486316 C51.3353351,12.3486316 51.2804149,12.4038947 51.3353351,12.4038947 C51.3902553,12.4591579 51.4451755,12.4591579 51.4451755,12.5144211 C51.4451755,12.6249474 51.2804149,12.5696842 51.1156543,12.9009474 L51.2254947,12.9009474 C51.2804149,12.9009474 51.3353351,12.9009474 51.3353351,12.9562105 C51.3353351,13.0664211 51.2254947,13.1216842 51.2254947,13.4529474 C51.2254947,13.5634737 51.3353351,13.8394737 51.3902553,13.8947368 C51.4451755,13.8394737 51.4997819,13.8394737 51.5547021,13.8394737 C51.7194628,13.8394737 51.6645426,13.95 51.6645426,14.0052632 C51.6645426,14.0052632 51.8839096,14.3917895 52.4327979,14.502 C52.7070851,14.5572632 53.3105798,14.7230526 53.4753404,14.9437895 C53.6947074,14.7230526 54.2982021,14.5572632 54.5728032,14.502 C55.1213777,14.3917895 55.3410585,14.0052632 55.3410585,14.0052632 C55.3410585,13.95 55.2861383,13.8394737 55.4505851,13.8394737 C55.5055053,13.8394737 55.5604255,13.8394737 55.6153457,13.8947368 C55.6153457,13.8394737 55.7797926,13.5634737 55.7797926,13.4529474 C55.7797926,13.1216842 55.670266,13.0664211 55.670266,12.9562105 C55.670266,12.9009474 55.7251862,12.9009474 55.7797926,12.9009474 L55.889633,12.9009474 C55.7251862,12.5696842 55.5604255,12.6249474 55.5604255,12.5144211 C55.5604255,12.4591579 55.6153457,12.4591579 55.670266,12.4038947 C55.7251862,12.4038947 55.670266,12.3486316 55.6153457,12.3486316 C55.5055053,12.3486316 55.5055053,12.4038947 55.3956649,12.4038947 C55.2861383,12.4038947 55.2312181,12.1278947 55.5055053,12.0726316 C55.3410585,11.7413684 55.5604255,11.7413684 55.670266,11.7413684 C55.5604255,11.6308421 55.5055053,11.2443158 55.5055053,11.1893684 C55.5055053,10.8028421 55.670266,10.5817895 55.8347128,10.4712632 L55.7797926,10.4163158 C55.7251862,10.3610526 55.7797926,10.3057895 55.7797926,10.3610526 C55.8347128,10.3610526 55.8347128,10.4163158 55.889633,10.4712632 C55.9445532,10.4712632 55.9445532,10.4163158 55.9445532,10.4163158 L55.889633,10.3610526 C55.8347128,10.3057895 55.8347128,10.2505263 55.889633,10.3057895 C55.9445532,10.3057895 55.9445532,10.3057895 55.9994734,10.4163158 L56.1093138,10.4163158 L56.1093138,10.5265263 C55.889633,10.5265263 55.6153457,10.8028421 55.6153457,11.1341053 C55.6153457,11.2995789 55.670266,11.4101053 55.670266,11.4101053 L55.670266,11.1893684 C55.670266,10.8577895 55.889633,10.6923158 55.9994734,10.6370526 C56.1093138,10.5817895 56.1093138,10.6370526 56.0543936,10.6923158 C55.8347128,10.8028421 55.670266,11.0788421 55.7251862,11.2995789 C55.7251862,11.2995789 55.7797926,11.3548421 55.7797926,11.2443158 C55.7797926,10.6923158 56.2737606,10.6923158 56.3286809,10.7475789 C56.3836011,10.5817895 56.1639202,10.5265263 56.1093138,10.5265263 L56.1093138,10.4163158 C56.1093138,10.3057895 55.7797926,9.91926316 55.2312181,9.91926316 C54.8470904,9.91926316 54.517883,10.1403158 54.1337553,10.1403158 C53.9689947,10.1403158 53.6397872,10.0297895 53.4753404,9.91926316 L53.4753404,9.864 C53.6397872,9.97452632 53.9689947,10.0297895 54.1337553,10.0297895 C54.517883,10.0297895 54.8470904,9.80905263 55.2312181,9.80905263 C55.8347128,9.80905263 56.2188404,10.3057895 56.2188404,10.4163158"/>
    <path d="M53.8045479 14.9437895C53.9143883 14.8332632 54.3531223 14.6677895 54.6823298 14.5572632 54.8470904 14.5572632 54.7921702 14.6125263 54.6823298 14.6125263 54.2982021 14.7230526 53.8594681 14.9437895 53.8045479 14.9437895 53.8045479 14.9990526 53.6947074 14.9990526 53.8045479 14.9437895M53.3105798 14.9990526C53.146133 14.8885263 52.7620053 14.7230526 52.4327979 14.6677895 52.3229574 14.6125263 52.3229574 14.6677895 52.4327979 14.6677895 52.8169255 14.7783158 53.0912128 14.8885263 53.2556596 14.9990526 53.3105798 15.0543158 53.3655 15.0543158 53.3105798 14.9990526M53.4753404 11.1341053L55.7797926 13.3976842C55.8347128 13.3976842 55.7797926 13.3427368 55.7797926 13.2874737L53.4753404 11.0235789 51.2254947 13.2874737C51.1705745 13.3427368 51.1705745 13.3976842 51.1705745 13.3976842L53.4753404 11.1341053"/>
    <polyline points="53.475 12.183 55.341 14.005 55.396 13.895 53.475 12.017 51.61 13.895 51.665 14.005 53.475 12.183"/>
    <path d="M53.4753404,11.9624211 L55.5055053,13.8947368 C55.670266,14.0052632 55.7797926,13.6187368 55.7797926,13.5082105 L53.4753404,11.2443158 L51.2254947,13.5082105 L51.4451755,13.674 L51.4451755,13.5634737 L51.3902553,13.4529474 L51.4997819,13.3976842 L51.5547021,13.3427368 L51.6096223,13.3976842 L51.774383,13.3427368 L51.774383,13.2322105 L51.7194628,13.1216842 L51.8289894,13.0664211 L51.8839096,13.0111579 L51.9388298,13.0664211 L52.1035904,13.0111579 L52.1035904,12.9009474 L52.0486702,12.7904211 L52.1581968,12.7904211 L52.213117,12.6798947 L52.2680372,12.7904211 L52.4327979,12.6798947 L52.4327979,12.5696842 L52.3778777,12.5144211 L52.4874043,12.4591579 L52.5423245,12.3486316 L52.5972447,12.4591579 L52.7620053,12.4038947 L52.7620053,12.2936842 L52.6521649,12.1831579 L52.7620053,12.1278947 L52.8715319,12.0726316 L52.9264521,12.1278947 L53.0912128,12.0726316 L53.0912128,11.9624211 L52.9813723,11.8518947 L53.0912128,11.7966316 L53.2010532,11.7413684 L53.2556596,11.7966316 L53.3655,11.7413684 L53.3655,11.6308421 L53.3105798,11.5206316 L53.4204202,11.5206316 L53.4753404,11.4101053 L53.5851809,11.5206316 L53.6947074,11.5206316 L53.5851809,11.6308421 L53.5851809,11.7413684 L53.6397872,11.8518947 L53.7496277,11.7966316 L53.8045479,11.7413684 L53.9143883,11.7966316 L54.0239149,11.8518947 L53.9143883,11.9624211 L53.9143883,12.0726316 L54.0788351,12.1278947 L54.1337553,12.0726316 L54.1886755,12.1278947 L54.2982021,12.1831579 L54.2435957,12.2936842 L54.2435957,12.4038947 L54.4080426,12.4591579 L54.4629628,12.3486316 L54.517883,12.4591579 L54.6274096,12.5144211 L54.5728032,12.5696842 L54.5728032,12.6798947 L54.73725,12.7904211 L54.7921702,12.6798947 L54.8470904,12.7904211 L54.9569309,12.7904211 L54.9020106,12.9009474 L54.9020106,13.0111579 L55.0664574,13.0664211 L55.1213777,13.0111579 L55.1762979,13.0664211 L55.2861383,13.1216842 L55.2312181,13.2322105 L55.2312181,13.3427368 L55.3956649,13.3976842 L55.4505851,13.3427368 L55.5055053,13.3976842 L55.6153457,13.4529474 L55.5604255,13.5634737 L55.5604255,13.674 L55.4505851,13.6187368 L55.3410585,13.674 L55.3410585,13.5634737 L55.2861383,13.4529474 L55.3956649,13.3976842 L55.2312181,13.3427368 L55.1213777,13.2874737 L55.0115372,13.3427368 L55.0115372,13.2322105 L54.9569309,13.1216842 L55.0664574,13.0664211 L54.9020106,13.0111579 L54.6823298,13.0111579 L54.6823298,12.9009474 L54.6274096,12.7904211 L54.73725,12.7904211 L54.5728032,12.6798947 L54.3531223,12.6798947 L54.3531223,12.5696842 L54.2982021,12.5144211 L54.4080426,12.4591579 L54.2435957,12.4038947 L54.1337553,12.3486316 L54.0239149,12.4038947 L54.0239149,12.2936842 L53.9689947,12.1831579 L54.0788351,12.1278947 L53.9143883,12.0726316 L53.8045479,12.0173684 L53.6947074,12.0726316 L53.6947074,11.9624211 L53.6397872,11.8518947 L53.5851809,11.7413684 L53.4753404,11.6861053 L53.3655,11.7413684 L53.2556596,11.7966316 L53.3655,11.8518947 L53.3105798,11.9624211 L53.3105798,12.0726316 L53.2010532,12.0173684 L53.0912128,12.0726316 L52.9264521,12.1278947 L53.0362926,12.1831579 L52.9813723,12.2936842 L52.9813723,12.4038947 L52.8715319,12.3486316 L52.7620053,12.4038947 L52.5972447,12.4591579 L52.7070851,12.5144211 L52.6521649,12.5696842 L52.6521649,12.6798947 L52.4327979,12.6798947 L52.2680372,12.7904211 L52.3778777,12.7904211 L52.3229574,12.9009474 L52.3229574,13.0111579 L52.1035904,13.0111579 L51.9388298,13.0664211 L52.0486702,13.1216842 L51.99375,13.2322105 L51.99375,13.3427368 L51.8839096,13.2874737 L51.774383,13.3427368 L51.6096223,13.3976842 L51.7194628,13.4529474 L51.6645426,13.5634737 L51.6645426,13.674 L51.5547021,13.6187368 L51.4451755,13.674 L51.2254947,13.5082105 C51.2254947,13.6187368 51.3353351,14.0052632 51.4997819,13.8947368 L53.4753404,11.9624211"/>
    <polyline points="5.901 5.668 5.901 9.477 12.321 9.477 12.321 14.447 5.901 14.447 5.901 23.337 .029 23.337 .029 .699 12.979 .699 12.979 5.668 5.901 5.668"/>
    <path d="M14.0771489,0.698526316 L14.0771489,23.3365263 L19.8933564,23.3365263 L19.8933564,5.66778947 L21.2651064,5.66778947 C25.0514628,5.66778947 27.6854362,7.93168421 27.6854362,12.0173684 C27.6854362,16.4346316 24.7222553,18.312 21.2101862,18.312 L19.8933564,18.312 L19.8933564,23.3365263 L22.3625691,23.3365263 C28.5632181,23.3365263 33.7762447,18.3672632 33.7762447,12.0173684 C33.7762447,5.61252632 28.6181383,0.698526316 22.3625691,0.698526316 L14.0771489,0.698526316"/>
    <polygon points="34.599 23.337 40.471 23.337 40.471 .699 34.599 .699"/>
    <path d="M58.4686862,8.26294737 C57.261383,6.66157895 55.3410585,5.77831579 53.3105798,5.77831579 C49.7439043,5.77831579 47.3296117,8.53894737 47.3296117,12.0726316 C47.3296117,15.6615789 49.7988245,18.2014737 53.4204202,18.2014737 C55.3410585,18.2014737 57.261383,17.2629474 58.4686862,15.8273684 L58.4686862,22.8947368 C56.5480479,23.4470526 55.1213777,23.9437895 53.3105798,23.9437895 C50.1829521,23.9437895 47.1648511,22.7292632 44.8603989,20.5758947 C42.3911862,18.312 41.2388032,15.3855789 41.2388032,12.0173684 C41.2388032,8.92547368 42.4461064,5.94378947 44.5861117,3.73515789 C46.7807234,1.47157895 49.9632713,0.0909473684 53.146133,0.0909473684 C55.0115372,0.0909473684 56.7128085,0.532736842 58.4686862,1.25052632 L58.4686862,8.26294737"/>
  </g>
</svg>
