<svg id="Layer_1" data-name="Layer 1" xmlns="http://www.w3.org/2000/svg" viewBox="0 0 512 584"><defs><style>.cls-1{opacity:0.17;}.cls-2{fill:#909090;}</style></defs><title>fortis-shield-bg-overlay</title><g class="cls-1"><path class="cls-2" d="M510.52,181.42a395.66,395.66,0,0,0-86.34-55.08,396.38,396.38,0,0,0-336.35,0,320.76,320.76,0,0,0-10,52.87c-1.09,10.86-1.68,21.87-1.68,33,0,2.55,0,5.09.11,7.68a323.62,323.62,0,0,0,5.5,52.2c15.46,81.7,62,152.54,126.7,199.87h0a277.28,277.28,0,0,1-40.1,11.2A354.44,354.44,0,0,1,44,244.86c-1-10.75-1.5-21.64-1.5-32.61,0-3.26.07-6.44,0.15-9.62a354.21,354.21,0,0,1,5.77-55,402.33,402.33,0,0,0-47,33.81C0.66,191.58.29,201.87,0.29,212.24c0,9.06.3,18,.94,27a402.25,402.25,0,0,0,5.47,44.37,399.22,399.22,0,0,0,153.25,246.9,318.92,318.92,0,0,0,96-29.69A322.82,322.82,0,0,0,430.21,272.12a276.3,276.3,0,0,1,28.57,26.81,355.86,355.86,0,0,1-115.1,184.26A359.86,359.86,0,0,1,296,517.26a355.93,355.93,0,0,1-96,39.65A398.77,398.77,0,0,0,256,583.5a397.23,397.23,0,0,0,56-26.58,399.88,399.88,0,0,0,87.77-68.45,397.87,397.87,0,0,0,90.76-148,395,395,0,0,0,14.79-56.88,326.28,326.28,0,0,0-69.53-63.69A326,326,0,0,0,390,194.13a321.13,321.13,0,0,0-267.94,0v0a276.28,276.28,0,0,1,5.32-38.79,353.8,353.8,0,0,1,306.81,23.89,342.18,342.18,0,0,1,35.23,23.4,355.51,355.51,0,0,1,41.41,36.58c0.6-8.91.94-17.9,0.94-27Q511.71,196.68,510.52,181.42ZM256,210.12a274.55,274.55,0,0,1,132.74,34h0c-10.07,87.09-60.81,162-132.73,205.18h0c-71.89-43.17-122.66-118.05-132.73-205.18h0A274.66,274.66,0,0,1,256,210.12Z"/><path class="cls-2" d="M100.95,72.54A429.3,429.3,0,0,1,163.7,54.61a438.49,438.49,0,0,1,177,.3,429.47,429.47,0,0,1,62.72,18.16,434.66,434.66,0,0,1,47.52,21,442.51,442.51,0,0,1,52.79,32.2A391.8,391.8,0,0,0,483.17,60,483.85,483.85,0,0,0,422.25,31.8,478.22,478.22,0,0,0,293.37,2.33C279.59,1.14,265.59.5,251.47,0.5q-20.39,0-40.4,1.68a478.8,478.8,0,0,0-73.76,12q-23.08,5.67-45.23,13.44A473.54,473.54,0,0,0,31.3,53.89,392.35,392.35,0,0,0,9.85,119,433.86,433.86,0,0,1,62.91,88.64Q81.5,79.71,100.95,72.54Z"/></g></svg>