<svg id="Layer_1" data-name="Layer 1" xmlns="http://www.w3.org/2000/svg" width="1in" height="1in" viewBox="0 0 72 72">
  <title>icon</title>
  <g>
    <path d="M13.8,21v3.9l-7.1,2A3.9,3.9,0,0,0,4,30.4v1.4H19.3" fill="none" stroke="#9d2441" stroke-linecap="round" stroke-linejoin="round" stroke-width="1.25"/>
    <path d="M22.1,20.9v4l7.1,2a3.9,3.9,0,0,1,2.7,3.5v1.4H16.5" fill="none" stroke="#9d2441" stroke-linecap="round" stroke-linejoin="round" stroke-width="1.25"/>
    <ellipse cx="17.9" cy="13.1" rx="8.3" ry="9.1" fill="none" stroke="#9d2441" stroke-linecap="round" stroke-linejoin="round" stroke-width="1.25"/>
    <path d="M26.2,11.5c-1.4,1.4-5.4,1.3-6.9-1.5-2.8,2.8-7.3,2.8-9.5,1.2" fill="none" stroke="#9d2441" stroke-linecap="round" stroke-linejoin="round" stroke-width="1.25"/>
    <path d="M49.9,21v3.9l-7.1,2a3.9,3.9,0,0,0-2.7,3.5v1.4H55.5" fill="none" stroke="#9d2441" stroke-linecap="round" stroke-linejoin="round" stroke-width="1.25"/>
    <path d="M58.2,21v3.9l7.1,2A3.9,3.9,0,0,1,68,30.4v1.4H52.7" fill="none" stroke="#9d2441" stroke-linecap="round" stroke-linejoin="round" stroke-width="1.25"/>
    <ellipse cx="54.1" cy="13.1" rx="8.3" ry="9.1" fill="none" stroke="#9d2441" stroke-linecap="round" stroke-linejoin="round" stroke-width="1.25"/>
    <path d="M62.3,11.5c-1.4,1.4-5.3,1.3-6.8-1.5-2.8,2.8-7.3,2.8-9.5,1.2" fill="none" stroke="#9d2441" stroke-linecap="round" stroke-linejoin="round" stroke-width="1.25"/>
    <path d="M31.8,57.1V61l-7.1,2a3.9,3.9,0,0,0-2.7,3.5V68H37.4" fill="none" stroke="#9d2441" stroke-linecap="round" stroke-linejoin="round" stroke-width="1.25"/>
    <path d="M40.2,57.1V61l7.1,2a3.9,3.9,0,0,1,2.7,3.5V68H34.6" fill="none" stroke="#9d2441" stroke-linecap="round" stroke-linejoin="round" stroke-width="1.25"/>
    <ellipse cx="36" cy="49.3" rx="8.3" ry="9.1" fill="none" stroke="#9d2441" stroke-linecap="round" stroke-linejoin="round" stroke-width="1.25"/>
    <path d="M44.2,47.6c-1.4,1.4-5.3,1.4-6.8-1.4-2.8,2.8-7.3,2.8-9.5,1.2" fill="none" stroke="#9d2441" stroke-linecap="round" stroke-linejoin="round" stroke-width="1.25"/>
    <line x1="13.8" y1="37.4" x2="20.7" y2="44.3" fill="none" stroke="#9d2441" stroke-linecap="round" stroke-linejoin="round" stroke-width="1.25"/>
    <line x1="58.2" y1="37.4" x2="51.3" y2="44.3" fill="none" stroke="#9d2441" stroke-linecap="round" stroke-linejoin="round" stroke-width="1.25"/>
  </g>
</svg>
