<?xml version="1.0" encoding="utf-8"?>
<!-- Generator: Adobe Illustrator 19.2.1, SVG Export Plug-In . SVG Version: 6.00 Build 0)  -->
<svg version="1.1" id="Layer_1" xmlns="http://www.w3.org/2000/svg" xmlns:xlink="http://www.w3.org/1999/xlink" x="0px" y="0px"
	 width="72px" height="72px" viewBox="0 0 72 72" enable-background="new 0 0 72 72" xml:space="preserve">
<g>
	<path fill="none" stroke="#9D2441" stroke-width="1.25" stroke-linejoin="round" stroke-miterlimit="10" d="M55.8,31.3l4.7-3.9
		l-4.7-3.9l2.9-5.4l-5.9-1.8l0.6-6.1l-6.1,0.6l-1.8-5.9l-5.4,2.9L36,2.9l-3.9,4.7l-5.4-2.9l-1.8,5.9L18.7,10l0.6,6.1L13.4,18
		l2.9,5.4l-4.7,3.9l4.7,3.9l-2.9,5.4l5.9,1.8l-0.6,6.1l6.1-0.6l1.8,5.9l5.4-2.9l3.9,4.7l3.9-4.7l5.4,2.9l1.8-5.9l6.1,0.6l-0.6-6.1
		l5.9-1.8L55.8,31.3z"/>
	<polyline fill="none" stroke="#9D2441" stroke-width="1.25" stroke-linejoin="round" stroke-miterlimit="10" points="58.9,43.6 
		68.7,60.4 57.6,58.6 53.7,69.1 46.1,56.2 	"/>
	<polyline fill="none" stroke="#9D2441" stroke-width="1.25" stroke-linejoin="round" stroke-miterlimit="10" points="13.1,43.6 
		3.3,60.4 14.4,58.6 18.3,69.1 25.9,56.2 	"/>
	
		<polyline fill="none" stroke="#9D2441" stroke-width="1.25" stroke-linecap="round" stroke-linejoin="round" stroke-miterlimit="10" points="
		45.5,19.7 34.1,35 26.5,27.3 	"/>
</g>
</svg>
