<?xml version="1.0" encoding="utf-8"?>
<!-- Generator: Adobe Illustrator 21.0.2, SVG Export Plug-In . SVG Version: 6.00 Build 0)  -->
<svg version="1.1" id="Layer_1" xmlns="http://www.w3.org/2000/svg" xmlns:xlink="http://www.w3.org/1999/xlink" x="0px" y="0px"
	 width="72px" height="72px" viewBox="0 0 72 72" enable-background="new 0 0 72 72" xml:space="preserve">
<g>
	<path fill="none" stroke="#9D2441" stroke-linecap="round" stroke-linejoin="round" stroke-miterlimit="10" d="M35.7,41.1H10.9
		c-3,0-5.5-2.5-5.5-5.5v-22c0-3,2.5-5.5,5.5-5.5h35.7c3,0,5.5,2.5,5.5,5.5v11"/>
	
		<line fill="none" stroke="#9D2441" stroke-linecap="round" stroke-linejoin="round" stroke-miterlimit="10" x1="5.4" y1="16.3" x2="52.2" y2="16.3"/>
	
		<line fill="none" stroke="#9D2441" stroke-linecap="round" stroke-linejoin="round" stroke-miterlimit="10" x1="27.4" y1="21.8" x2="13.7" y2="21.8"/>
	
		<line fill="none" stroke="#9D2441" stroke-linecap="round" stroke-linejoin="round" stroke-miterlimit="10" x1="46.7" y1="21.8" x2="41.2" y2="21.8"/>
	
		<line fill="none" stroke="#9D2441" stroke-linecap="round" stroke-linejoin="round" stroke-miterlimit="10" x1="21.9" y1="27.3" x2="13.7" y2="27.3"/>
	
		<rect x="39.1" y="41.9" fill="none" stroke="#9D2441" stroke-linecap="round" stroke-linejoin="round" stroke-miterlimit="10" width="27.5" height="22"/>
	
		<line fill="none" stroke="#9D2441" stroke-linecap="round" stroke-linejoin="round" stroke-miterlimit="10" x1="52.8" y1="58.4" x2="52.8" y2="52.9"/>
	<path fill="none" stroke="#9D2441" stroke-linecap="round" stroke-linejoin="round" stroke-miterlimit="10" d="M44.6,41.9v-5.5
		c0-4.6,3.7-8.2,8.2-8.2c4.6,0,8.2,3.7,8.2,8.2v5.5"/>
	<path fill="none" stroke="#9D2441" stroke-linejoin="round" stroke-miterlimit="10" d="M54.2,51.6c0,0.8-0.6,1.4-1.4,1.4l0,0
		c-0.8,0-1.4-0.6-1.4-1.4l0,0c0-0.8,0.6-1.4,1.4-1.4l0,0C53.6,50.2,54.2,50.8,54.2,51.6L54.2,51.6z"/>
</g>
</svg>
