<svg id="Layer_1" data-name="Layer 1" xmlns="http://www.w3.org/2000/svg" width="1in" height="1in" viewBox="0 0 72 72">
  <title>icon</title>
  <g>
    <g>
      <circle cx="54.4" cy="54.4" r="14.2" fill="none" stroke="#9d2441" stroke-linecap="round" stroke-linejoin="round" stroke-width="1.25"/>
      <g>
        <path d="M51.2,57.5a3.3,3.3,0,1,0,3.3-3.3A3.3,3.3,0,1,1,57.7,51" fill="none" stroke="#9d2441" stroke-linecap="round" stroke-linejoin="round" stroke-width="1.25"/>
        <line x1="54.4" y1="60.8" x2="54.4" y2="63" fill="none" stroke="#9d2441" stroke-linecap="round" stroke-linejoin="round" stroke-width="1.25"/>
        <line x1="54.4" y1="45.5" x2="54.4" y2="47.7" fill="none" stroke="#9d2441" stroke-linecap="round" stroke-linejoin="round" stroke-width="1.25"/>
      </g>
    </g>
    <g>
      <line x1="37.4" y1="43.1" x2="37.4" y2="35.1" fill="none" stroke="#9d2441" stroke-linecap="round" stroke-linejoin="round" stroke-width="1.25"/>
      <path d="M23.2,35.2v7.9L9,48.1a8.5,8.5,0,0,0-5.6,8v6.8H34.5" fill="none" stroke="#9d2441" stroke-linecap="round" stroke-linejoin="round" stroke-width="1.25"/>
      <g>
        <ellipse cx="30.3" cy="20.4" rx="14.2" ry="17" fill="none" stroke="#9d2441" stroke-linecap="round" stroke-linejoin="round" stroke-width="1.25"/>
        <path d="M44.4,18.9H43c-4.8.9-7.9-.8-10.6-5.5C30.8,16.6,25.9,19,21.8,19a11.4,11.4,0,0,1-5.5-1.4" fill="none" stroke="#9d2441" stroke-linecap="round" stroke-linejoin="round" stroke-width="1.25"/>
      </g>
    </g>
  </g>
</svg>
