<svg id="Layer_1" data-name="Layer 1" xmlns="http://www.w3.org/2000/svg" width="1in" height="1in" viewBox="0 0 72 72">
  <title>icon</title>
  <g>
    <polygon points="54.7 40.3 59 50.4 69.1 50.4 60.5 57.7 64.8 69.2 54.7 62 44.6 69.2 48.9 57.7 40.2 50.4 50.4 50.4 54.7 40.3" fill="none" stroke="#9d2441" stroke-linecap="round" stroke-linejoin="round" stroke-width="1.25"/>
    <path d="M41.6,39.9l-7.1-2.5V30.2s4.3-1.8,4.3-8.7c2.9,0,2.9-6,0-6,0-.7,2.7-4.6,1.7-8.5C39.2,1.6,23,1.6,21.6,7.1c-6.8-1.4-3,7.7-3,8.7s-1.4,5.8,0,5.8c0,6.9,4.3,8.7,4.3,8.7v7.2c-7.2,3.1-17.3,5.1-18.5,8.7S2.7,57.8,2.7,57.8H33" fill="none" stroke="#9d2441" stroke-linecap="round" stroke-linejoin="round" stroke-width="1.25"/>
  </g>
</svg>
