<?xml version="1.0" encoding="utf-8"?>
<!-- Generator: Adobe Illustrator 21.0.2, SVG Export Plug-In . SVG Version: 6.00 Build 0)  -->
<svg version="1.1" xmlns="http://www.w3.org/2000/svg" xmlns:xlink="http://www.w3.org/1999/xlink" x="0px" y="0px" width="72px"
	 height="72px" viewBox="0 0 72 72" enable-background="new 0 0 72 72" xml:space="preserve">
<g id="Layer_1">
	<g>
		
			<rect x="8.5" y="23" fill="none" stroke="#9D2441" stroke-linecap="round" stroke-linejoin="round" stroke-miterlimit="10" width="54.9" height="46.3"/>
		
			<line fill="none" stroke="#9D2441" stroke-linecap="round" stroke-linejoin="round" stroke-miterlimit="10" x1="2.8" y1="40.3" x2="69.2" y2="40.3"/>
		
			<line fill="none" stroke="#9D2441" stroke-linecap="round" stroke-linejoin="round" stroke-miterlimit="10" x1="2.8" y1="23" x2="69.2" y2="23"/>
		
			<line fill="none" stroke="#9D2441" stroke-linecap="round" stroke-linejoin="round" stroke-miterlimit="10" x1="28.7" y1="8.5" x2="43.2" y2="8.5"/>
		<polyline fill="none" stroke="#9D2441" stroke-linecap="round" stroke-linejoin="round" stroke-miterlimit="10" points="51.8,8.5 
			59.1,8.5 66.4,23 5.6,23 12.8,8.5 20,8.5 		"/>
		
			<rect x="51.8" y="28.8" fill="none" stroke="#9D2441" stroke-linecap="round" stroke-linejoin="round" stroke-miterlimit="10" width="5.8" height="5.8"/>
		
			<rect x="40.3" y="28.8" fill="none" stroke="#9D2441" stroke-linecap="round" stroke-linejoin="round" stroke-miterlimit="10" width="5.8" height="5.8"/>
		
			<rect x="25.8" y="28.8" fill="none" stroke="#9D2441" stroke-linecap="round" stroke-linejoin="round" stroke-miterlimit="10" width="5.8" height="5.8"/>
		
			<rect x="14.3" y="28.8" fill="none" stroke="#9D2441" stroke-linecap="round" stroke-linejoin="round" stroke-miterlimit="10" width="5.8" height="5.8"/>
		
			<rect x="28.7" y="54.8" fill="none" stroke="#9D2441" stroke-linecap="round" stroke-linejoin="round" stroke-miterlimit="10" width="14.5" height="14.5"/>
		
			<rect x="49" y="46.1" fill="none" stroke="#9D2441" stroke-linecap="round" stroke-linejoin="round" stroke-miterlimit="10" width="8.7" height="8.7"/>
		
			<rect x="14.3" y="46.1" fill="none" stroke="#9D2441" stroke-linecap="round" stroke-linejoin="round" stroke-miterlimit="10" width="8.7" height="8.7"/>
		
			<rect x="43.2" y="2.7" fill="none" stroke="#9D2441" stroke-linecap="round" stroke-linejoin="round" stroke-miterlimit="10" width="8.7" height="14.5"/>
		
			<rect x="20" y="2.7" fill="none" stroke="#9D2441" stroke-linecap="round" stroke-linejoin="round" stroke-miterlimit="10" width="8.7" height="14.5"/>
	</g>
</g>
<g id="Layer_2">
</g>
</svg>
