<?xml version="1.0" encoding="utf-8"?>
<!-- Generator: Adobe Illustrator 21.0.2, SVG Export Plug-In . SVG Version: 6.00 Build 0)  -->
<svg version="1.1" xmlns="http://www.w3.org/2000/svg" xmlns:xlink="http://www.w3.org/1999/xlink" x="0px" y="0px" width="72px"
	 height="72px" viewBox="0 0 72 72" enable-background="new 0 0 72 72" xml:space="preserve">
<g id="Layer_1">
	<g>
		<polyline fill="none" stroke="#9D2441" stroke-linecap="round" stroke-linejoin="round" stroke-miterlimit="10" points="
			70.9,23.9 52.7,36 37.5,36 		"/>
		<polyline fill="none" stroke="#9D2441" stroke-linecap="round" stroke-linejoin="round" stroke-miterlimit="10" points="
			70.9,29.9 52.7,42.1 37.5,42.1 		"/>
		<polyline fill="none" stroke="#9D2441" stroke-linecap="round" stroke-linejoin="round" stroke-miterlimit="10" points="70.9,36 
			52.7,48.1 37.5,48.1 		"/>
		<polyline fill="none" stroke="#9D2441" stroke-linecap="round" stroke-linejoin="round" stroke-miterlimit="10" points="
			70.9,42.1 52.7,54.2 37.5,54.2 		"/>
		<polygon fill="none" stroke="#9D2441" stroke-linecap="round" stroke-linejoin="round" stroke-miterlimit="10" points="37.5,57.2 
			16.3,57.2 16.3,28.4 34.5,14.8 55.7,14.8 37.5,28.4 		"/>
		
			<line fill="none" stroke="#9D2441" stroke-linecap="round" stroke-linejoin="round" stroke-miterlimit="10" x1="16.3" y1="36" x2="1.1" y2="36"/>
		
			<line fill="none" stroke="#9D2441" stroke-linecap="round" stroke-linejoin="round" stroke-miterlimit="10" x1="16.3" y1="42.1" x2="1.1" y2="42.1"/>
		
			<line fill="none" stroke="#9D2441" stroke-linecap="round" stroke-linejoin="round" stroke-miterlimit="10" x1="16.3" y1="48.1" x2="1.1" y2="48.1"/>
		
			<line fill="none" stroke="#9D2441" stroke-linecap="round" stroke-linejoin="round" stroke-miterlimit="10" x1="16.3" y1="54.2" x2="1.1" y2="54.2"/>
		<polyline fill="none" stroke="#9D2441" stroke-linecap="round" stroke-linejoin="round" stroke-miterlimit="10" points="
			51.2,17.8 70.9,17.8 52.7,29.9 37.5,29.9 		"/>
		<polyline fill="none" stroke="#9D2441" stroke-linecap="round" stroke-linejoin="round" stroke-miterlimit="10" points="
			16.3,29.9 1.1,29.9 19.3,17.8 29.9,17.8 		"/>
		
			<line fill="none" stroke="#9D2441" stroke-linecap="round" stroke-linejoin="round" stroke-miterlimit="10" x1="26.9" y1="49.6" x2="26.9" y2="52.7"/>
		
			<line fill="none" stroke="#9D2441" stroke-linecap="round" stroke-linejoin="round" stroke-miterlimit="10" x1="26.9" y1="28.4" x2="26.9" y2="31.5"/>
		<path fill="none" stroke="#9D2441" stroke-linecap="round" stroke-linejoin="round" stroke-miterlimit="10" d="M22.4,45.1
			c0,2.5,2,4.5,4.5,4.5s4.5-2,4.5-4.5c0-2.5-2-4.5-4.5-4.5s-4.5-2-4.5-4.5c0-2.5,2-4.5,4.5-4.5s4.5,2,4.5,4.5"/>
	</g>
</g>
<g id="Layer_2">
</g>
</svg>
