<svg id="Layer_1" data-name="Layer 1" xmlns="http://www.w3.org/2000/svg" width="1in" height="1in" viewBox="0 0 72 72">
  <title>!Fortis-Icons</title>
  <g>
    <circle cx="23.3" cy="14.9" r="11.2" fill="none" stroke="#9d2441" stroke-linecap="round" stroke-linejoin="round"/>
    <path d="M43,45.8V34.6a2.8,2.8,0,0,0-2.8-2.8H6.5a2.8,2.8,0,0,0-2.8,2.8V68.3" fill="none" stroke="#9d2441" stroke-linecap="round" stroke-linejoin="round"/>
    <path d="M68.3,68.3V48.7a2.8,2.8,0,0,0-2.8-2.8H31.8A2.8,2.8,0,0,0,29,48.7V68.3" fill="none" stroke="#9d2441" stroke-linecap="round" stroke-linejoin="round"/>
    <line x1="12.1" y1="40.2" x2="34.6" y2="40.2" fill="none" stroke="#9d2441" stroke-linecap="round" stroke-linejoin="round"/>
    <line x1="12.1" y1="48.7" x2="29" y2="48.7" fill="none" stroke="#9d2441" stroke-linecap="round" stroke-linejoin="round"/>
    <line x1="12.1" y1="57.1" x2="29" y2="57.1" fill="none" stroke="#9d2441" stroke-linecap="round" stroke-linejoin="round"/>
    <line x1="23.3" y1="26.2" x2="23.3" y2="31.8" fill="none" stroke="#9d2441" stroke-linecap="round" stroke-linejoin="round"/>
    <line x1="3.7" y1="68.3" x2="68.3" y2="68.3" fill="none" stroke="#9d2441" stroke-linecap="round" stroke-linejoin="round"/>
    <rect x="45.8" y="62.7" width="5.6" height="5.62" fill="none" stroke="#9d2441" stroke-linecap="round" stroke-linejoin="round"/>
    <line x1="34.6" y1="57.1" x2="37.4" y2="57.1" fill="none" stroke="#9d2441" stroke-linecap="round" stroke-linejoin="round"/>
    <line x1="37.4" y1="51.5" x2="34.6" y2="51.5" fill="none" stroke="#9d2441" stroke-linecap="round" stroke-linejoin="round"/>
    <line x1="43" y1="57.1" x2="45.8" y2="57.1" fill="none" stroke="#9d2441" stroke-linecap="round" stroke-linejoin="round"/>
    <line x1="45.8" y1="51.5" x2="43" y2="51.5" fill="none" stroke="#9d2441" stroke-linecap="round" stroke-linejoin="round"/>
    <line x1="51.5" y1="57.1" x2="54.3" y2="57.1" fill="none" stroke="#9d2441" stroke-linecap="round" stroke-linejoin="round"/>
    <line x1="54.3" y1="51.5" x2="51.5" y2="51.5" fill="none" stroke="#9d2441" stroke-linecap="round" stroke-linejoin="round"/>
    <line x1="59.9" y1="57.1" x2="62.7" y2="57.1" fill="none" stroke="#9d2441" stroke-linecap="round" stroke-linejoin="round"/>
    <line x1="62.7" y1="51.5" x2="59.9" y2="51.5" fill="none" stroke="#9d2441" stroke-linecap="round" stroke-linejoin="round"/>
    <polygon points="28.7 12.8 25.4 12.8 25.4 9.6 21.3 9.6 21.3 12.8 18 12.8 18 17 21.3 17 21.3 20.2 25.4 20.2 25.4 17 28.7 17 28.7 12.8" fill="none" stroke="#9d2441" stroke-linecap="round" stroke-linejoin="round"/>
  </g>
</svg>
