<svg id="Layer_1" data-name="Layer 1" xmlns="http://www.w3.org/2000/svg" width="1in" height="1in" viewBox="0 0 72 72">
  <title>!Fortis-Icons</title>
  <g>
    <polyline points="56.3 8.4 62.2 8.4 62.2 69.4 9.8 69.4 9.8 8.4 15.7 8.4" fill="none" stroke="#9d2441" stroke-linecap="round" stroke-linejoin="round"/>
    <path d="M41.8,8.4a5.8,5.8,0,0,0-11.6,0H21.5v8.7H50.5V8.4Z" fill="none" stroke="#9d2441" stroke-linecap="round" stroke-linejoin="round"/>
    <polyline points="21.5 14.2 15.7 14.2 15.7 63.6 56.3 63.6 56.3 14.2 50.5 14.2" fill="none" stroke="#9d2441" stroke-linecap="round" stroke-linejoin="round"/>
    <line x1="24.4" y1="49.1" x2="47.6" y2="49.1" fill="none" stroke="#9d2441" stroke-linecap="round" stroke-linejoin="round"/>
    <line x1="24.4" y1="54.9" x2="47.6" y2="54.9" fill="none" stroke="#9d2441" stroke-linecap="round" stroke-linejoin="round"/>
    <polygon points="44.7 28.7 38.9 28.7 38.9 22.9 33.1 22.9 33.1 28.7 27.3 28.7 27.3 34.5 33.1 34.5 33.1 40.4 38.9 40.4 38.9 34.5 44.7 34.5 44.7 28.7" fill="none" stroke="#9d2441" stroke-linecap="round" stroke-linejoin="round"/>
  </g>
</svg>
