<?xml version="1.0" encoding="utf-8"?>
<!-- Generator: Adobe Illustrator 21.0.2, SVG Export Plug-In . SVG Version: 6.00 Build 0)  -->
<svg version="1.1" xmlns="http://www.w3.org/2000/svg" xmlns:xlink="http://www.w3.org/1999/xlink" x="0px" y="0px" width="72px"
	 height="72px" viewBox="0 0 72 72" enable-background="new 0 0 72 72" xml:space="preserve">
<g id="Layer_1">
	<g>
		<path fill="none" stroke="#9D2441" stroke-linecap="round" stroke-linejoin="round" stroke-miterlimit="10" d="M31.9,66.3H4.9
			v-2.7c0-1.5,1.2-2.7,2.7-2.7h21.7c1.5,0,2.7,1.2,2.7,2.7V66.3z"/>
		<path fill="none" stroke="#9D2441" stroke-linecap="round" stroke-linejoin="round" stroke-miterlimit="10" d="M29.2,60.9H7.6
			v-2.7c0-1.5,1.2-2.7,2.7-2.7h16.2c1.5,0,2.7,1.2,2.7,2.7V60.9z"/>
		
			<rect x="24.1" y="17.4" transform="matrix(0.7071 -0.7071 0.7071 0.7071 -6.8752 31.5497)" fill="none" stroke="#9D2441" stroke-linecap="round" stroke-linejoin="round" stroke-miterlimit="10" width="21.1" height="13.4"/>
		<path fill="none" stroke="#9D2441" stroke-linecap="round" stroke-linejoin="round" stroke-miterlimit="10" d="M22.5,26.8
			l-1.4-1.4c-2.6-2.5-6.6,1.5-4.1,4.1l12.2,12.2c2.6,2.6,6.6-1.5,4.1-4.1l-1.4-1.4"/>
		<path fill="none" stroke="#9D2441" stroke-linecap="round" stroke-linejoin="round" stroke-miterlimit="10" d="M46.8,21.4l1.4,1.4
			c2.6,2.6,6.6-1.5,4.1-4.1L40.1,6.5C37.5,3.9,33.4,8,36,10.5l1.4,1.4"/>
		
			<line fill="none" stroke="#9D2441" stroke-linecap="round" stroke-linejoin="round" stroke-miterlimit="10" x1="39.4" y1="28.8" x2="67.1" y2="56.6"/>
	</g>
</g>
<g id="Layer_2">
</g>
</svg>
