<?xml version="1.0" encoding="utf-8"?>
<!-- Generator: Adobe Illustrator 21.0.2, SVG Export Plug-In . SVG Version: 6.00 Build 0)  -->
<svg version="1.1" xmlns="http://www.w3.org/2000/svg" xmlns:xlink="http://www.w3.org/1999/xlink" x="0px" y="0px" width="72px"
	 height="72px" viewBox="0 0 72 72" enable-background="new 0 0 72 72" xml:space="preserve">
<g id="Layer_1">
	<g>
		
			<circle fill="none" stroke="#9D2441" stroke-linecap="round" stroke-linejoin="round" stroke-miterlimit="10" cx="21" cy="16.4" r="9.2"/>
		<path fill="none" stroke="#9D2441" stroke-linecap="round" stroke-linejoin="round" stroke-miterlimit="10" d="M35.5,30.8h-29
			c0,10.7,4.3,17,9.2,19.7v17.1h10.5V50.6C31.2,47.8,35.5,41.5,35.5,30.8z"/>
		<g>
			<polygon fill="none" stroke="#9D2441" stroke-linecap="round" stroke-linejoin="round" stroke-miterlimit="10" points="
				22.4,30.8 19.7,30.8 18.4,46.6 21,49.3 23.7,46.6 22.4,30.8 			"/>
		</g>
		<path fill="none" stroke="#9D2441" stroke-linecap="round" stroke-linejoin="round" stroke-miterlimit="10" d="M35.4,51.5
			c2.5,1.9,5.6,3.5,9.4,4.9c20-7.4,21.1-22.2,21.1-38.9c0,0-15.8-4.3-21-9.5h0c-1.8,1.8-4.7,3.4-7.9,4.9"/>
		<g>
			<path fill="none" stroke="#9D2441" stroke-linecap="round" stroke-linejoin="round" stroke-miterlimit="10" d="M41.6,34.5
				c0,1.8,1.5,3.3,3.3,3.3s3.3-1.5,3.3-3.3c0-1.8-1.5-3.3-3.3-3.3s-3.3-1.5-3.3-3.3c0-1.8,1.5-3.3,3.3-3.3s3.3,1.5,3.3,3.3"/>
			
				<line fill="none" stroke="#9D2441" stroke-linecap="round" stroke-linejoin="round" stroke-miterlimit="10" x1="44.8" y1="37.8" x2="44.8" y2="40"/>
			
				<line fill="none" stroke="#9D2441" stroke-linecap="round" stroke-linejoin="round" stroke-miterlimit="10" x1="44.8" y1="22.6" x2="44.8" y2="24.7"/>
		</g>
	</g>
</g>
<g id="Layer_2">
</g>
</svg>
