<svg id="Layer_1" data-name="Layer 1" xmlns="http://www.w3.org/2000/svg" width="1in" height="1in" viewBox="0 0 72 72">
  <title>icon</title>
  <g>
    <g>
      <circle cx="14.7" cy="42.1" r="7.6" fill="none" stroke="#9d2441" stroke-linecap="round" stroke-linejoin="round" stroke-width="1.25"/>
      <path d="M19.5,61.9H2.5a12.2,12.2,0,0,1,22-7.2" fill="none" stroke="#9d2441" stroke-linecap="round" stroke-linejoin="round" stroke-width="1.25"/>
    </g>
    <g>
      <circle cx="57.3" cy="42.1" r="7.6" fill="none" stroke="#9d2441" stroke-linecap="round" stroke-linejoin="round" stroke-width="1.25"/>
      <path d="M47.5,54.7a12.2,12.2,0,0,1,22,7.2h-17" fill="none" stroke="#9d2441" stroke-linecap="round" stroke-linejoin="round" stroke-width="1.25"/>
    </g>
    <circle cx="36" cy="39.4" r="11" fill="none" stroke="#9d2441" stroke-linecap="round" stroke-linejoin="round" stroke-width="1.25"/>
    <path d="M20.4,26.9a19.8,19.8,0,0,1,31.3,0" fill="none" stroke="#9d2441" stroke-linecap="round" stroke-linejoin="round" stroke-width="1.25"/>
    <path d="M14.7,21.8a27.4,27.4,0,0,1,42.7,0" fill="none" stroke="#9d2441" stroke-linecap="round" stroke-linejoin="round" stroke-width="1.25"/>
    <path d="M8.6,17.3a35,35,0,0,1,54.9,0" fill="none" stroke="#9d2441" stroke-linecap="round" stroke-linejoin="round" stroke-width="1.25"/>
    <path d="M53.6,68H18.4A17.6,17.6,0,1,1,53.6,68Z" fill="none" stroke="#9d2441" stroke-linecap="round" stroke-linejoin="round" stroke-width="1.25"/>
  </g>
</svg>
