<?xml version="1.0" encoding="utf-8"?>
<!-- Generator: Adobe Illustrator 21.0.2, SVG Export Plug-In . SVG Version: 6.00 Build 0)  -->
<svg version="1.1" id="Layer_1" xmlns="http://www.w3.org/2000/svg" xmlns:xlink="http://www.w3.org/1999/xlink" x="0px" y="0px"
	 width="72px" height="72px" viewBox="0 0 72 72" enable-background="new 0 0 72 72" xml:space="preserve">
<g>
	<path fill="none" stroke="#9D2441" stroke-linecap="round" stroke-linejoin="round" stroke-miterlimit="10" d="M67.6,59.4
		c0,1.5-1.2,2.7-2.7,2.7H7.1c-1.5,0-2.7-1.2-2.7-2.7V9.9c0-1.5,1.2-2.7,2.7-2.7h57.7c1.5,0,2.7,1.2,2.7,2.7V59.4z"/>
	<path fill="none" stroke="#9D2441" stroke-linecap="round" stroke-linejoin="round" stroke-miterlimit="10" d="M54.5,27
		c0,3.4-2.7,6.2-6.1,6.2c-3.4,0-6-2.9-6-6.2c0-3.4,2.7-6.2,6-6.2C51.7,20.9,54.5,23.7,54.5,27z"/>
	<g>
		<g>
			<path fill="#9D2441" d="M48.4,26c0.6,0,1,0.5,1,1c0,0.6-0.5,1-1,1c-0.6,0-1-0.5-1-1C47.4,26.5,47.8,26,48.4,26 M48.4,25
				c-1.1,0-2,0.9-2,2c0,1.1,0.9,2,2,2c1.1,0,2-0.9,2-2C50.4,25.9,49.5,25,48.4,25L48.4,25z"/>
		</g>
	</g>
	<g>
		<g>
			<path fill="#9D2441" d="M43.2,38.4v0.7h-0.7v-0.7H43.2 M44.2,37.4h-2.7v2.7h2.7V37.4L44.2,37.4z"/>
		</g>
	</g>
	<g>
		<g>
			<path fill="#9D2441" d="M48.7,38.4v0.7H48v-0.7H48.7 M49.7,37.4H47v2.7h2.7V37.4L49.7,37.4z"/>
		</g>
	</g>
	<g>
		<g>
			<path fill="#9D2441" d="M54.2,38.4v0.7h-0.7v-0.7H54.2 M55.2,37.4h-2.7v2.7h2.7V37.4L55.2,37.4z"/>
		</g>
	</g>
	<g>
		<g>
			<path fill="#9D2441" d="M43.2,42.5v0.7h-0.7v-0.7H43.2 M44.2,41.5h-2.7v2.7h2.7V41.5L44.2,41.5z"/>
		</g>
	</g>
	<g>
		<g>
			<path fill="#9D2441" d="M48.7,42.5v0.7H48v-0.7H48.7 M49.7,41.5H47v2.7h2.7V41.5L49.7,41.5z"/>
		</g>
	</g>
	<g>
		<g>
			<path fill="#9D2441" d="M54.2,42.5v0.7h-0.7v-0.7H54.2 M55.2,41.5h-2.7v2.7h2.7V41.5L55.2,41.5z"/>
		</g>
	</g>
	<g>
		<g>
			<path fill="#9D2441" d="M43.2,46.6v0.7h-0.7v-0.7H43.2 M44.2,45.6h-2.7v2.7h2.7V45.6L44.2,45.6z"/>
		</g>
	</g>
	<g>
		<g>
			<path fill="#9D2441" d="M48.7,46.6v0.7H48v-0.7H48.7 M49.7,45.6H47v2.7h2.7V45.6L49.7,45.6z"/>
		</g>
	</g>
	<g>
		<g>
			<path fill="#9D2441" d="M54.2,46.6v0.7h-0.7v-0.7H54.2 M55.2,45.6h-2.7v2.7h2.7V45.6L55.2,45.6z"/>
		</g>
	</g>
	<path fill="none" stroke="#9D2441" stroke-linecap="round" stroke-linejoin="round" stroke-miterlimit="10" d="M62.1,51.1
		c0,1.5-1.2,2.7-2.7,2.7h-44c-1.5,0-2.7-1.2-2.7-2.7v-33c0-1.5,1.2-2.7,2.7-2.7h44c1.5,0,2.7,1.2,2.7,2.7V51.1z"/>
	
		<rect x="11.3" y="25" fill="none" stroke="#9D2441" stroke-linecap="round" stroke-linejoin="round" stroke-miterlimit="10" width="2.7" height="2.7"/>
	
		<rect x="11.3" y="41.5" fill="none" stroke="#9D2441" stroke-linecap="round" stroke-linejoin="round" stroke-miterlimit="10" width="2.7" height="2.7"/>
	<polyline fill="none" stroke="#9D2441" stroke-linecap="round" stroke-linejoin="round" stroke-miterlimit="10" points="11.3,62.1 
		11.3,64.9 15.4,64.9 15.4,62.1 	"/>
	<polyline fill="none" stroke="#9D2441" stroke-linecap="round" stroke-linejoin="round" stroke-miterlimit="10" points="56.6,62.1 
		56.6,64.9 60.7,64.9 60.7,62.1 	"/>
</g>
</svg>
