<svg id="Layer_1" data-name="Layer 1" xmlns="http://www.w3.org/2000/svg" width="1in" height="1in" viewBox="0 0 72 72">
  <title>icon</title>
  <g>
    <line x1="24.4" y1="41.3" x2="22.9" y2="43.1" fill="none" stroke="#9d2441" stroke-linecap="round" stroke-linejoin="round" stroke-width="1.25"/>
    <line x1="34.6" y1="29" x2="33.1" y2="30.7" fill="none" stroke="#9d2441" stroke-linecap="round" stroke-linejoin="round" stroke-width="1.25"/>
    <path d="M23.6,38.6c-1.2,1.5-.9,2.7.8,2.7a7.6,7.6,0,0,0,5.2-2.6c1.2-1.5.9-2.7-.8-2.7s-2-1.2-.8-2.7a7.6,7.6,0,0,1,5.2-2.6c1.6,0,2,1.2.8,2.7" fill="none" stroke="#9d2441" stroke-linecap="round" stroke-linejoin="round" stroke-width="1.25"/>
    <polygon points="57.1 23.3 31.8 48.7 3.6 48.7 29 23.3 57.1 23.3" fill="none" stroke="#9d2441" stroke-linecap="round" stroke-linejoin="round" stroke-width="1.25"/>
    <polyline points="57.1 30.4 33.2 54.3 3.6 54.3" fill="none" stroke="#9d2441" stroke-linecap="round" stroke-linejoin="round" stroke-width="1.25"/>
    <polyline points="52.9 34.6 68.4 34.6 68.4 17.7 3.6 17.7 3.6 34.6 17.7 34.6" fill="none" stroke="#9d2441" stroke-linecap="round" stroke-linejoin="round" stroke-width="1.25"/>
  </g>
</svg>
