<svg id="Layer_1" data-name="Layer 1" xmlns="http://www.w3.org/2000/svg" width="1in" height="1in" viewBox="0 0 72 72">
  <title>icon</title>
  <g>
    <path d="M38.9,62.5H16.8A14.7,14.7,0,0,1,2.1,47.8V38c0-16.7,11.8-19.7,17.7-19.7h8.8c2.9,0,5.9,1.5,5.9,4.4v1.5c0,2.9-2.9,4.4-5.9,4.4H22.7s-2.9,10.3-8.8,10.3" fill="none" stroke="#9d2441" stroke-linecap="round" stroke-linejoin="round" stroke-width="1.25"/>
    <path d="M31.6,44.8H50.7a4.4,4.4,0,1,1,0,8.8H38.9" fill="none" stroke="#9d2441" stroke-linecap="round" stroke-linejoin="round" stroke-width="1.25"/>
    <path d="M31.6,53.7h7.4a4.4,4.4,0,1,1,0,8.8H34.5" fill="none" stroke="#9d2441" stroke-linecap="round" stroke-linejoin="round" stroke-width="1.25"/>
    <line x1="69.9" y1="21.3" x2="34.2" y2="21.3" fill="none" stroke="#9d2441" stroke-linecap="round" stroke-linejoin="round" stroke-width="1.25"/>
    <path d="M16.8,18.3V13.9a4.4,4.4,0,0,1,4.4-4.4H65.5a4.4,4.4,0,0,1,4.4,4.4V40.4a4.4,4.4,0,0,1-4.4,4.4H21.3a4.4,4.4,0,0,1-4.4-4.4V38" fill="none" stroke="#9d2441" stroke-linecap="round" stroke-linejoin="round" stroke-width="1.25"/>
    <line x1="64" y1="27.2" x2="55.2" y2="27.2" fill="none" stroke="#9d2441" stroke-linecap="round" stroke-linejoin="round" stroke-width="1.25"/>
  </g>
</svg>
