<svg id="Layer_1" data-name="Layer 1" xmlns="http://www.w3.org/2000/svg" width="1in" height="1in" viewBox="0 0 72 72">
  <title>icon</title>
  <g>
    <circle cx="20.3" cy="13.5" r="9.8" fill="none" stroke="#9d2441" stroke-linecap="round" stroke-linejoin="round" stroke-width="1.25"/>
    <polyline points="14.7 64 14.7 68 25.9 68 25.9 55.5" fill="none" stroke="#9d2441" stroke-linecap="round" stroke-linejoin="round" stroke-width="1.25"/>
    <path d="M34.4,38.5a33.9,33.9,0,0,0,1.3-9.7H4.9c0,11.4,4.3,18,9.8,20.9" fill="none" stroke="#9d2441" stroke-linecap="round" stroke-linejoin="round" stroke-width="1.25"/>
    <circle cx="48.2" cy="7.9" r="4.2" fill="none" stroke="#9d2441" stroke-linecap="round" stroke-linejoin="round" stroke-width="1.25"/>
    <path d="M50.7,24.4c2.5-1.3,4.4-4.4,4.4-9.5h-14c0,5.2,2,8.2,4.4,9.5" fill="none" stroke="#9d2441" stroke-linecap="round" stroke-linejoin="round" stroke-width="1.25"/>
    <g>
      <polyline points="4.9 68 30.1 42.9 44 54 65 31.8" fill="none" stroke="#9d2441" stroke-linecap="round" stroke-linejoin="round" stroke-width="1.25"/>
      <polyline points="45.6 31.8 65 31.8 65 49.8" fill="none" stroke="#9d2441" stroke-linecap="round" stroke-linejoin="round" stroke-width="1.25"/>
    </g>
  </g>
</svg>
