<svg id="Layer_1" data-name="Layer 1" xmlns="http://www.w3.org/2000/svg" width="1in" height="1in" viewBox="0 0 72 72">
  <title>icon</title>
  <g>
    <path d="M56,25.9C56,11.5,42.5,3.3,30.1,3.3A26.9,26.9,0,0,0,3,30.6c0,8.7,2.9,16.8,11.4,21.9V69H43V59.1c5.7,0,8.6-.4,10.6-2.4s2.3-13.4,2.3-13.4h4.3a2.1,2.1,0,0,0,1.6-.9,3.4,3.4,0,0,0,.3-1.8C62.5,36,56,28.2,56,25.9Z" fill="none" stroke="#9d2441" stroke-linecap="round" stroke-linejoin="round" stroke-width="1.25"/>
    <path d="M30.1,43.4S44.4,33.1,44.4,25.5,32.7,14,30.1,24.7c-2.6-10.7-14.3-7.9-14.3.9S30.1,43.4,30.1,43.4Z" fill="none" stroke="#9d2441" stroke-linecap="round" stroke-linejoin="round" stroke-width="1.25"/>
  </g>
</svg>
