<?xml version="1.0" encoding="utf-8"?>
<!-- Generator: Adobe Illustrator 21.0.2, SVG Export Plug-In . SVG Version: 6.00 Build 0)  -->
<svg version="1.1" xmlns="http://www.w3.org/2000/svg" xmlns:xlink="http://www.w3.org/1999/xlink" x="0px" y="0px" width="72px"
	 height="72px" viewBox="0 0 72 72" enable-background="new 0 0 72 72" xml:space="preserve">
<g id="Layer_1">
	<g>
		<path fill="none" stroke="#9D2441" stroke-linecap="round" stroke-linejoin="round" stroke-miterlimit="10" d="M2.8,27.3V36
			c0,2.4,0.5,4.3,2.9,4.3v13h8.7v-13c2.4,0,2.9-2,2.9-4.3v-8.7H2.8z"/>
		<path fill="none" stroke="#9D2441" stroke-linecap="round" stroke-linejoin="round" stroke-miterlimit="10" d="M54.8,27.3V36
			c0,2.4,0.5,4.3,2.9,4.3v13h8.7v-13c2.4,0,2.9-2,2.9-4.3v-8.7H54.8z"/>
		<path fill="none" stroke="#9D2441" stroke-linecap="round" stroke-linejoin="round" stroke-miterlimit="10" d="M25.9,27.3h20.2
			v14.5c0,3.2-2.6,5.8-5.8,5.8v17.3h-8.7V47.6c-3.2,0-5.8-2.6-5.8-5.8V27.3z"/>
		<path fill="none" stroke="#9D2441" stroke-linecap="round" stroke-linejoin="round" stroke-miterlimit="10" d="M14.3,17.2
			c0,2.4-1.9,4.3-4.3,4.3l0,0c-2.4,0-4.3-1.9-4.3-4.3l0,0c0-2.4,1.9-4.3,4.3-4.3l0,0C12.4,12.9,14.3,14.8,14.3,17.2L14.3,17.2z"/>
		<path fill="none" stroke="#9D2441" stroke-linecap="round" stroke-linejoin="round" stroke-miterlimit="10" d="M66.4,17.2
			c0,2.4-1.9,4.3-4.3,4.3l0,0c-2.4,0-4.3-1.9-4.3-4.3l0,0c0-2.4,1.9-4.3,4.3-4.3l0,0C64.4,12.9,66.4,14.8,66.4,17.2L66.4,17.2z"/>
		<path fill="none" stroke="#9D2441" stroke-linecap="round" stroke-linejoin="round" stroke-miterlimit="10" d="M43.2,14.3
			c0,4-3.2,7.2-7.2,7.2l0,0c-4,0-7.2-3.2-7.2-7.2l0,0c0-4,3.2-7.2,7.2-7.2l0,0C40,7.1,43.2,10.3,43.2,14.3L43.2,14.3z"/>
	</g>
</g>
<g id="Layer_2">
</g>
</svg>
