<svg id="Layer_1" data-name="Layer 1" xmlns="http://www.w3.org/2000/svg" width="1in" height="1in" viewBox="0 0 72 72">
  <title>icon</title>
  <g>
    <polyline points="26 26.1 26 40.4 51.7 40.4 51.7 26.1" fill="none" stroke="#9d2441" stroke-linecap="round" stroke-linejoin="round" stroke-width="1.25"/>
    <polyline points="17.5 21.8 38.8 3.3 60.2 21.8" fill="none" stroke="#9d2441" stroke-linecap="round" stroke-linejoin="round" stroke-width="1.25"/>
    <polyline points="47.4 3.3 54.5 3.3 54.5 10.5" fill="none" stroke="#9d2441" stroke-linecap="round" stroke-linejoin="round" stroke-width="1.25"/>
    <rect x="3.2" y="43.2" width="11.4" height="22.79" fill="none" stroke="#9d2441" stroke-linecap="round" stroke-linejoin="round" stroke-width="1.25"/>
    <path d="M14.6,61.9c29.9,10,19.9,10,54.1-7.1-3-3-5.4-3.7-8.5-2.8L47.9,55.8" fill="none" stroke="#9d2441" stroke-linecap="round" stroke-linejoin="round" stroke-width="1.25"/>
    <path d="M14.6,46.1h8.5c6.7,0,11.4,5.7,12.8,5.7H46c2.8,0,2.8,5.7,0,5.7H30.3" fill="none" stroke="#9d2441" stroke-linecap="round" stroke-linejoin="round" stroke-width="1.25"/>
    <rect x="34.6" y="29" width="8.5" height="11.39" fill="none" stroke="#9d2441" stroke-linecap="round" stroke-linejoin="round" stroke-width="1.25"/>
  </g>
</svg>
