<svg id="Layer_1" data-name="Layer 1" xmlns="http://www.w3.org/2000/svg" width="1in" height="1in" viewBox="0 0 72 72">
  <title>icon</title>
  <g>
    <path d="M59.7,25.6C59.7,11.1,46,2.7,33.5,2.7A27.2,27.2,0,0,0,6.1,30.4c0,8.8,2.9,17.1,11.6,22.2V69.3H46.5V59.2c5.8,0,8.7-.4,10.8-2.4s2.3-13.6,2.3-13.6H64a2.2,2.2,0,0,0,1.7-.9,3.4,3.4,0,0,0,.3-1.8C66.3,35.9,59.7,27.9,59.7,25.6Z" fill="none" stroke="#9d2441" stroke-linecap="round" stroke-linejoin="round" stroke-width="1.25"/>
    <polygon points="32.4 11.4 42.6 11.4 37.6 23 45.3 23 28.6 48.1 31.9 31.7 24 31.7 32.4 11.4" fill="none" stroke="#9d2441" stroke-linecap="round" stroke-linejoin="round" stroke-width="1.25"/>
  </g>
</svg>
