<svg id="Layer_1" data-name="Layer 1" xmlns="http://www.w3.org/2000/svg" width="1in" height="1in" viewBox="0 0 72 72">
  <title>icon</title>
  <g>
    <path d="M48.7,57l6.6,6.6,8.2-8.2-6.6-6.6c1.3-2.1,2.3-5.9,2.9-8.4h9.4V31.7H59.8c-0.6-2.5-1.6-6.3-2.9-8.4l6.6-6.6L55.3,8.4,48.7,15c-2.1-1.3-5.9-2.3-8.4-2.9V2.8H31.6v9.4c-2.5.6-6.3,1.6-8.4,2.9L16.5,8.4,8.3,16.6l6.6,6.6c-1.3,2.1-2.3,5.9-2.9,8.4H2.7v8.7H12c0.6,2.5,1.6,6.3,2.9,8.4L8.3,55.4l8.2,8.2L23.1,57" fill="none" stroke="#9d2441" stroke-linecap="round" stroke-linejoin="round" stroke-width="1.25"/>
    <line x1="31.6" y1="60.6" x2="40.2" y2="60.6" fill="none" stroke="#9d2441" stroke-linecap="round" stroke-linejoin="round" stroke-width="1.25"/>
    <line x1="31.6" y1="66.4" x2="40.2" y2="66.4" fill="none" stroke="#9d2441" stroke-linecap="round" stroke-linejoin="round" stroke-width="1.25"/>
    <line x1="35.9" y1="66.4" x2="35.9" y2="69.3" fill="none" stroke="#9d2441" stroke-linecap="round" stroke-linejoin="round" stroke-width="1.25"/>
    <path d="M52.9,36.1c0-8.9-7.6-16-17-16s-17,7.2-17,16c0,7.3,5.6,13.5,12.6,15.4v3.3h8.7V51.5C47.3,49.6,52.9,43.4,52.9,36.1Z" fill="none" stroke="#9d2441" stroke-linecap="round" stroke-linejoin="round" stroke-width="1.25"/>
  </g>
</svg>
