<?xml version="1.0" encoding="utf-8"?>
<!-- Generator: Adobe Illustrator 21.0.2, SVG Export Plug-In . SVG Version: 6.00 Build 0)  -->
<svg version="1.1" xmlns="http://www.w3.org/2000/svg" xmlns:xlink="http://www.w3.org/1999/xlink" x="0px" y="0px" width="72px"
	 height="72px" viewBox="0 0 72 72" enable-background="new 0 0 72 72" xml:space="preserve">
<g id="Layer_1">
	<g>
		<g>
			<polyline fill="none" stroke="#9D2441" stroke-linecap="round" stroke-linejoin="round" stroke-miterlimit="10" points="34.4,5 
				40.1,12.2 34.4,19.4 			"/>
			
				<line fill="none" stroke="#9D2441" stroke-linecap="round" stroke-linejoin="round" stroke-miterlimit="10" x1="28.9" y1="12.2" x2="40.1" y2="12.2"/>
		</g>
		<g>
			<polyline fill="none" stroke="#9D2441" stroke-linecap="round" stroke-linejoin="round" stroke-miterlimit="10" points="
				34.7,52.6 28.9,59.8 34.7,67 			"/>
			
				<line fill="none" stroke="#9D2441" stroke-linecap="round" stroke-linejoin="round" stroke-miterlimit="10" x1="40.1" y1="59.8" x2="28.9" y2="59.8"/>
		</g>
		<g>
			<path fill="none" stroke="#9D2441" stroke-linecap="round" stroke-linejoin="round" stroke-miterlimit="10" d="M32.6,40
				c0,2,1.6,3.6,3.6,3.6c2,0,3.6-1.6,3.6-3.6c0-2-1.6-3.6-3.6-3.6c-2,0-3.6-1.6-3.6-3.6c0-2,1.6-3.6,3.6-3.6c2,0,3.6,1.6,3.6,3.6"/>
			
				<line fill="none" stroke="#9D2441" stroke-linecap="round" stroke-linejoin="round" stroke-miterlimit="10" x1="36" y1="26.2" x2="36" y2="29.1"/>
			
				<line fill="none" stroke="#9D2441" stroke-linecap="round" stroke-linejoin="round" stroke-miterlimit="10" x1="36" y1="43.6" x2="36" y2="46.5"/>
		</g>
		
			<circle fill="none" stroke="#9D2441" stroke-linecap="round" stroke-linejoin="round" stroke-miterlimit="10" cx="10.8" cy="24.8" r="7"/>
		<path fill="none" stroke="#9D2441" stroke-linecap="round" stroke-linejoin="round" stroke-miterlimit="10" d="M17.8,62.6h-14
			V44.4c0-3.9,3.1-7,7-7s7,3.1,7,7V62.6z"/>
		
			<circle fill="none" stroke="#9D2441" stroke-linecap="round" stroke-linejoin="round" stroke-miterlimit="10" cx="61.2" cy="24.8" r="7"/>
		<path fill="none" stroke="#9D2441" stroke-linecap="round" stroke-linejoin="round" stroke-miterlimit="10" d="M68.2,62.6h-14
			V44.4c0-3.9,3.1-7,7-7s7,3.1,7,7V62.6z"/>
	</g>
</g>
<g id="Layer_2">
</g>
</svg>
