<?xml version="1.0" encoding="utf-8"?>
<!-- Generator: Adobe Illustrator 21.0.2, SVG Export Plug-In . SVG Version: 6.00 Build 0)  -->
<svg version="1.1" xmlns="http://www.w3.org/2000/svg" xmlns:xlink="http://www.w3.org/1999/xlink" x="0px" y="0px" width="72px"
	 height="72px" viewBox="0 0 72 72" enable-background="new 0 0 72 72" xml:space="preserve">
<g id="Layer_1">
	<g>
		<path fill="none" stroke="#9D2441" stroke-linecap="round" stroke-linejoin="round" stroke-miterlimit="10" d="M56.6,27.1l11,7.6
			v28.9c0,2.3-1.8,4.1-4.1,4.1h-55c-2.3,0-4.1-1.8-4.1-4.1V34.6l11-7.6"/>
		<polyline fill="none" stroke="#9D2441" stroke-linecap="round" stroke-linejoin="round" stroke-miterlimit="10" points="
			12.6,59.4 26.4,48.4 45.6,48.4 59.4,59.4 		"/>
		
			<line fill="none" stroke="#9D2441" stroke-linecap="round" stroke-linejoin="round" stroke-miterlimit="10" x1="67.6" y1="34.6" x2="51.1" y2="45.6"/>
		
			<line fill="none" stroke="#9D2441" stroke-linecap="round" stroke-linejoin="round" stroke-miterlimit="10" x1="4.4" y1="34.6" x2="20.9" y2="45.6"/>
		<polyline fill="none" stroke="#9D2441" stroke-linecap="round" stroke-linejoin="round" stroke-miterlimit="10" points="
			56.6,41.5 56.6,4.4 15.4,4.4 15.4,41.5 		"/>
		
			<line fill="none" stroke="#9D2441" stroke-linecap="round" stroke-linejoin="round" stroke-miterlimit="10" x1="23.6" y1="12.6" x2="29.1" y2="12.6"/>
		
			<line fill="none" stroke="#9D2441" stroke-linecap="round" stroke-linejoin="round" stroke-miterlimit="10" x1="29.1" y1="20.9" x2="48.4" y2="20.9"/>
		
			<line fill="none" stroke="#9D2441" stroke-linecap="round" stroke-linejoin="round" stroke-miterlimit="10" x1="23.6" y1="29.1" x2="48.4" y2="29.1"/>
		
			<line fill="none" stroke="#9D2441" stroke-linecap="round" stroke-linejoin="round" stroke-miterlimit="10" x1="23.6" y1="37.4" x2="48.4" y2="37.4"/>
	</g>
</g>
<g id="Layer_2">
</g>
</svg>
