<?xml version="1.0" encoding="utf-8"?>
<!-- Generator: Adobe Illustrator 21.0.2, SVG Export Plug-In . SVG Version: 6.00 Build 0)  -->
<svg version="1.1" id="Layer_1" xmlns="http://www.w3.org/2000/svg" xmlns:xlink="http://www.w3.org/1999/xlink" x="0px" y="0px"
	 width="72px" height="72px" viewBox="0 0 72 72" enable-background="new 0 0 72 72" xml:space="preserve">
<g>
	<polygon fill="none" stroke="#9D2441" stroke-linecap="round" stroke-linejoin="round" stroke-miterlimit="10" points="14,67.6 
		19.5,62.1 25,67.6 30.5,62.1 36,67.6 41.5,62.1 47,67.6 52.5,62.1 58,67.6 58,4.4 52.5,9.9 47,4.4 41.5,9.9 36,4.4 30.5,9.9 
		25,4.4 19.5,9.9 14,4.4 	"/>
	
		<line fill="none" stroke="#9D2441" stroke-linecap="round" stroke-linejoin="round" stroke-miterlimit="10" x1="22.3" y1="20.9" x2="44.2" y2="20.9"/>
	
		<line fill="none" stroke="#9D2441" stroke-linecap="round" stroke-linejoin="round" stroke-miterlimit="10" x1="22.3" y1="29.1" x2="33.3" y2="29.1"/>
	
		<line fill="none" stroke="#9D2441" stroke-linecap="round" stroke-linejoin="round" stroke-miterlimit="10" x1="22.3" y1="37.4" x2="33.3" y2="37.4"/>
	
		<line fill="none" stroke="#9D2441" stroke-linecap="round" stroke-linejoin="round" stroke-miterlimit="10" x1="22.3" y1="45.6" x2="30.5" y2="45.6"/>
	
		<line fill="none" stroke="#9D2441" stroke-linecap="round" stroke-linejoin="round" stroke-miterlimit="10" x1="45.6" y1="51.1" x2="45.6" y2="53.9"/>
	
		<line fill="none" stroke="#9D2441" stroke-linecap="round" stroke-linejoin="round" stroke-miterlimit="10" x1="45.6" y1="31.9" x2="45.6" y2="34.6"/>
	<path fill="none" stroke="#9D2441" stroke-linecap="round" stroke-linejoin="round" stroke-miterlimit="10" d="M41.5,47
		c0,2.3,1.8,4.1,4.1,4.1s4.1-1.8,4.1-4.1s-1.8-4.1-4.1-4.1s-4.1-1.8-4.1-4.1c0-2.3,1.8-4.1,4.1-4.1s4.1,1.8,4.1,4.1"/>
</g>
</svg>
