<svg id="Layer_1" data-name="Layer 1" xmlns="http://www.w3.org/2000/svg" width="1in" height="1in" viewBox="0 0 72 72">
  <title>icon</title>
  <g>
    <polyline points="46.2 3 49 3 49 5.9" fill="none" stroke="#9d2441" stroke-linecap="round" stroke-linejoin="round" stroke-width="1.25"/>
    <polyline points="6.2 3 3.3 3 3.3 5.9" fill="none" stroke="#9d2441" stroke-linecap="round" stroke-linejoin="round" stroke-width="1.25"/>
    <line x1="49" y1="11.6" x2="49" y2="14.4" fill="none" stroke="#9d2441" stroke-linecap="round" stroke-linejoin="round" stroke-width="1.25"/>
    <line x1="37.6" y1="3" x2="40.4" y2="3" fill="none" stroke="#9d2441" stroke-linecap="round" stroke-linejoin="round" stroke-width="1.25"/>
    <line x1="29" y1="3" x2="31.9" y2="3" fill="none" stroke="#9d2441" stroke-linecap="round" stroke-linejoin="round" stroke-width="1.25"/>
    <line x1="20.5" y1="3" x2="23.3" y2="3" fill="none" stroke="#9d2441" stroke-linecap="round" stroke-linejoin="round" stroke-width="1.25"/>
    <line x1="11.9" y1="3" x2="14.8" y2="3" fill="none" stroke="#9d2441" stroke-linecap="round" stroke-linejoin="round" stroke-width="1.25"/>
    <line x1="37.6" y1="48.7" x2="40.4" y2="48.7" fill="none" stroke="#9d2441" stroke-linecap="round" stroke-linejoin="round" stroke-width="1.25"/>
    <line x1="29" y1="48.7" x2="31.9" y2="48.7" fill="none" stroke="#9d2441" stroke-linecap="round" stroke-linejoin="round" stroke-width="1.25"/>
    <line x1="20.5" y1="48.7" x2="23.3" y2="48.7" fill="none" stroke="#9d2441" stroke-linecap="round" stroke-linejoin="round" stroke-width="1.25"/>
    <line x1="11.9" y1="48.7" x2="14.8" y2="48.7" fill="none" stroke="#9d2441" stroke-linecap="round" stroke-linejoin="round" stroke-width="1.25"/>
    <polyline points="6.2 48.7 3.3 48.7 3.3 45.8" fill="none" stroke="#9d2441" stroke-linecap="round" stroke-linejoin="round" stroke-width="1.25"/>
    <line x1="3.3" y1="40.1" x2="3.3" y2="37.3" fill="none" stroke="#9d2441" stroke-linecap="round" stroke-linejoin="round" stroke-width="1.25"/>
    <line x1="3.3" y1="31.6" x2="3.3" y2="28.7" fill="none" stroke="#9d2441" stroke-linecap="round" stroke-linejoin="round" stroke-width="1.25"/>
    <line x1="3.3" y1="23" x2="3.3" y2="20.1" fill="none" stroke="#9d2441" stroke-linecap="round" stroke-linejoin="round" stroke-width="1.25"/>
    <line x1="49" y1="23" x2="49" y2="20.1" fill="none" stroke="#9d2441" stroke-linecap="round" stroke-linejoin="round" stroke-width="1.25"/>
    <line x1="3.3" y1="14.4" x2="3.3" y2="11.6" fill="none" stroke="#9d2441" stroke-linecap="round" stroke-linejoin="round" stroke-width="1.25"/>
    <polyline points="26.2 68.7 23.3 68.7 23.3 65.8" fill="none" stroke="#9d2441" stroke-linecap="round" stroke-linejoin="round" stroke-width="1.25"/>
    <polyline points="66.1 68.7 69 68.7 69 65.8" fill="none" stroke="#9d2441" stroke-linecap="round" stroke-linejoin="round" stroke-width="1.25"/>
    <line x1="23.3" y1="60.1" x2="23.3" y2="57.2" fill="none" stroke="#9d2441" stroke-linecap="round" stroke-linejoin="round" stroke-width="1.25"/>
    <line x1="34.7" y1="68.7" x2="31.9" y2="68.7" fill="none" stroke="#9d2441" stroke-linecap="round" stroke-linejoin="round" stroke-width="1.25"/>
    <line x1="43.3" y1="68.7" x2="40.4" y2="68.7" fill="none" stroke="#9d2441" stroke-linecap="round" stroke-linejoin="round" stroke-width="1.25"/>
    <line x1="51.9" y1="68.7" x2="49" y2="68.7" fill="none" stroke="#9d2441" stroke-linecap="round" stroke-linejoin="round" stroke-width="1.25"/>
    <line x1="60.4" y1="68.7" x2="57.6" y2="68.7" fill="none" stroke="#9d2441" stroke-linecap="round" stroke-linejoin="round" stroke-width="1.25"/>
    <line x1="51.9" y1="23" x2="49" y2="23" fill="none" stroke="#9d2441" stroke-linecap="round" stroke-linejoin="round" stroke-width="1.25"/>
    <line x1="60.4" y1="23" x2="57.6" y2="23" fill="none" stroke="#9d2441" stroke-linecap="round" stroke-linejoin="round" stroke-width="1.25"/>
    <polyline points="66.1 23 69 23 69 25.8" fill="none" stroke="#9d2441" stroke-linecap="round" stroke-linejoin="round" stroke-width="1.25"/>
    <line x1="69" y1="31.6" x2="69" y2="34.4" fill="none" stroke="#9d2441" stroke-linecap="round" stroke-linejoin="round" stroke-width="1.25"/>
    <line x1="69" y1="40.1" x2="69" y2="43" fill="none" stroke="#9d2441" stroke-linecap="round" stroke-linejoin="round" stroke-width="1.25"/>
    <line x1="69" y1="48.7" x2="69" y2="51.5" fill="none" stroke="#9d2441" stroke-linecap="round" stroke-linejoin="round" stroke-width="1.25"/>
    <line x1="23.3" y1="48.7" x2="23.3" y2="51.5" fill="none" stroke="#9d2441" stroke-linecap="round" stroke-linejoin="round" stroke-width="1.25"/>
    <line x1="69" y1="57.2" x2="69" y2="60.1" fill="none" stroke="#9d2441" stroke-linecap="round" stroke-linejoin="round" stroke-width="1.25"/>
    <rect x="23.3" y="23" width="25.7" height="25.7" fill="none" stroke="#9d2441" stroke-linecap="round" stroke-linejoin="round" stroke-width="1.25"/>
  </g>
</svg>
