<?xml version="1.0" encoding="utf-8"?>
<!-- Generator: Adobe Illustrator 21.0.2, SVG Export Plug-In . SVG Version: 6.00 Build 0)  -->
<svg version="1.1" id="Layer_1" xmlns="http://www.w3.org/2000/svg" xmlns:xlink="http://www.w3.org/1999/xlink" x="0px" y="0px"
	 width="72px" height="72px" viewBox="0 0 72 72" enable-background="new 0 0 72 72" xml:space="preserve">
<g>
	<path fill="none" stroke="#9D2441" stroke-linecap="round" stroke-linejoin="round" stroke-miterlimit="10" d="M52,54.5V43.4
		c0-6.7-4.1-12.4-9.9-14.8c0-3.4-2.8-6.2-6.2-6.2c-3.4,0-6.2,2.8-6.2,6.2C24,31,20,36.7,20,43.4v11.1c0,2.7-2.2,4.9-4.9,4.9h41.9
		C54.2,59.4,52,57.2,52,54.5z"/>
	<path fill="none" stroke="#9D2441" stroke-linecap="round" stroke-linejoin="round" stroke-miterlimit="10" d="M40.9,59.4
		c0,2.7-2.2,4.9-4.9,4.9c-2.7,0-4.9-2.2-4.9-4.9"/>
	<path fill="none" stroke="#9D2441" stroke-linecap="round" stroke-linejoin="round" stroke-miterlimit="10" d="M15.1,28.6
		c0-7.5,6.1-13.6,13.6-13.6"/>
	<path fill="none" stroke="#9D2441" stroke-linecap="round" stroke-linejoin="round" stroke-miterlimit="10" d="M7.7,28.6
		C7.7,17,17,7.7,28.6,7.7"/>
	<path fill="none" stroke="#9D2441" stroke-linecap="round" stroke-linejoin="round" stroke-miterlimit="10" d="M56.9,28.6
		c0-7.5-6.1-13.6-13.6-13.6"/>
	<path fill="none" stroke="#9D2441" stroke-linecap="round" stroke-linejoin="round" stroke-miterlimit="10" d="M64.3,28.6
		C64.3,17,55,7.7,43.4,7.7"/>
</g>
</svg>
