<?xml version="1.0" encoding="utf-8"?>
<!-- Generator: Adobe Illustrator 21.0.2, SVG Export Plug-In . SVG Version: 6.00 Build 0)  -->
<svg version="1.1" xmlns="http://www.w3.org/2000/svg" xmlns:xlink="http://www.w3.org/1999/xlink" x="0px" y="0px" width="72px"
	 height="72px" viewBox="0 0 72 72" enable-background="new 0 0 72 72" xml:space="preserve">
<g id="Layer_1">
	<g>
		<path fill="none" stroke="#9D2441" stroke-linecap="round" stroke-linejoin="round" stroke-miterlimit="10" d="M56.2,62.5
			c0,1.4-1.1,2.5-2.5,2.5H18.3c-1.4,0-2.5-1.1-2.5-2.5v-53C15.8,8.1,17,7,18.3,7h35.3c1.4,0,2.5,1.1,2.5,2.5V62.5z"/>
		
			<rect x="20.9" y="12" fill="none" stroke="#9D2441" stroke-linecap="round" stroke-linejoin="round" stroke-miterlimit="10" width="30.3" height="12.6"/>
		
			<line fill="none" stroke="#9D2441" stroke-linecap="round" stroke-linejoin="round" stroke-miterlimit="10" x1="46.1" y1="17.1" x2="46.1" y2="19.6"/>
		
			<line fill="none" stroke="#9D2441" stroke-linecap="round" stroke-linejoin="round" stroke-miterlimit="10" x1="23.4" y1="34.7" x2="25.9" y2="34.7"/>
		
			<line fill="none" stroke="#9D2441" stroke-linecap="round" stroke-linejoin="round" stroke-miterlimit="10" x1="31" y1="34.7" x2="33.5" y2="34.7"/>
		
			<line fill="none" stroke="#9D2441" stroke-linecap="round" stroke-linejoin="round" stroke-miterlimit="10" x1="38.5" y1="34.7" x2="41" y2="34.7"/>
		
			<line fill="none" stroke="#9D2441" stroke-linecap="round" stroke-linejoin="round" stroke-miterlimit="10" x1="46.1" y1="34.7" x2="48.6" y2="34.7"/>
		
			<line fill="none" stroke="#9D2441" stroke-linecap="round" stroke-linejoin="round" stroke-miterlimit="10" x1="23.4" y1="42.3" x2="25.9" y2="42.3"/>
		
			<line fill="none" stroke="#9D2441" stroke-linecap="round" stroke-linejoin="round" stroke-miterlimit="10" x1="31" y1="42.3" x2="33.5" y2="42.3"/>
		
			<line fill="none" stroke="#9D2441" stroke-linecap="round" stroke-linejoin="round" stroke-miterlimit="10" x1="38.5" y1="42.3" x2="41" y2="42.3"/>
		
			<line fill="none" stroke="#9D2441" stroke-linecap="round" stroke-linejoin="round" stroke-miterlimit="10" x1="46.1" y1="42.3" x2="48.6" y2="42.3"/>
		
			<line fill="none" stroke="#9D2441" stroke-linecap="round" stroke-linejoin="round" stroke-miterlimit="10" x1="23.4" y1="49.9" x2="25.9" y2="49.9"/>
		
			<line fill="none" stroke="#9D2441" stroke-linecap="round" stroke-linejoin="round" stroke-miterlimit="10" x1="31" y1="49.9" x2="33.5" y2="49.9"/>
		
			<line fill="none" stroke="#9D2441" stroke-linecap="round" stroke-linejoin="round" stroke-miterlimit="10" x1="38.5" y1="49.9" x2="41" y2="49.9"/>
		
			<line fill="none" stroke="#9D2441" stroke-linecap="round" stroke-linejoin="round" stroke-miterlimit="10" x1="46.1" y1="49.9" x2="48.6" y2="49.9"/>
		
			<line fill="none" stroke="#9D2441" stroke-linecap="round" stroke-linejoin="round" stroke-miterlimit="10" x1="23.4" y1="57.4" x2="25.9" y2="57.4"/>
		
			<line fill="none" stroke="#9D2441" stroke-linecap="round" stroke-linejoin="round" stroke-miterlimit="10" x1="31" y1="57.4" x2="33.5" y2="57.4"/>
		
			<line fill="none" stroke="#9D2441" stroke-linecap="round" stroke-linejoin="round" stroke-miterlimit="10" x1="38.5" y1="57.4" x2="48.6" y2="57.4"/>
	</g>
</g>
<g id="Layer_2">
</g>
</svg>
