<?xml version="1.0" encoding="utf-8"?>
<!-- Generator: Adobe Illustrator 21.0.2, SVG Export Plug-In . SVG Version: 6.00 Build 0)  -->
<svg version="1.1" xmlns="http://www.w3.org/2000/svg" xmlns:xlink="http://www.w3.org/1999/xlink" x="0px" y="0px" width="72px"
	 height="72px" viewBox="0 0 72 72" enable-background="new 0 0 72 72" xml:space="preserve">
<g id="Layer_1">
	<g>
		<g>
			<path fill="none" stroke="#9D2441" stroke-linecap="round" stroke-linejoin="round" stroke-miterlimit="10" d="M30.2,40.4
				c0,2.4,1.9,4.4,4.4,4.4s4.4-1.9,4.4-4.4c0-2.4-1.9-4.4-4.4-4.4s-4.4-1.9-4.4-4.4c0-2.4,1.9-4.4,4.4-4.4s4.4,2,4.4,4.4"/>
			
				<line fill="none" stroke="#9D2441" stroke-linecap="round" stroke-linejoin="round" stroke-miterlimit="10" x1="34.5" y1="44.7" x2="34.5" y2="47.6"/>
			
				<line fill="none" stroke="#9D2441" stroke-linecap="round" stroke-linejoin="round" stroke-miterlimit="10" x1="34.5" y1="24.4" x2="34.5" y2="27.3"/>
		</g>
		<path fill="none" stroke="#9D2441" stroke-linecap="round" stroke-linejoin="round" stroke-miterlimit="10" d="M69.4,36
			c0-5.7-3.6-10.5-8.7-12.3v-6.6H11.3v6.6C6.3,25.5,2.6,30.3,2.6,36c0,5.7,3.6,10.5,8.7,12.3v6.6h49.3v-6.6
			C65.7,46.5,69.4,41.7,69.4,36z"/>
	</g>
</g>
<g id="Layer_2">
</g>
</svg>
