<?xml version="1.0" encoding="utf-8"?>
<!-- Generator: Adobe Illustrator 21.0.2, SVG Export Plug-In . SVG Version: 6.00 Build 0)  -->
<svg version="1.1" id="Layer_1" xmlns="http://www.w3.org/2000/svg" xmlns:xlink="http://www.w3.org/1999/xlink" x="0px" y="0px"
	 width="478px" height="420px" viewBox="0 0 478 420" style="enable-background:new 0 0 478 420;" xml:space="preserve">
<style type="text/css">
	.st0{fill:#FFFFFF;}
	.st1{fill:#333E48;}
	.st2{fill:#9D2441;}
	.st3{clip-path:url(#SVGID_2_);fill:none;stroke:#FFFFFF;stroke-width:11.767;stroke-miterlimit:10;}
	.st4{fill:none;stroke:#FFFFFF;stroke-linecap:round;stroke-linejoin:round;stroke-miterlimit:10;}
	.st5{fill:none;stroke:#FFFFFF;stroke-linejoin:round;stroke-miterlimit:10;}
	.st6{clip-path:url(#SVGID_4_);}
</style>
<g>
	<path class="st0" d="M239.0004,21.64476l218.12814,385.75009H20.8723L239.0004,21.64476z M230.93755,14.51506L12.80859,400.26599
		L1.79475,419.74347H20.8723l436.25626-0.00082h19.07672l-11.01382-19.47748L247.06328,14.51506L239.0004,0.25652
		L230.93755,14.51506z"/>
</g>
<g>
	<polygon class="st1" points="20.87188,407.39529 457.12894,407.39447 239.00082,21.64522 	"/>
</g>
<g>
	<polygon class="st2" points="130.21228,214.03207 129.93578,214.52007 238.99942,407.39468 239.00024,407.39468 
		348.06473,214.51924 347.78824,214.03127 	"/>
</g>
<g>
	<defs>
		<polygon id="SVGID_3_" points="20.87171,407.39505 457.12878,407.39423 239.00067,21.64491 		"/>
	</defs>
	<clipPath id="SVGID_2_">
		<use xlink:href="#SVGID_3_"  style="overflow:visible;"/>
	</clipPath>
	<g style="clip-path:url(#SVGID_2_);">
		<rect x="129.65968" y="207.43637" class="st0" width="218.6805" height="9.68367"/>
	</g>
	<g style="clip-path:url(#SVGID_2_);">
		<polygon class="st0" points="239.00034,418.08868 125.6283,215.19054 134.08162,210.46684 239.00034,398.23755 
			343.91864,210.46684 352.37195,215.19054 		"/>
	</g>
</g>
<g>
	<path class="st0" d="M206.24422,158.31889c-2.1517,0-3.63197-1.51001-3.63197-3.55283v-0.02008
		c0-1.96407,1.52969-3.57211,3.62193-3.57211c1.24361,0,1.99379,0.33511,2.71423,0.94748l-0.95752,1.15399
		c-0.53279-0.44359-1.00653-0.70076-1.80614-0.70076c-1.10538,0-1.98375,0.9772-1.98375,2.15211v0.01929
		c0,1.26329,0.86873,2.19148,2.09264,2.19148c0.55249,0,1.04591-0.13823,1.43086-0.41467v-0.98685h-1.52971v-1.31313h3.00034
		v3.00073C208.48433,157.82547,207.50752,158.31889,206.24422,158.31889z"/>
	<path class="st0" d="M215.68399,158.20076l-1.48027-2.21077h-1.1942v2.21077h-1.52005v-6.90875h3.15825
		c1.62854,0,2.60574,0.85826,2.60574,2.27988v0.01929c0,1.11543-0.60231,1.81619-1.48068,2.14166l1.68802,2.46793H215.68399z
		 M215.71373,153.65063c0-0.65092-0.45406-0.98685-1.1942-0.98685h-1.51001v1.98415h1.53975
		c0.74014,0,1.16446-0.39537,1.16446-0.9772V153.65063z"/>
	<path class="st0" d="M222.81454,158.31889c-2.13202,0-3.66171-1.58876-3.66171-3.55283v-0.02008
		c0-1.96407,1.54939-3.57211,3.6814-3.57211c2.13161,0,3.66132,1.58876,3.66132,3.55283v0.01929
		C226.49554,156.71004,224.94615,158.31889,222.81454,158.31889z M224.90678,154.74599c0-1.18375-0.86873-2.1714-2.09224-2.1714
		c-1.22392,0-2.07295,0.96758-2.07295,2.15211v0.01929c0,1.18454,0.86871,2.17139,2.09264,2.17139
		c1.22353,0,2.07256-0.96677,2.07256-2.15131V154.74599z"/>
	<path class="st0" d="M236.27122,158.24979h-1.32277l-1.55902-4.52039l-1.55943,4.52039h-1.32277l-2.35864-6.95778h1.62856
		l1.43085,4.67789l1.54979-4.69798h1.30267l1.54938,4.69798l1.43126-4.67789h1.58876L236.27122,158.24979z"/>
	<path class="st0" d="M247.84702,155.44675v2.75401h-1.52005v-2.72429l-2.65477-4.18446h1.77641l1.64822,2.7733l1.67798-2.7733
		h1.72697L247.84702,155.44675z"/>
	<path class="st0" d="M255.63776,158.31889c-2.13162,0-3.66132-1.58876-3.66132-3.55283v-0.02008
		c0-1.96407,1.54939-3.57211,3.6814-3.57211c2.13162,0,3.66132,1.58876,3.66132,3.55283v0.01929
		C259.31915,156.71004,257.76978,158.31889,255.63776,158.31889z M257.73038,154.74599c0-1.18375-0.86871-2.1714-2.09262-2.1714
		c-1.22353,0-2.07256,0.96758-2.07256,2.15211v0.01929c0,1.18454,0.86873,2.17139,2.09264,2.17139
		c1.22351,0,2.07254-0.96677,2.07254-2.15131V154.74599z"/>
	<path class="st0" d="M264.3876,158.30925c-1.85556,0-2.99069-1.03668-2.99069-3.06984v-3.9474h1.52005v3.90802
		c0,1.12508,0.56256,1.7077,1.49033,1.7077c0.9278,0,1.49033-0.56253,1.49033-1.65788v-3.95784h1.51965v3.89838
		C267.41727,157.28302,266.24277,158.30925,264.3876,158.30925z"/>
	<path class="st0" d="M273.99493,158.20076l-1.48029-2.21077h-1.19418v2.21077h-1.52005v-6.90875h3.15823
		c1.62854,0,2.60574,0.85826,2.60574,2.27988v0.01929c0,1.11543-0.60229,1.81619-1.48065,2.14166l1.68799,2.46793H273.99493z
		 M274.02466,153.65063c0-0.65092-0.45404-0.98685-1.19418-0.98685h-1.51001v1.98415h1.53973
		c0.74014,0,1.16446-0.39537,1.16446-0.9772V153.65063z"/>
	<path class="st0" d="M214.6674,170.05019h-3.28682v-6.90875h3.20766c1.41158,0,2.27989,0.70076,2.27989,1.78645v0.0201
		c0,0.77951-0.41467,1.21347-0.9081,1.48991c0.79961,0.30618,1.29303,0.76988,1.29303,1.69806v0.01929
		C217.25307,169.41855,216.22644,170.05019,214.6674,170.05019z M215.35812,165.18506c0-0.45406-0.35521-0.71121-0.9969-0.71121
		h-1.49995v1.46098h1.40111c0.67143,0,1.09575-0.21698,1.09575-0.73048V165.18506z M215.74306,167.94791
		c0-0.46368-0.34557-0.74977-1.12508-0.74977h-1.75671v1.51965h1.80614c0.67102,0,1.07565-0.23627,1.07565-0.74979V167.94791z"/>
	<path class="st0" d="M222.22147,170.15868c-1.85516,0-2.99028-1.03587-2.99028-3.06903v-3.94821h1.52005v3.90883
		c0,1.12508,0.56255,1.70689,1.49033,1.70689c0.92738,0,1.49031-0.56253,1.49031-1.65787v-3.95786h1.51965v3.89838
		C225.25153,169.13245,224.07704,170.15868,222.22147,170.15868z"/>
	<path class="st0" d="M230.09216,170.14903c-1.04591,0-2.10228-0.36484-2.93123-1.10498l0.89806-1.07605
		c0.62201,0.51352,1.27335,0.83899,2.0629,0.83899c0.62161,0,0.9969-0.24672,0.9969-0.65175v-0.01929
		c0-0.38493-0.23708-0.58263-1.39148-0.87836c-1.39188-0.35519-2.28992-0.74014-2.28992-2.11273v-0.01929
		c0-1.25365,1.00653-2.08218,2.41811-2.08218c1.00653,0,1.8652,0.31583,2.56596,0.87836l-0.78957,1.14436
		c-0.61195-0.42432-1.21387-0.68066-1.7961-0.68066c-0.58263,0-0.8884,0.26599-0.8884,0.60191v0.02008
		c0,0.45325,0.29613,0.60191,1.49031,0.9073c1.40152,0.36565,2.19109,0.86871,2.19109,2.07254v0.0201
		C232.6288,169.37917,231.58247,170.14903,230.09216,170.14903z"/>
	<path class="st0" d="M234.85323,170.05019v-6.90875h1.52005v6.90875H234.85323z"/>
	<path class="st0" d="M243.77747,170.05019l-3.34547-4.3918v4.3918h-1.50037v-6.90875h1.40152l3.2374,4.25439v-4.25439h1.49995
		v6.90875H243.77747z"/>
	<path class="st0" d="M247.56213,170.05019v-6.90875h5.21111v1.35251h-3.7011v1.40152h3.2571v1.35168h-3.2571v1.45135h3.75052
		v1.35168H247.56213z"/>
	<path class="st0" d="M257.46518,170.14903c-1.0459,0-2.10226-0.36484-2.9312-1.10498l0.89804-1.07605
		c0.62199,0.51352,1.27333,0.83899,2.06291,0.83899c0.62158,0,0.99689-0.24672,0.99689-0.65175v-0.01929
		c0-0.38493-0.23706-0.58263-1.39148-0.87836c-1.39188-0.35519-2.28992-0.74014-2.28992-2.11273v-0.01929
		c0-1.25365,1.00653-2.08218,2.41809-2.08218c1.00656,0,1.86523,0.31583,2.56598,0.87836l-0.78955,1.14436
		c-0.61197-0.42432-1.21387-0.68066-1.79611-0.68066c-0.58261,0-0.8884,0.26599-0.8884,0.60191v0.02008
		c0,0.45325,0.29614,0.60191,1.49033,0.9073c1.40152,0.36565,2.19107,0.86871,2.19107,2.07254v0.0201
		C260.00183,169.37917,258.95551,170.14903,257.46518,170.14903z"/>
	<path class="st0" d="M264.61462,170.14903c-1.0459,0-2.10187-0.36484-2.93121-1.10498l0.89804-1.07605
		c0.62201,0.51352,1.27335,0.83899,2.06293,0.83899c0.62158,0,0.99689-0.24672,0.99689-0.65175v-0.01929
		c0-0.38493-0.23706-0.58263-1.39188-0.87836c-1.39148-0.35519-2.28952-0.74014-2.28952-2.11273v-0.01929
		c0-1.25365,1.00653-2.08218,2.41809-2.08218c1.00653,0,1.8652,0.31583,2.56598,0.87836l-0.78955,1.14436
		c-0.61197-0.42432-1.2139-0.68066-1.79611-0.68066s-0.8884,0.26599-0.8884,0.60191v0.02008
		c0,0.45325,0.29611,0.60191,1.4903,0.9073c1.40152,0.36565,2.1911,0.86871,2.1911,2.07254v0.0201
		C267.15128,169.37917,266.10495,170.14903,264.61462,170.14903z"/>
</g>
<g>
	<path class="st0" d="M230.14841,134.81853h-4.72089c-0.22742,0-0.41145-0.18404-0.41145-0.41145v-8.26126
		c0-0.22742,0.18404-0.41145,0.41145-0.41145h4.72089c0.22743,0,0.41147,0.18403,0.41147,0.41145v0.76826h3.71956
		c2.67366,0,4.12138,1.53813,4.81693,2.27747c0.02692,0.02893,0.05304,0.05626,0.07796,0.08278h2.18625
		c4.93466,0,9.26297,1.84673,9.26297,3.95222c0,0.22742-0.18402,0.41145-0.41145,0.41145h-19.65221v0.76907
		C230.55988,134.63449,230.37584,134.81853,230.14841,134.81853z M225.83897,133.99561h3.89798v-7.43834h-3.89798V133.99561z
		 M230.55988,132.81509h19.13628c-0.64731-1.31071-4.22545-2.71786-8.33559-2.71786h-8.26085
		c-0.22742,0-0.41145-0.18402-0.41145-0.41145c0-0.22742,0.18404-0.41145,0.41145-0.41145h4.92581
		c-0.73048-0.69754-1.89212-1.53733-3.74609-1.53733h-3.71956V132.81509z M247.93784,127.96924
		c-0.12738,0-0.25275-0.05866-0.33351-0.16956c-0.13339-0.18404-0.09241-0.44119,0.09122-0.57459
		c2.7962-2.03076,4.46573-5.30231,4.46573-8.75066c0-5.95565-4.84505-10.8007-10.8007-10.8007
		c-5.95564,0-10.80069,4.84505-10.80069,10.8007c0,1.18294,0.18924,2.34337,0.56213,3.44835
		c0.07272,0.21538-0.043,0.44923-0.25838,0.52155c-0.21577,0.06992-0.44922-0.0434-0.52115-0.25796
		c-0.40181-1.19017-0.60553-2.439-0.60553-3.71194c0-6.4089,5.21431-11.62361,11.62361-11.62361s11.62363,5.21471,11.62363,11.62361
		c0,3.71114-1.79611,7.23181-4.80487,9.41606C248.10619,127.94352,248.02141,127.96924,247.93784,127.96924z M246.67172,119.47574
		h-5.90102c-0.22742,0-0.41145-0.18403-0.41145-0.41145v-6.49088c0-0.22742,0.18404-0.41145,0.41145-0.41145
		c0.22743,0,0.41147,0.18403,0.41147,0.41145v6.07941h5.48955c0.22742,0,0.41145,0.18403,0.41145,0.41146
		C247.08318,119.29171,246.89914,119.47574,246.67172,119.47574z"/>
</g>
<g>
	<path class="st0" d="M250.99402,257.71268c-0.08359,0-0.16756-0.0257-0.23909-0.07632l-3.92409-2.80064l-3.9241,2.80064
		c-0.14746,0.10367-0.34636,0.10205-0.48981-0.00885c-0.14345-0.11011-0.19809-0.30136-0.1346-0.47092l1.68158-4.48744
		l-3.34348-2.78294c-0.13341-0.1109-0.18283-0.29332-0.12376-0.45647c0.05907-0.16313,0.21376-0.27162,0.38695-0.27162h3.89235
		l1.6852-3.91365c0.06509-0.15108,0.21378-0.24911,0.37811-0.24911c0.0004,0,0.0004,0,0.00081,0
		c0.16434,0,0.313,0.09885,0.3777,0.24992l1.66872,3.91284h3.89156c0.17317,0,0.32788,0.10849,0.38695,0.27162
		c0.05907,0.16315,0.00964,0.34557-0.12376,0.45647l-3.34348,2.78294l1.68158,4.48744
		c0.06349,0.16956,0.00883,0.36081-0.13461,0.47092C251.17081,257.68457,251.08241,257.71268,250.99402,257.71268z
		 M246.83084,253.91878c0.08357,0,0.16756,0.02573,0.23907,0.07634l3.06583,2.18826l-1.31111-3.49896
		c-0.06148-0.16394-0.01245-0.34877,0.12215-0.46048l2.69376-2.24292h-3.02565c-0.16475,0-0.31381-0.09804-0.37851-0.24992
		l-1.3987-3.27959l-1.41278,3.2804c-0.06509,0.15108-0.21376,0.24911-0.3781,0.24911h-3.02565l2.69376,2.24292
		c0.1346,0.11171,0.18362,0.29654,0.12215,0.46048l-1.31111,3.49896l3.06583-2.18826
		C246.66328,253.9445,246.74727,253.91878,246.83084,253.91878z M237.91061,252.99622H225.4211
		c-0.1125,0-0.2202-0.04581-0.29814-0.12778c-0.07756-0.08116-0.11855-0.19125-0.11292-0.30377
		c0.00642-0.12857,0.16153-3.17592,0.73572-4.90852c0.40825-1.22633,2.52458-1.94237,4.97523-2.77251
		c0.88197-0.29895,1.79088-0.60674,2.61499-0.94104v-2.45427c-0.52798-0.32547-1.69243-1.29463-1.77882-3.54478
		c-0.2885-0.23386-0.45163-0.74255-0.45163-1.45778c0-0.66219,0.14023-1.14838,0.39015-1.40152
		c-0.00964-0.03455-0.02008-0.07152-0.03093-0.1109c-0.23828-0.85986-0.68108-2.46149,0.07474-3.27315
		c0.32024-0.34396,0.79237-0.49022,1.40514-0.42833c0.60352-1.21349,2.56155-1.65466,4.16397-1.65466
		c1.7507,0,3.9257,0.52718,4.29536,2.01146c0.32788,1.31393-0.25635,2.60938-0.57016,3.30531l0,0
		c0.46007,0.24591,0.75902,0.80603,0.75902,1.5092c0,0.40102-0.10246,0.78032-0.2885,1.06963
		c-0.15752,0.24429-0.36766,0.41628-0.61237,0.50467c-0.10849,2.19711-1.25365,3.14861-1.776,3.47086v2.43016
		c0.56213,0.18483,1.04309,0.35681,1.50037,0.52155c0.38895,0.13904,0.76022,0.27243,1.15079,0.40181
		c0.21577,0.07153,0.3327,0.30458,0.26117,0.51996c-0.07152,0.21617-0.30377,0.3343-0.51994,0.26117
		c-0.39699-0.13179-0.77429-0.2668-1.17007-0.40904c-0.52437-0.18805-1.08127-0.38734-1.75912-0.60432
		c-0.17038-0.05464-0.2861-0.21297-0.2861-0.39217v-2.97421c0-0.16635,0.10046-0.31664,0.25435-0.38011
		c0.05946-0.02573,1.53011-0.69193,1.53011-3.18797c0-0.22743,0.18402-0.41147,0.41145-0.41147
		c0.08438,0,0.21014-0.02008,0.32346-0.19608c0.10005-0.1559,0.15752-0.38333,0.15752-0.62442
		c0-0.32948-0.12819-0.8205-0.48097-0.8205c-0.22743,0-0.41145-0.18404-0.41145-0.41145c0-0.15833,0.06871-0.311,0.20613-0.61559
		c0.27283-0.60512,0.78072-1.731,0.52194-2.76767c-0.20009-0.80443-1.67073-1.38786-3.49696-1.38786
		s-3.29686,0.58344-3.49657,1.38786c-0.05344,0.21376-0.26439,0.34636-0.48056,0.30376
		c-0.48579-0.09804-0.8185-0.05383-0.98967,0.12939c-0.4424,0.47493-0.05103,1.88931,0.11572,2.49284
		c0.08357,0.30135,0.11732,0.42833,0.11732,0.54243c0,0.19449-0.13541,0.35762-0.31703,0.40021
		c-0.17116,0.27324-0.17116,1.30508,0,1.57832c0.18163,0.04259,0.31703,0.20572,0.31703,0.40021
		c0,2.49605,1.47023,3.16225,1.53291,3.18877c0.15028,0.0659,0.25113,0.21538,0.25113,0.37932v2.97421
		c0,0.16554-0.09883,0.31502-0.25153,0.3793c-0.91573,0.38655-1.93593,0.7321-2.92238,1.06641
		c-1.95923,0.66299-4.17964,1.41519-4.4581,2.25256c-0.41708,1.25847-0.60353,3.35674-0.66742,4.2576h12.05115
		c0.22743,0,0.41145,0.18404,0.41145,0.41145C238.32207,252.81219,238.13805,252.99622,237.91061,252.99622z"/>
</g>
<g>
	<path class="st0" d="M127.14514,321.19012c-1.73221,0-3.6384-0.64932-7.05461-1.83627
		c-0.96676-0.33511-2.05849-0.71442-3.30692-1.13474v1.4642c0,0.22745-0.18403,0.41147-0.41145,0.41147h-5.2782
		c-0.22742,0-0.41146-0.18402-0.41146-0.41147v-10.61343c0-0.22745,0.18404-0.41147,0.41146-0.41147h5.2782
		c0.22742,0,0.41145,0.18402,0.41145,0.41147v0.90808h3.5468c2.98787,0,5.1898,1.75754,6.10593,2.6391h3.79029
		c1.30388,0,1.98695,0.86792,1.98897,1.72699l5.13918-1.70609c1.6422-0.46771,2.90509-0.05466,4.37894,1.41998
		c0.09363,0.09323,0.13663,0.22662,0.11533,0.35681s-0.10406,0.24271-0.2222,0.30219
		c-2.68773,1.34445-4.79362,2.4639-6.48564,3.36395C131.11584,320.22256,129.25948,321.19012,127.14514,321.19012z
		 M116.78362,317.35123c1.36134,0.45645,2.54066,0.86548,3.57693,1.22552c7.3186,2.54346,7.319,2.54184,14.3945-1.22232
		c1.58395-0.84219,3.52992-1.87726,5.97696-3.10922c-1.06761-0.93542-1.95763-1.15723-3.13454-0.82129l-5.69528,1.89172
		c-0.32065,0.4436-0.88359,0.76425-1.67555,0.76425h-7.25713c-0.22742,0-0.41145-0.18405-0.41145-0.41147
		s0.18403-0.41147,0.41145-0.41147h7.25713c0.52557,0,0.86148-0.19446,1.03185-0.45483
		c0.01166-0.02573,0.02612-0.05063,0.0434-0.07474c0.06108-0.11893,0.09082-0.24911,0.09082-0.3793
		c0-0.45166-0.36043-0.90811-1.16606-0.90811h-3.95825c-0.10929,0-0.21376-0.0434-0.29091-0.12054
		c-0.75742-0.75702-2.82353-2.51855-5.64706-2.51855h-3.5468V317.35123z M111.50542,319.27188h4.45529v-1.61447
		c0-0.00644,0-0.01288,0-0.01929v-8.1568h-4.45529V319.27188z M126.92857,309.48132c-2.41007,0-4.37051-1.96085-4.37051-4.37091
		s1.96043-4.37091,4.37051-4.37091c2.40926,0,4.3697,1.96085,4.3697,4.37091S129.33783,309.48132,126.92857,309.48132z
		 M126.92857,301.56241c-1.95602,0-3.5476,1.59198-3.5476,3.548s1.59158,3.548,3.5476,3.548
		c1.95562,0,3.54679-1.59198,3.54679-3.548S128.88419,301.56241,126.92857,301.56241z M126.92857,306.84222
		c-0.22742,0-0.41146-0.18402-0.41146-0.41144v-2.63992c0-0.22742,0.18404-0.41144,0.41146-0.41144s0.41145,0.18402,0.41145,0.41144
		v2.63992C127.34002,306.6582,127.15599,306.84222,126.92857,306.84222z M133.52591,300.24286
		c-2.40926,0-4.36971-1.96085-4.36971-4.37091s1.96045-4.37091,4.36971-4.37091c2.40967,0,4.37012,1.96085,4.37012,4.37091
		S135.93558,300.24286,133.52591,300.24286z M133.52591,292.32397c-1.95561,0-3.54678,1.59195-3.54678,3.54797
		s1.59117,3.548,3.54678,3.548c1.95602,0,3.5472-1.59198,3.5472-3.548S135.48193,292.32397,133.52591,292.32397z
		 M133.52591,297.60297c-0.22742,0-0.41145-0.18402-0.41145-0.41147v-2.6391c0-0.22742,0.18404-0.41144,0.41145-0.41144
		c0.22743,0,0.41145,0.18402,0.41145,0.41144v2.6391C133.93736,297.41895,133.75334,297.60297,133.52591,297.60297z"/>
</g>
<g>
	<path class="st0" d="M345.59299,323.75931h-4.87076c-0.22742,0-0.41147-0.18402-0.41147-0.41144v-8.02982
		c-2.71222-1.73181-4.26242-5.27179-4.26242-9.76083c0-0.22742,0.18405-0.41144,0.41147-0.41144h13.3952
		c0.22742,0,0.41144,0.18402,0.41144,0.41144c0,4.48746-1.55017,8.0274-4.26199,9.76083v8.02982
		C346.00446,323.57529,345.8204,323.75931,345.59299,323.75931z M341.13367,322.9364h4.04785v-7.84818
		c0-0.14548,0.07635-0.27966,0.20132-0.35361c2.49765-1.48349,3.96466-4.66504,4.05627-8.76593h-12.56345
		c0.09161,4.1033,1.55862,7.28406,4.0563,8.76593c0.12497,0.07394,0.20169,0.20813,0.20169,0.35361V322.9364z M343.1572,303.42764
		c-2.57681,0-4.67307-2.17944-4.67307-4.85791c0-2.67929,2.09625-4.85953,4.67307-4.85953s4.67349,2.18024,4.67349,4.85953
		C347.83069,301.2482,345.73401,303.42764,343.1572,303.42764z M343.1572,294.53311c-2.12317,0-3.85016,1.81058-3.85016,4.03662
		c0,2.22522,1.72699,4.03497,3.85016,4.03497s3.85056-1.80975,3.85056-4.03497
		C347.00775,296.34369,345.28036,294.53311,343.1572,294.53311z"/>
</g>
<g>
	<path class="st0" d="M355.29352,311.08615c-1.05072,0-2.07172-0.21777-3.03406-0.64609
		c-0.20734-0.09244-0.30096-0.33594-0.20816-0.54327c0.09244-0.20813,0.33511-0.30136,0.54324-0.20892
		c0.85626,0.38171,1.76437,0.57538,2.69897,0.57538c3.80154,0,6.89429-3.24261,6.89429-7.22858
		c0-1.55261-0.4697-2.9935-1.2673-4.17242l-5.15604,7.18198c-0.07153,0.09885-0.18323,0.16153-0.30539,0.17038
		c-0.11893,0.01205-0.24149-0.03778-0.32626-0.12616l-3.24142-3.38971c-0.1571-0.16473-0.15109-0.42511,0.01285-0.58182
		c0.16516-0.15671,0.42514-0.15027,0.58185,0.01288l2.89905,3.03125l5.01221-6.98108c-1.26208-1.45776-3.0827-2.3739-5.10382-2.3739
		c-1.63858,0-3.22736,0.61316-4.47336,1.72699c-0.16916,0.15027-0.42874,0.13663-0.58102-0.03296
		c-0.15109-0.16956-0.13663-0.42914,0.03296-0.58102c1.39709-1.24802,3.18033-1.93591,5.02142-1.93591
		c2.19992,0,4.18811,0.96594,5.59525,2.51212l2.59409-3.61389c0.1326-0.18402,0.38855-0.22662,0.57419-0.09402
		c0.18484,0.1326,0.22702,0.38977,0.09442,0.57458l-2.72348,3.79312c0.99289,1.35492,1.58276,3.04654,1.58276,4.87961
		C363.01074,307.47388,359.54871,311.08615,355.29352,311.08615z"/>
</g>
<g>
	<path class="st0" d="M79.22425,348.99954v-6.90878h1.52006v6.90878H79.22425z"/>
	<path class="st0" d="M88.14809,348.99954l-3.34549-4.39182v4.39182h-1.50037v-6.90878h1.40152l3.2374,4.2536v-4.2536h1.49996
		v6.90878H88.14809z"/>
	<path class="st0" d="M95.17056,349.11765c-2.03316,0-3.54317-1.56866-3.54317-3.5528v-0.01929
		c0-1.96408,1.48028-3.57294,3.60224-3.57294c1.30267,0,2.0826,0.43396,2.72388,1.06561l-0.96716,1.11545
		c-0.5328-0.4838-1.07565-0.77951-1.76637-0.77951c-1.16485,0-2.00383,0.96674-2.00383,2.15128v0.02011
		c0,1.18372,0.81929,2.17056,2.00383,2.17056c0.78957,0,1.27294-0.3158,1.81579-0.80923l0.96716,0.9772
		C97.29253,348.64432,96.50297,349.11765,95.17056,349.11765z"/>
	<path class="st0" d="M104.24467,348.99954l-1.48027-2.21078h-1.19419v2.21078h-1.52005v-6.90878h3.15824
		c1.62854,0,2.60575,0.8591,2.60575,2.27991v0.02008c0,1.11462-0.60232,1.8154-1.48068,2.14166l1.68801,2.46713H104.24467z
		 M104.27441,344.4494c0-0.65094-0.45404-0.98685-1.19418-0.98685h-1.51001v1.98416h1.53975
		c0.74014,0,1.16444-0.39459,1.16444-0.9772V344.4494z"/>
	<path class="st0" d="M108.01929,348.99954v-6.90878h5.2111v1.35251h-3.70109v1.40152h3.25709v1.35172h-3.25709v1.45053h3.75051
		v1.35251H108.01929z"/>
	<path class="st0" d="M120.60686,348.99954l-0.63165-1.54941h-2.92117l-0.63165,1.54941H114.873l2.96055-6.95779h1.40152
		l2.96095,6.95779H120.60686z M118.51463,343.86758l-0.91774,2.24051h1.83547L118.51463,343.86758z"/>
	<path class="st0" d="M126.55287,349.09836c-1.04592,0-2.10228-0.36563-2.93122-1.10577l0.89805-1.07526
		c0.62201,0.51273,1.27335,0.83899,2.0629,0.83899c0.6216,0,0.99689-0.2467,0.99689-0.65173v-0.02008
		c0-0.38495-0.23707-0.58185-1.39147-0.87836c-1.39188-0.35522-2.28992-0.74014-2.28992-2.11194v-0.01929
		c0-1.25366,1.00654-2.08301,2.4181-2.08301c1.00654,0,1.86521,0.31583,2.56597,0.87839l-0.78957,1.14514
		c-0.61195-0.42432-1.21387-0.68066-1.79609-0.68066c-0.58263,0-0.8884,0.26599-0.8884,0.60193v0.01929
		c0,0.45404,0.29613,0.6019,1.49032,0.90808c1.40151,0.36566,2.19108,0.86871,2.19108,2.07254v0.02011
		C129.08951,348.32849,128.0432,349.09836,126.55287,349.09836z"/>
	<path class="st0" d="M131.24522,348.99954v-6.90878h5.21111v1.35251h-3.7011v1.40152h3.2571v1.35172h-3.2571v1.45053h3.75052
		v1.35251H131.24522z"/>
	<path class="st0" d="M145.94672,346.24631v2.75323h-1.52005v-2.7243l-2.65477-4.18448h1.77641l1.64822,2.77332l1.67798-2.77332
		h1.72697L145.94672,346.24631z"/>
	<path class="st0" d="M153.73785,349.11765c-2.13161,0-3.66132-1.58875-3.66132-3.5528v-0.01929
		c0-1.96408,1.54939-3.57294,3.68141-3.57294c2.13161,0,3.6613,1.58878,3.6613,3.55283v0.02011
		C157.41925,347.50961,155.86987,349.11765,153.73785,349.11765z M155.83049,345.54556c0-1.18454-0.86871-2.17139-2.09264-2.17139
		c-1.22351,0-2.07254,0.96674-2.07254,2.15128v0.02011c0,1.18372,0.86871,2.17056,2.09264,2.17056
		c1.22351,0,2.07254-0.96674,2.07254-2.15128V345.54556z"/>
	<path class="st0" d="M162.48691,349.108c-1.85516,0-2.99028-1.03586-2.99028-3.06903v-3.94821h1.52005v3.90805
		c0,1.12585,0.56253,1.70767,1.49033,1.70767c0.92738,0,1.49031-0.56253,1.49031-1.65787v-3.95786h1.51965v3.89841
		C165.51697,348.08179,164.34247,349.108,162.48691,349.108z"/>
	<path class="st0" d="M172.09464,348.99954l-1.48029-2.21078h-1.19418v2.21078h-1.52005v-6.90878h3.15825
		c1.62854,0,2.60574,0.8591,2.60574,2.27991v0.02008c0,1.11462-0.60231,1.8154-1.48068,2.14166l1.68802,2.46713H172.09464z
		 M172.12436,344.4494c0-0.65094-0.45404-0.98685-1.19418-0.98685h-1.51001v1.98416h1.53975
		c0.74014,0,1.16444-0.39459,1.16444-0.9772V344.4494z"/>
	<path class="st0" d="M92.22929,360.84976v-6.90875h5.2111v1.35251H93.7393v1.40152h3.25709v1.35168H93.7393v1.45053h3.75051
		v1.35251H92.22929z"/>
	<path class="st0" d="M101.19492,355.32245v1.47061h3.29646v1.38223h-3.29646v2.67447h-1.52006v-6.90875h5.26052v1.38144H101.19492z
		"/>
	<path class="st0" d="M108.50268,355.32245v1.47061h3.29646v1.38223h-3.29646v2.67447h-1.52006v-6.90875h5.26052v1.38144H108.50268z
		"/>
	<path class="st0" d="M114.35909,360.84976v-6.90875h1.52006v6.90875H114.35909z"/>
	<path class="st0" d="M121.67487,360.9679c-2.03316,0-3.54317-1.56866-3.54317-3.55283v-0.01929
		c0-1.96405,1.48027-3.57291,3.60224-3.57291c1.30267,0,2.08259,0.43396,2.72388,1.06561l-0.96716,1.11542
		c-0.5328-0.48376-1.07565-0.77951-1.76637-0.77951c-1.16486,0-2.00384,0.96677-2.00384,2.15131v0.02008
		c0,1.18375,0.8193,2.17059,2.00384,2.17059c0.78956,0,1.27294-0.31583,1.81579-0.80923l0.96716,0.9772
		C123.79684,360.49457,123.00728,360.9679,121.67487,360.9679z"/>
	<path class="st0" d="M126.62359,360.84976v-6.90875h1.52006v6.90875H126.62359z"/>
	<path class="st0" d="M130.70158,360.84976v-6.90875h5.21109v1.35251h-3.70108v1.40152h3.25708v1.35168h-3.25708v1.45053h3.7505
		v1.35251H130.70158z"/>
	<path class="st0" d="M142.99341,360.84976l-3.34549-4.39182v4.39182h-1.50037v-6.90875h1.40152l3.2374,4.25357v-4.25357h1.49997
		v6.90875H142.99341z"/>
	<path class="st0" d="M150.01547,360.9679c-2.03317,0-3.54318-1.56866-3.54318-3.55283v-0.01929
		c0-1.96405,1.48027-3.57291,3.60225-3.57291c1.30267,0,2.08258,0.43396,2.72388,1.06561l-0.96716,1.11542
		c-0.53279-0.48376-1.07565-0.77951-1.76636-0.77951c-1.16486,0-2.00385,0.96677-2.00385,2.15131v0.02008
		c0,1.18375,0.81931,2.17059,2.00385,2.17059c0.78955,0,1.27293-0.31583,1.81578-0.80923l0.96716,0.9772
		C152.13744,360.49457,151.34789,360.9679,150.01547,360.9679z"/>
	<path class="st0" d="M158.3595,358.09656v2.7532h-1.52005v-2.72427l-2.65477-4.18448h1.7764l1.64824,2.77332l1.67796-2.77332
		h1.72699L158.3595,358.09656z"/>
</g>
<g>
	<path class="st0" d="M190.88376,274.49155v2.7532h-1.52005v-2.72427l-2.65477-4.18448h1.7764l1.64824,2.77332l1.67796-2.77332
		h1.72699L190.88376,274.49155z"/>
	<path class="st0" d="M198.67448,277.36288c-2.13161,0-3.6613-1.58875-3.6613-3.5528v-0.01929
		c0-1.96408,1.54938-3.57294,3.6814-3.57294c2.13161,0,3.6613,1.58878,3.6613,3.55283v0.02011
		C202.35588,275.75485,200.8065,277.36288,198.67448,277.36288z M200.76712,273.7908c0-1.18454-0.86871-2.17142-2.09264-2.17142
		c-1.22351,0-2.07254,0.96677-2.07254,2.15131v0.02011c0,1.18372,0.86871,2.17056,2.09264,2.17056
		c1.22351,0,2.07254-0.96674,2.07254-2.15128V273.7908z"/>
	<path class="st0" d="M207.42435,277.35324c-1.85558,0-2.99069-1.03586-2.99069-3.06903V270.336h1.52005v3.90802
		c0,1.12589,0.56255,1.7077,1.49033,1.7077s1.49033-0.56253,1.49033-1.65787V270.336h1.51965v3.89838
		C210.45401,276.32703,209.27951,277.35324,207.42435,277.35324z"/>
	<path class="st0" d="M217.03127,277.24475l-1.48027-2.21075h-1.1942v2.21075h-1.52005V270.336h3.15825
		c1.62854,0,2.60574,0.8591,2.60574,2.27991v0.02008c0,1.11462-0.60231,1.81537-1.48067,2.14166l1.688,2.4671H217.03127z
		 M217.061,272.69464c0-0.65094-0.45406-0.98685-1.1942-0.98685h-1.51001v1.98416h1.53975
		c0.74014,0,1.16446-0.39459,1.16446-0.97723V272.69464z"/>
	<path class="st0" d="M227.29193,277.24475h-2.69455V270.336h2.69455c2.17139,0,3.67136,1.49072,3.67136,3.43469v0.02011
		C230.96329,275.73474,229.46332,277.24475,227.29193,277.24475z M229.37453,273.7908c0-1.22394-0.83899-2.08301-2.0826-2.08301
		h-1.1745v4.16519h1.1745c1.24361,0,2.0826-0.83899,2.0826-2.0629V273.7908z"/>
	<path class="st0" d="M233.14874,277.24475V270.336h5.21111v1.35251h-3.7011v1.40152h3.25708v1.35168h-3.25708v1.45056h3.7505
		v1.35248H233.14874z"/>
	<path class="st0" d="M243.28928,277.24475h-2.69456V270.336h2.69456c2.17139,0,3.67134,1.49072,3.67134,3.43469v0.02011
		C246.96062,275.73474,245.46066,277.24475,243.28928,277.24475z M245.37146,273.7908c0-1.22394-0.83858-2.08301-2.08218-2.08301
		h-1.1745v4.16519h1.1745c1.24361,0,2.08218-0.83899,2.08218-2.0629V273.7908z"/>
	<path class="st0" d="M249.21519,277.24475V270.336h1.52005v6.90875H249.21519z"/>
	<path class="st0" d="M256.53098,277.36288c-2.03316,0-3.54317-1.56866-3.54317-3.5528v-0.01929
		c0-1.96408,1.48027-3.57294,3.60225-3.57294c1.30267,0,2.08258,0.43396,2.72388,1.06561l-0.96716,1.11545
		c-0.53281-0.4838-1.07565-0.77954-1.76636-0.77954c-1.16487,0-2.00385,0.96677-2.00385,2.15131v0.02011
		c0,1.18372,0.81929,2.17056,2.00385,2.17056c0.78955,0,1.27292-0.31583,1.81577-0.80923l0.96716,0.9772
		C258.65295,276.88956,257.86337,277.36288,256.53098,277.36288z"/>
	<path class="st0" d="M266.55298,277.24475l-0.63165-1.54938h-2.92117l-0.63165,1.54938h-1.54977l2.96094-6.95776h1.40152
		l2.96097,6.95776H266.55298z M264.46072,272.11282l-0.91772,2.24051h1.83548L264.46072,272.11282z"/>
	<path class="st0" d="M273.17041,271.73752v5.50723h-1.52005v-5.50723h-2.10229V270.336h5.72421v1.40152H273.17041z"/>
	<path class="st0" d="M277.27011,277.24475V270.336h5.21109v1.35251h-3.70108v1.40152h3.25708v1.35168h-3.25708v1.45056h3.75049
		v1.35248H277.27011z"/>
	<path class="st0" d="M287.41022,277.24475h-2.69455V270.336h2.69455c2.17139,0,3.67136,1.49072,3.67136,3.43469v0.02011
		C291.08157,275.73474,289.5816,277.24475,287.41022,277.24475z M289.49283,273.7908c0-1.22394-0.83899-2.08301-2.08261-2.08301
		h-1.1745v4.16519h1.1745c1.24362,0,2.08261-0.83899,2.08261-2.0629V273.7908z"/>
	<path class="st0" d="M192.91411,283.56769v1.47061h3.29646v1.38223h-3.29646v2.67447h-1.52005v-6.90875h5.26053v1.38144H192.91411z
		"/>
	<path class="st0" d="M202.05695,289.21313c-2.13162,0-3.66132-1.58878-3.66132-3.55283v-0.01929
		c0-1.96405,1.54939-3.57291,3.6814-3.57291c2.13162,0,3.66132,1.58878,3.66132,3.55283v0.02008
		C205.73834,287.60507,204.18895,289.21313,202.05695,289.21313z M204.14958,285.64102c0-1.18454-0.86873-2.17139-2.09264-2.17139
		c-1.22353,0-2.07256,0.96677-2.07256,2.15131v0.02008c0,1.18375,0.86873,2.17059,2.09264,2.17059
		c1.22353,0,2.07256-0.96677,2.07256-2.15131V285.64102z"/>
	<path class="st0" d="M212.11911,289.095l-1.48027-2.21078h-1.19418v2.21078h-1.52005v-6.90875h3.15823
		c1.62854,0,2.60574,0.85907,2.60574,2.27988v0.02008c0,1.11462-0.60231,1.8154-1.48067,2.14166l1.688,2.46713H212.11911z
		 M212.14885,284.54489c0-0.65094-0.45406-0.98685-1.19418-0.98685h-1.51001v1.98413h1.53973
		c0.74014,0,1.16446-0.39456,1.16446-0.9772V284.54489z"/>
	<path class="st0" d="M219.02225,283.58777v5.50723h-1.52007v-5.50723h-2.10228v-1.40152h5.72421v1.40152H219.02225z"/>
	<path class="st0" d="M223.19104,289.095v-6.90875h1.52005v6.90875H223.19104z"/>
	<path class="st0" d="M229.72691,289.19385c-1.04591,0-2.10188-0.36566-2.93121-1.10577l0.89804-1.07526
		c0.62201,0.5127,1.27335,0.83899,2.06291,0.83899c0.6216,0,0.99689-0.24673,0.99689-0.65176v-0.02008
		c0-0.38492-0.23706-0.58182-1.39188-0.87836c-1.39148-0.35519-2.28952-0.74014-2.28952-2.11194v-0.01929
		c0-1.25363,1.00653-2.08298,2.41811-2.08298c1.00653,0,1.8652,0.31583,2.56596,0.87836l-0.78955,1.14517
		c-0.61197-0.42432-1.21388-0.68066-1.79611-0.68066c-0.58221,0-0.8884,0.26599-0.8884,0.6019v0.01929
		c0,0.45404,0.29613,0.60193,1.49031,0.90811c1.40152,0.36563,2.19109,0.86871,2.19109,2.07254v0.02008
		C232.26355,288.42398,231.21724,289.19385,229.72691,289.19385z"/>
	<path class="st0" d="M240.88603,287.02246h-1.1548v2.07254h-1.52007v-6.90875h2.82274c1.64822,0,2.64513,0.9772,2.64513,2.38837
		v0.02008C243.67903,286.19312,242.43542,287.02246,240.88603,287.02246z M242.13928,284.60434
		c0-0.68066-0.47374-1.0463-1.23357-1.0463h-1.17448v2.11191h1.20422c0.75983,0,1.20383-0.45404,1.20383-1.0455V284.60434z"/>
	<path class="st0" d="M249.83157,289.095l-1.48029-2.21078h-1.19418v2.21078h-1.52005v-6.90875h3.15825
		c1.62854,0,2.60574,0.85907,2.60574,2.27988v0.02008c0,1.11462-0.60231,1.8154-1.48068,2.14166l1.68802,2.46713H249.83157z
		 M249.8613,284.54489c0-0.65094-0.45404-0.98685-1.19418-0.98685h-1.51001v1.98413h1.53975
		c0.74014,0,1.16444-0.39456,1.16444-0.9772V284.54489z"/>
	<path class="st0" d="M253.6749,289.095v-6.90875h1.52007v6.90875H253.6749z"/>
	<path class="st0" d="M261.29648,289.14401h-1.34207l-2.793-6.95776h1.67758l1.80615,4.86594l1.80612-4.86594h1.63821
		L261.29648,289.14401z"/>
	<path class="st0" d="M271.13083,289.095l-0.63165-1.54938H267.578l-0.63165,1.54938h-1.54938l2.96054-6.95776h1.40152
		l2.96094,6.95776H271.13083z M269.03857,283.96307l-0.91772,2.24048h1.83548L269.03857,283.96307z"/>
	<path class="st0" d="M277.74866,283.58777v5.50723h-1.52005v-5.50723h-2.10229v-1.40152h5.72421v1.40152H277.74866z"/>
	<path class="st0" d="M281.84793,289.095v-6.90875h5.21112v1.35251h-3.70111v1.40152h3.25711v1.35168h-3.25711v1.45053h3.75052
		v1.35251H281.84793z"/>
	<path class="st0" d="M219.29387,300.94443h-3.28682v-6.90875h3.20766c1.41158,0,2.27988,0.70078,2.27988,1.78647v0.02008
		c0,0.77951-0.41466,1.21347-0.90808,1.48993c0.79961,0.30618,1.29303,0.76987,1.29303,1.69724v0.02011
		C221.87953,300.31277,220.85289,300.94443,219.29387,300.94443z M219.98459,296.07849c0-0.45404-0.35521-0.71042-0.9969-0.71042
		h-1.49997v1.461h1.40112c0.67143,0,1.09575-0.21698,1.09575-0.7305V296.07849z M220.36952,298.84216
		c0-0.46371-0.34557-0.74979-1.12508-0.74979h-1.75673v1.51965h1.80615c0.67102,0,1.07565-0.23706,1.07565-0.74979V298.84216z"/>
	<path class="st0" d="M229.10773,300.94443l-0.63165-1.54938h-2.92117l-0.63165,1.54938h-1.54938l2.96054-6.95776h1.40152
		l2.96095,6.95776H229.10773z M227.01549,295.8125l-0.91774,2.24051h1.83548L227.01549,295.8125z"/>
	<path class="st0" d="M237.4425,300.94443l-3.34549-4.39178v4.39178h-1.50037v-6.90875h1.40152l3.2374,4.25357v-4.25357h1.49997
		v6.90875H237.4425z"/>
	<path class="st0" d="M245.68808,300.94443l-2.14165-2.94125l-0.79921,0.82935v2.11191h-1.52005v-6.90875h1.52005v3.02002
		l2.80304-3.02002h1.83548l-2.81268,2.93161l2.94127,3.97714H245.68808z"/>
	<path class="st0" d="M249.26541,300.94443v-6.90875h5.21111v1.35251h-3.7011v1.40152h3.2571v1.35168h-3.2571v1.45053h3.75052
		v1.35251H249.26541z"/>
	<path class="st0" d="M260.90552,300.94443l-1.48029-2.21075h-1.19418v2.21075H256.711v-6.90875h3.15823
		c1.62854,0,2.60574,0.85907,2.60574,2.27988v0.02011c0,1.11462-0.60229,1.81537-1.48068,2.14163l1.68802,2.46713H260.90552z
		 M260.93524,296.39432c0-0.65094-0.45404-0.98685-1.19418-0.98685h-1.51001v1.98413h1.53973
		c0.74014,0,1.16446-0.39539,1.16446-0.9772V296.39432z"/>
</g>
<g>
	<path class="st0" d="M314.61328,348.99954l-0.63165-1.54941h-2.92117l-0.63162,1.54941h-1.5498l2.96097-6.95779h1.40152
		l2.96094,6.95779H314.61328z M312.52106,343.86758l-0.91776,2.24051h1.83548L312.52106,343.86758z"/>
	<path class="st0" d="M321.23074,343.49228v5.50726h-1.52008v-5.50726h-2.10226v-1.40152h5.72421v1.40152H321.23074z"/>
	<path class="st0" d="M328.45932,343.49228v5.50726h-1.52005v-5.50726h-2.10226v-1.40152h5.72421v1.40152H328.45932z"/>
	<path class="st0" d="M336.75311,348.99954l-1.48026-2.21078h-1.19418v2.21078h-1.52005v-6.90878h3.15823
		c1.62854,0,2.60574,0.8591,2.60574,2.27991v0.02008c0,1.11462-0.60233,1.8154-1.48068,2.14166l1.68802,2.46713H336.75311z
		 M336.78287,344.4494c0-0.65094-0.45407-0.98685-1.19418-0.98685h-1.51001v1.98416h1.53973
		c0.74014,0,1.16446-0.39459,1.16446-0.9772V344.4494z"/>
	<path class="st0" d="M345.66974,348.99954l-0.63165-1.54941h-2.92117l-0.63165,1.54941h-1.54938l2.96054-6.95779h1.40152
		l2.96097,6.95779H345.66974z M343.57748,343.86758l-0.91772,2.24051h1.83548L343.57748,343.86758z"/>
	<path class="st0" d="M352.39566,349.11765c-2.03317,0-3.54318-1.56866-3.54318-3.5528v-0.01929
		c0-1.96408,1.48029-3.57294,3.60226-3.57294c1.30267,0,2.08258,0.43396,2.72388,1.06561l-0.96716,1.11545
		c-0.53281-0.4838-1.07565-0.77951-1.76636-0.77951c-1.16486,0-2.00385,0.96674-2.00385,2.15128v0.02011
		c0,1.18372,0.81927,2.17056,2.00385,2.17056c0.78955,0,1.27292-0.3158,1.81577-0.80923l0.96716,0.9772
		C354.51764,348.64432,353.72806,349.11765,352.39566,349.11765z"/>
	<path class="st0" d="M360.40417,343.49228v5.50726h-1.52005v-5.50726h-2.10229v-1.40152h5.72421v1.40152H360.40417z"/>
	<path class="st0" d="M373.43774,348.99954l-0.63165-1.54941h-2.92117l-0.63165,1.54941h-1.54977l2.96094-6.95779h1.40152
		l2.96097,6.95779H373.43774z M371.34552,343.86758l-0.91776,2.24051h1.83548L371.34552,343.86758z"/>
	<path class="st0" d="M381.77213,348.99954l-3.34549-4.39182v4.39182h-1.50037v-6.90878h1.40152l3.2374,4.2536v-4.2536h1.49997
		v6.90878H381.77213z"/>
	<path class="st0" d="M388.25174,348.99954h-2.69455v-6.90878h2.69455c2.17139,0,3.67136,1.49072,3.67136,3.43469v0.02011
		C391.9231,347.48953,390.42313,348.99954,388.25174,348.99954z M390.33435,345.54556c0-1.22394-0.83899-2.08301-2.08261-2.08301
		h-1.1745v4.16519h1.1745c1.24362,0,2.08261-0.83899,2.08261-2.0629V345.54556z"/>
	<path class="st0" d="M309.00961,360.84976l-1.48026-2.21075h-1.19418v2.21075h-1.52008v-6.90875h3.15826
		c1.62854,0,2.60574,0.85907,2.60574,2.27988v0.02008c0,1.11465-0.60233,1.8154-1.48068,2.14166l1.68802,2.46713H309.00961z
		 M309.03937,356.29965c0-0.65094-0.45407-0.98685-1.19418-0.98685h-1.51001v1.98413h1.53973
		c0.74014,0,1.16446-0.39456,1.16446-0.9772V356.29965z"/>
	<path class="st0" d="M312.78384,360.84976v-6.90875h5.21109v1.35251h-3.70108v1.40152h3.25708v1.35168h-3.25708v1.45053h3.75052
		v1.35251H312.78384z"/>
	<path class="st0" d="M323.35873,355.34253v5.50723h-1.52005v-5.50723h-2.10229v-1.40152h5.72421v1.40152H323.35873z"/>
	<path class="st0" d="M332.60001,360.84976l-0.63165-1.54938h-2.92117l-0.63165,1.54938h-1.54977l2.96094-6.95776h1.40152
		l2.96094,6.95776H332.60001z M330.50775,355.71783l-0.91772,2.24048h1.83548L330.50775,355.71783z"/>
	<path class="st0" d="M336.15805,360.84976v-6.90875h1.52005v6.90875H336.15805z"/>
	<path class="st0" d="M345.08188,360.84976l-3.34549-4.39182v4.39182h-1.50037v-6.90875h1.40152l3.2374,4.25357v-4.25357h1.49997
		v6.90875H345.08188z"/>
	<path class="st0" d="M355.78775,355.34253v5.50723h-1.52005v-5.50723h-2.10226v-1.40152h5.72421v1.40152H355.78775z"/>
	<path class="st0" d="M365.02902,360.84976l-0.63165-1.54938h-2.92117l-0.63162,1.54938h-1.54941l2.96057-6.95776h1.40152
		l2.96094,6.95776H365.02902z M362.9368,355.71783l-0.91776,2.24048h1.83548L362.9368,355.71783z"/>
	<path class="st0" d="M368.51755,360.84976v-6.90875h1.52008v5.52731h3.44431v1.38144H368.51755z"/>
	<path class="st0" d="M375.45966,360.84976v-6.90875h5.21112v1.35251h-3.70111v1.40152h3.25708v1.35168h-3.25708v1.45053h3.75052
		v1.35251H375.45966z"/>
	<path class="st0" d="M387.7511,360.84976l-3.34549-4.39182v4.39182h-1.50037v-6.90875h1.40152l3.2374,4.25357v-4.25357h1.49997
		v6.90875H387.7511z"/>
	<path class="st0" d="M394.66507,355.34253v5.50723h-1.52005v-5.50723h-2.10229v-1.40152h5.72421v1.40152H394.66507z"/>
</g>
</svg>
