<?xml version="1.0" encoding="utf-8"?>
<!-- Generator: Adobe Illustrator 23.0.3, SVG Export Plug-In . SVG Version: 6.00 Build 0)  -->
<svg version="1.1" id="Layer_1" xmlns="http://www.w3.org/2000/svg" xmlns:xlink="http://www.w3.org/1999/xlink" x="0px" y="0px"
	 width="360px" height="43.94579px" viewBox="0 0 360 43.94579" style="enable-background:new 0 0 360 43.94579;"
	 xml:space="preserve">
<style type="text/css">
	.st0{clip-path:url(#SVGID_2_);}
	.st1{fill:#0F4C8B;}
	.st2{fill:#E17025;}
	.st3{fill-rule:evenodd;clip-rule:evenodd;fill:#194D80;}
</style>
<title>Asset 5</title>
<g>
	<g id="Layer_1-2">
		<g>
			<defs>
				<rect id="SVGID_1_" width="360" height="43.94579"/>
			</defs>
			<clipPath id="SVGID_2_">
				<use xlink:href="#SVGID_1_"  style="overflow:visible;"/>
			</clipPath>
			<g class="st0">
				<path class="st1" d="M29.9247,9.03615c-1.18636,0.28424-2.3064,0.79568-3.29819,1.50602
					c1.16253,1.06418,2.14423,2.31037,2.90663,3.68976c2.59036-0.52711,3.28313,0.09036,3.5994-0.19578
					c1.31991-1.3054,1.93086-3.16628,1.64157-5c-1.18932-1.7755-2.64166-3.35986-4.30723-4.6988c0,0,0,0.13554,0,0.2259
					c0.25603,1.97289-0.78313,3.46385-0.57229,4.51807"/>
				<path class="st1" d="M34.02108,16.44578c-1.14787-0.25047-2.33158-0.29129-3.49397-0.12048
					c0.58187,1.50016,0.96661,3.06949,1.14458,4.66867c2.3494,0.64759,2.69578,1.50603,3.10241,1.31024
					c1.78904-0.61254,3.16282-2.06514,3.6747-3.88554c-0.34845-2.07925-0.96609-4.1043-1.83735-6.0241
					c-0.04536,0.09824-0.08558,0.19878-0.12048,0.3012c-0.61747,1.89759-2.1988,2.77108-2.46988,3.79518"/>
				<path class="st1" d="M38.75,21.71687c-0.1592,0.11092-0.29273,0.25472-0.39157,0.42169
					c-1.15964,1.62651-2.93675,2.00301-3.49397,2.90663c-0.93352-0.53968-1.95208-0.91655-3.01205-1.11446
					c-0.07415,1.58911-0.34737,3.16264-0.81325,4.68373c2.28916,1.38554,2.36446,2.31928,2.8012,2.31928
					c1.57525-0.02633,3.06485-0.72184,4.09639-1.91265c0.56013-2.1028,0.84364-4.26966,0.84337-6.44578
					c0-0.25603,0-0.52711,0-0.78313"/>
				<path class="st1" d="M30.12048,30.93374c-0.66045,1.46773-1.54444,2.8242-2.62048,4.02109
					c1.15964,2.12349,0.82831,2.92169,1.18976,3.11747c1.25908,0.66501,2.72539,0.82134,4.09639,0.43675
					c1.5504-1.72708,2.82541-3.68276,3.78012-5.79819c-1.70181,0.69277-3.31326,0.25602-4.18675,0.75301
					C31.78486,32.49144,31.01958,31.63433,30.12048,30.93374"/>
				<path class="st1" d="M8.85542,9.03615c1.18359,0.29225,2.30217,0.80302,3.29819,1.50602
					c-1.16564,1.05553-2.14788,2.29732-2.90663,3.6747c-2.59036-0.52711-3.22289,0.09036-3.5994-0.21084
					c-1.31925-1.29334-1.93093-3.14521-1.64157-4.96988C5.19796,7.2583,6.64986,5.66933,8.31325,4.32229c0,0,0,0.1506,0,0.2259
					C8.05723,6.53615,9.09639,8.01205,8.88554,9.06627"/>
				<path class="st1" d="M4.75904,16.46084c1.14775-0.25147,2.33163-0.29229,3.49398-0.12048
					c-0.58884,1.49275-0.97383,3.05804-1.14458,4.65361c-2.3494,0.64759-2.69578,1.50603-3.10241,1.3253
					c-1.79342-0.60571-3.16988-2.06115-3.6747-3.88554c0.3433-2.07863,0.95588-4.1037,1.82229-6.0241
					c0.05447,0.0887,0.0951,0.18519,0.12048,0.28614C2.90663,14.54819,4.51807,15.43675,4.75904,16.46084"/>
				<path class="st1" d="M0,21.71687c0.16184,0.11259,0.29999,0.25586,0.40663,0.42169
					c1.15964,1.64157,3.01205,2.00301,3.49398,2.90663c0.95669-0.54775,2.00138-0.92486,3.08735-1.11446
					c0.04967,1.58591,0.29758,3.15938,0.73795,4.68373c-2.2741,1.4006-2.3494,2.33434-2.78614,2.31928
					c-1.58762-0.02969-3.08339-0.75008-4.09639-1.97289C0.29068,26.88221,0.00724,24.74121,0,22.59036
					c0-0.27109,0-0.52711,0-0.79819"/>
				<path class="st1" d="M8.61446,30.9488c0.67129,1.46528,1.5598,2.82089,2.63554,4.02108
					c-1.15964,2.10843-0.82831,2.92169-1.20482,3.11747c-1.23631,0.65226-2.67635,0.80328-4.02108,0.42169
					c-1.55625-1.72258-2.83188-3.67923-3.78012-5.79819c1.68675,0.70783,3.29819,0.27109,4.18675,0.76807
					c0.59175-0.96999,1.35162-1.82675,2.24398-2.53012"/>
				<path class="st2" d="M22.98193,8.47892l2.5-6.97289H23.9759c-1.11446,0-3.17771,3.28313-3.17771,3.28313h-0.28614V3.70482
					c0.34494-0.42675,0.53595-0.95733,0.54217-1.50602C21.21636,1.14664,20.49492,0.16224,19.44277,0
					c-0.90362,0-1.58133,0.9488-1.58133,2.12349c-0.00983,0.53907,0.15384,1.06704,0.46687,1.50602v1.0994h-0.36144
					c0,0-1.77711-3.22289-2.90663-3.22289c-0.67771,0-1.50602,0-1.50602,0L16.0994,8.4488
					c1.07895-0.37974,2.21461-0.57326,3.35843-0.57229c1.21736,0.00318,2.42496,0.21719,3.56928,0.63253"/>
				<path class="st1" d="M11.31024,6.46084c-0.04155-0.63077,0.4361-1.17579,1.06687-1.21734
					c0.63077-0.04155,1.17579,0.4361,1.21733,1.06687c0.04155,0.63077-0.4361,1.17579-1.06687,1.21733
					c-0.02923,0.00193-0.05852,0.00273-0.08782,0.00241c-0.62042-0.00811-1.12141-0.50909-1.12952-1.12952"/>
				<path class="st1" d="M25.37651,6.46084c0.00824-0.62624,0.51828-1.12957,1.14458-1.12952
					c0.62798,0.07239,1.07837,0.64015,1.00597,1.26812c-0.0609,0.52831-0.47766,0.94507-1.00597,1.00597
					C25.88895,7.60542,25.37651,7.09298,25.37651,6.46084L25.37651,6.46084"/>
				<path class="st1" d="M26.15964,39.27711c-0.02093-0.90696-0.17832-1.80558-0.46687-2.66566
					c-1.32923,1.01084-2.87646,1.69678-4.51807,2.00301c-0.03971,0.74381-0.1816,1.47862-0.42169,2.18374h-0.70783
					c-0.09036-0.48193-0.34638-0.82831-0.64759-0.82831s-0.57229,0.34638-0.66265,0.82831h-0.66265
					c-0.24009-0.70512-0.38198-1.43993-0.42169-2.18374c-1.63996-0.30281-3.18685-0.98344-4.51807-1.98795
					c-0.27924,0.86242-0.43639,1.75968-0.46687,2.66566c-1.03916,0-2.28916,1.29518-4.24699,1.50602
					c1.79412,1.42996,3.83619,2.51736,6.0241,3.20783c1.44132-0.25231,2.72438-1.06437,3.56928-2.25904h0.79819
					c0.10542,0.45181,0.36144,0.76807,0.66265,0.76807s0.54217-0.31627,0.64759-0.76807h0.79819
					c0.8475,1.1821,2.12256,1.98712,3.55422,2.24398c2.18787-0.68334,4.23032-1.76584,6.0241-3.19277
					c-1.97289-0.16566-3.20783-1.50602-4.26205-1.50602"/>
				<path class="st1" d="M51.77711,26.38554v2.53012c0,1.35542,0,2.28916,1.37048,2.54518v1.15964h-7.01808v-1.15964
					c1.38554-0.25602,1.38554-1.18976,1.38554-2.54518V13.94578c0-1.35542,0-2.28916-1.38554-2.54518v-1.15964h10.28615
					c5.45181,0,7.89156,2.89157,7.89156,6.43072c0,5.54217-5.16566,7.4247-9.59337,8.81024L51.77711,26.38554z M51.77711,23.71988
					c3.01205-1.0994,8.01205-2.75603,8.01205-6.61145c0-2.75602-2.27409-4.17169-4.78915-4.17169h-3.22289V23.71988z"/>
				<path class="st1" d="M83.64458,29.98494c0.35735,0.79345,1.08529,1.35773,1.94277,1.50603v1.15964H80.0753l-5.73795-9.65361
					h-3.34337v5.91867c0,1.35542,0,2.28916,1.37048,2.54518v1.15964h-7.01807v-1.15964
					c1.38554-0.25602,1.38554-1.18976,1.38554-2.54518V13.94578c0-1.35542,0-2.28916-1.38554-2.54518v-1.15964h11.25
					c3.76506,0,7.30421,1.94277,7.30421,6.0241c0.03956,2.97943-2.10505,5.54016-5.04518,6.0241L83.64458,29.98494z
					 M74.90965,20.27109c2.37952,0,4.72891-0.84337,4.72891-3.56928c0-2.7259-2.5-3.68976-4.9247-3.76506h-3.71988v7.33434H74.90965
					z"/>
				<path class="st1" d="M85.27109,21.43072C85.19131,15.0683,90.28441,9.84588,96.64683,9.7661
					c0.19909-0.0025,0.3982,0.00017,0.59715,0.00799c6.26643-0.25015,11.54916,4.62701,11.79932,10.89345
					c0.00815,0.20408,0.01079,0.40835,0.00792,0.61257c0.29156,6.25632-4.54384,11.56442-10.80016,11.85598
					c-0.37568,0.01751-0.75201,0.01632-1.12756-0.00357c-6.19525,0.34576-11.49778-4.39618-11.84354-10.59143
					c-0.0198-0.35472-0.02275-0.71019-0.00887-1.0652 M104.54819,21.26506c0-4.51807-2.45482-8.55422-7.2741-8.55422
					c-5.16566,0-7.53012,4.12651-7.53012,8.85542s2.3494,8.68976,7.36446,8.68976c5.01506,0,7.39458-4.32229,7.39458-9.03614"/>
				<path class="st1" d="M114.59337,24.21687l0.96386,0.9488c-0.43845,0.43092-0.69684,1.0123-0.7229,1.6265
					c0,2.43976,3.13254,3.41868,5.07531,3.41868c2.22892,0,5.33132-1.0994,5.33132-3.76506
					c0-5.91868-14.09638-1.74699-14.09638-10.21085c0-4.80422,4.75904-6.46084,8.79518-6.46084
					c3.58234-0.15235,7.02071,1.42124,9.24699,4.23193l-3.56928,3.13253l-1.06927-0.72289
					c0.19058-0.27371,0.29065-0.60024,0.28615-0.93374c0-2.22891-3.16265-2.81626-4.89458-2.81626
					c-1.73193,0-4.51807,0.37651-4.51807,2.6506c0,4.7741,14.3524,1.38554,14.3524,10.43675
					c0,5.21084-5.18073,7.33434-9.68373,7.33434c-4.98494,0-7.53012-1.77711-10.09035-5.76807L114.59337,24.21687z"/>
				<path class="st1" d="M138.05724,26.38554v2.53012c0,1.35542,0,2.28916,1.38553,2.54518v1.15964h-7.01807v-1.15964
					c1.3705-0.25602,1.3705-1.18976,1.3705-2.54518V13.94578c0-1.35542,0-2.28916-1.3705-2.54518v-1.15964h10.27109
					c5.45181,0,7.89157,2.89157,7.89157,6.43072c0,5.54217-5.16566,7.4247-9.57832,8.81024L138.05724,26.38554z M138.05724,23.71988
					c3.01204-1.0994,8.0271-2.75603,8.0271-6.61145c0-2.75602-2.28914-4.17169-4.78915-4.17169h-3.23795V23.71988z"/>
				<path class="st1" d="M151.64157,31.46084c1.37048-0.25603,1.37048-1.18976,1.37048-2.54518V13.94578
					c0-1.35542,0-2.28916-1.37048-2.54518v-1.15964h17.28915v4.51807h-1.50603c-0.40662-1.79217-0.90361-1.85241-2.56023-1.82229
					h-7.53012v5.76807h5.48192c1.18976,0,2.22893-0.1506,2.39458-1.50603h1.50603v5.82831h-1.50603
					c-0.16566-1.41566-1.20483-1.50602-2.39458-1.50602h-5.48192v8.5241h8.28313c1.50603,0,2.37952-0.40663,2.6506-2.03313h1.50603
					v4.72891h-18.0723L151.64157,31.46084z"/>
				<path class="st1" d="M190.85844,29.98494c0.35736,0.79345,1.0853,1.35773,1.94278,1.50603v1.15964h-5.51205l-5.7229-9.65361
					h-3.35844v5.91867c0,1.35542,0,2.28916,1.37048,2.54518v1.15964h-7.01807v-1.15964
					c1.38554-0.25602,1.38554-1.18976,1.38554-2.54518V13.94578c0-1.35542,0-2.28916-1.38554-2.54518v-1.15964h11.25002
					c3.76506,0,7.30421,1.94277,7.30421,6.0241c0.03955,2.97943-2.10506,5.54016-5.04518,6.0241L190.85844,29.98494z
					 M182.1235,20.27109c2.37952,0,4.72891-0.84337,4.72891-3.56928c0-2.7259-2.50002-3.68976-4.90964-3.76506h-3.73495v7.33434
					H182.1235z"/>
				<path class="st1" d="M200.67772,28.91566c0,1.35542,0,2.28916,1.37048,2.54518v1.15964h-7.01808v-1.15964
					c1.38554-0.25602,1.38554-1.18976,1.38554-2.54518V13.94578c0-1.35542,0-2.28916-1.38554-2.54518v-1.15964h7.01808v1.15964
					c-1.37048,0.25602-1.37048,1.18976-1.37048,2.54518V28.91566z"/>
				<path class="st1" d="M223.53915,10.24096v4.63855h-1.50603c-0.21085-1.74699-0.93373-1.94277-2.3494-1.94277h-3.34337v15.97892
					c0,1.35542,0,2.28916,1.37048,2.54518v1.15964h-7.01808v-1.15964c1.38554-0.25602,1.38554-1.18976,1.38554-2.54518V12.93675
					h-3.35843c-1.41566,0-2.1235,0.19578-2.3494,1.94277h-1.50603v-4.63855H223.53915z"/>
				<path class="st1" d="M227.71085,13.91566c-0.43674-0.81325-1.15965-2.37952-2.13855-2.51506v-1.15964h7.15361v1.15964
					c-0.94881,0-1.0994,0.75301-0.6024,1.70181l3.7952,7.39458l3.53914-6.58133c0.49699-0.97892,1.06929-2.40964-0.66266-2.51506
					v-1.15964h6.46083v1.15964c-1.18974,0.28614-1.50601,1.03916-2.03314,2.00301l-5.61746,10.54217v4.96988
					c0,1.35542,0,2.28916,1.38554,2.54518v1.15964h-7.06323v-1.15964c1.37048-0.25602,1.37048-1.18976,1.37048-2.54518v-5.04518
					L227.71085,13.91566z"/>
				<path class="st1" d="M262.57532,31.29518c1.37048-0.25603,1.37048-1.18976,1.37048-2.54518V13.78012
					c0-1.35542,0-2.28916-1.37048-2.54518V10.0753h12.1235c3.01141-0.21741,5.62894,2.04758,5.84634,5.05901
					c0.0058,0.08063,0.00986,0.16138,0.01208,0.24219c-0.09094,2.34046-1.72809,4.33454-4.00604,4.87952l0,0
					c3.03503,0.27836,5.36563,2.81077,5.39157,5.85843c0,4.36747-3.76505,6.28012-7.71082,6.28012h-11.65665V31.29518z
					 M272.34943,18.91566c2.16867,0,3.94577-0.63253,3.94577-3.10241c0-2.22892-1.74698-3.01205-3.65964-3.01205h-4.4277v6.14458
					L272.34943,18.91566z M272.72592,29.75904c2.51508,0,4.9548-1.00904,4.9548-3.85542c0-3.13253-2.57529-4.29217-5.36142-4.29217
					h-4.11145v8.14759H272.72592z"/>
				<path class="st1" d="M303.5994,29.65362c0.31628,0.82831,0.5723,1.50602,1.50604,1.64157v1.15964h-7.33435v-1.15964
					c1.59637-0.25603,1.43073-1.03916,0.90363-2.31928l-1.91266-4.66867h-7.60541l-1.74701,4.66867
					c-0.49698,1.28012-0.46686,1.94277,0.96387,2.31928v1.15964h-6.14459v-1.15964c1.15964,0,1.50601-1.41566,1.91266-2.28916
					l7.24399-18.93072h4.51807L303.5994,29.65362z M295.81326,21.61145l-3.01205-7.4247l-2.81625,7.4247H295.81326z"/>
				<path class="st1" d="M311.74701,14.42771V28.75c0,1.35542,0,2.28916,1.37048,2.54518v1.15964h-5.88858v-1.15964
					c1.38556-0.25603,1.38556-1.18976,1.38556-2.54518V13.78012c0-1.35542,0-2.28916-1.38556-2.54518V10.0753h6.4006
					l9.80423,9.96988v-6.26506c0-1.35542,0-2.28916-1.38556-2.54518V10.0753h5.88858v1.15964
					c-1.37051,0.25602-1.37051,1.18976-1.37051,2.54518V28.75c0,1.35542,0,2.28916,1.37051,2.54518v1.15964h-5.88858v-1.15964
					c1.38556-0.25603,1.38556-1.18976,1.38556-2.54518v-2.93675L311.74701,14.42771z"/>
				<path class="st1" d="M350.49698,29.93976c0.35504,0.67412,0.97876,1.16653,1.71689,1.35542v1.15964h-7.53012v-1.15964
					c1.50601-0.13554,1.28012-0.69277,0.84335-1.35542l-6.02408-9.03614l-3.01205,3.01205v4.9247
					c0,1.35542,0,2.28916,1.37048,2.54518v1.15964h-6.98795v-1.15964c1.38553-0.25603,1.38553-1.18976,1.38553-2.54518V13.78012
					c0-1.35542,0-2.28916-1.38553-2.54518V10.0753h7.01807v1.15964c-1.37048,0.25602-1.37048,1.18976-1.37048,2.54518v6.12952
					l6.67169-6.95783c0.99396-1.05422,0.5271-1.50602-0.69281-1.71687V10.0753h8.1777v1.15964
					c-1.50601,0-2.40964,1.03916-3.44876,2.03313l-4.72894,4.51807L350.49698,29.93976z"/>
				<rect x="45.34639" y="39.89458" class="st2" width="308.17773" height="2.53012"/>
				<path class="st3" d="M357.00302,6.26506c-1.66351,0-3.01205,1.34854-3.01205,3.01205s1.34854,3.01205,3.01205,3.01205
					s3.01205-1.34854,3.01205-3.01205S358.66653,6.26506,357.00302,6.26506 M357.00302,6.86747
					c1.33078-0.00832,2.41635,1.06375,2.42465,2.39453c0.00833,1.33078-1.06375,2.41634-2.39453,2.42466
					s-2.41632-1.06374-2.42465-2.39453c0-0.00501-0.00003-0.01001-0.00003-0.01502
					C354.60843,7.95216,355.6781,6.87575,357.00302,6.86747 M356.61148,9.44277h0.21082l0.73798,1.21988h0.87347v-0.2259
					c-0.13553,0-0.16568,0-0.27109-0.2259l-0.51202-0.84337c0.36414-0.07721,0.62656-0.39588,0.63251-0.76807
					c0-0.51205-0.40662-0.82831-1.03915-0.82831h-1.50601v0.24096l0,0c0.07529,0,0.12048,0,0.12048,0.21084v1.98795
					c0,0.1506,0,0.21084-0.12048,0.2259l0,0v0.2259h1.12952v-0.2259l0,0c-0.09036,0-0.10544,0-0.10544-0.21084L356.61148,9.44277z
					 M356.61148,9.00602V8.20783h0.31625c0.34637,0,0.51202,0.13554,0.51202,0.39157s-0.12048,0.43675-0.51202,0.43675
					L356.61148,9.00602z"/>
			</g>
		</g>
	</g>
</g>
</svg>
