<?xml version="1.0" encoding="utf-8"?>
<!-- Generator: Adobe Illustrator 23.0.3, SVG Export Plug-In . SVG Version: 6.00 Build 0)  -->
<svg version="1.1" id="Layer_1" xmlns="http://www.w3.org/2000/svg" xmlns:xlink="http://www.w3.org/1999/xlink" x="0px" y="0px"
	 width="512px" height="512px" viewBox="0 0 512 512" style="enable-background:new 0 0 512 512;" xml:space="preserve">
<style type="text/css">
	.st0{fill:#145996;}
</style>
<g>
	<path class="st0" d="M378.95816,105.13648c-13.80301,3.30711-26.83444,9.25753-38.37372,17.52224
		c13.52582,12.38145,24.94763,26.88062,33.81793,42.9295c30.13824-6.1328,38.19852,1.05133,41.87817-2.27791
		c15.35681-15.18799,22.46512-36.83892,19.09924-58.17384c-13.83749-20.65749-30.73508-39.09123-50.11365-54.6694
		c0,0,0,1.577,0,2.62834c2.97879,22.95414-9.11157,40.30116-6.65842,52.56673"/>
	<path class="st0" d="M426.61865,191.34592c-13.35519-2.91423-27.12738-3.38911-40.65158-1.40178
		c6.7699,17.45407,11.24625,35.71284,13.31689,54.31897c27.33469,7.53458,31.36481,17.52223,36.09583,15.24434
		c20.81509-7.12672,36.79874-24.02745,42.75427-45.20738c-4.05411-24.19164-11.24017-47.75259-21.37711-70.08897
		c-0.52777,1.14304-0.99567,2.31277-1.40179,3.50446c-7.18411,22.07802-25.58249,32.24092-28.73645,44.15605"/>
	<path class="st0" d="M481.63849,252.67378c-1.85223,1.29047-3.40585,2.96359-4.55579,4.9062
		c-13.49213,18.92404-34.16837,23.30463-40.65158,33.81793c-10.86127-6.27908-22.71198-10.66382-35.04449-12.96646
		c-0.86276,18.48895-4.04156,36.79663-9.46201,54.4942c26.63382,16.12045,27.50992,26.98428,32.5914,26.98428
		c18.32764-0.3064,35.65875-8.3985,47.66049-22.25327c6.51697-24.46558,9.81558-49.67654,9.81244-74.99524
		c0-2.97876,0-6.13278,0-9.11156"/>
	<path class="st0" d="M381.23605,359.90994c-7.68414,17.07666-17.96915,32.85889-30.48871,46.78439
		c13.49213,24.70636,9.63724,33.99313,13.84259,36.27103c14.64914,7.73724,31.70935,9.55615,47.66049,5.08145
		c18.03864-20.09412,32.87299-42.84802,43.98083-67.46063c-19.80011,8.06021-38.54895,2.97879-48.71185,8.76111
		C400.60068,378.03348,391.69687,368.06119,381.23605,359.90994"/>
	<path class="st0" d="M133.82196,105.13648c13.77075,3.40028,26.78517,9.34294,38.3737,17.52224
		c-13.56194,12.28085-24.99005,26.72884-33.81792,42.75427c-30.13826-6.13278-37.4976,1.05135-41.87817-2.45311
		c-15.34917-15.04768-22.46593-36.59383-19.09924-57.8234c13.86784-20.68478,30.76038-39.17207,50.11362-54.84463
		c0,0,0,1.75222,0,2.62834c-2.97878,23.12936,9.11156,40.30116,6.65845,52.56673"/>
	<path class="st0" d="M86.16146,191.52115c13.35376-2.9258,27.12803-3.40077,40.6516-1.40178
		c-6.85098,17.36777-11.33025,35.57956-13.3169,54.14374c-27.3347,7.53458-31.36481,17.52223-36.09583,15.41957
		c-20.86603-7.04733-36.88084-23.98102-42.75428-45.2074c3.99425-24.18443,11.12149-47.74562,21.20192-70.08897
		c0.63374,1.03204,1.10643,2.15468,1.40178,3.32921C64.60909,169.26788,83.35789,179.60602,86.16146,191.52115"/>
	<path class="st0" d="M30.79116,252.67378c1.88293,1.30998,3.49034,2.97691,4.73101,4.9062
		c13.49213,19.09927,35.04449,23.30463,40.6516,33.81793c11.13081-6.37292,23.28562-10.7605,35.9206-12.96646
		c0.57788,18.45175,3.46226,36.75867,8.58591,54.4942c-26.4586,16.29568-27.3347,27.15945-32.41615,26.98428
		c-18.47156-0.34549-35.87458-8.72708-47.66051-22.95419c-6.43043-24.18439-9.72822-49.09451-9.81246-74.11908
		c0-3.15399,0-6.13278,0-9.28677"/>
	<path class="st0" d="M131.0184,360.08511c7.81032,17.04819,18.14796,32.82047,30.66393,46.78439
		c-13.49213,24.53113-9.63724,33.99316-14.01781,36.27106c-14.3842,7.58887-31.13873,9.34592-46.78438,4.90622
		c-18.10659-20.04184-32.94822-42.80692-43.98083-67.46063c19.62492,8.23544,38.37372,3.15399,48.71184,8.93634
		c6.88484-11.28555,15.72578-21.25385,26.10815-29.43738"/>
	<path class="st0" d="M298.1806,98.65325l29.08694-81.12799H309.7453c-12.96646,0-36.97192,38.19849-36.97192,38.19849h-3.32922
		V43.10773c4.01331-4.96519,6.23563-11.13832,6.30798-17.52224c1.88647-12.2416-6.50735-23.69489-18.74881-25.58248
		c-10.51335,0-18.39835,11.03901-18.39835,24.70636c-0.11432,6.27199,1.7899,12.41471,5.4319,17.52224v12.79124h-4.20534
		c0,0-20.67625-37.4976-33.81793-37.4976c-7.88501,0-17.52225,0-17.52225,0l29.61259,80.77754
		c12.55333-4.41814,25.76648-6.66972,39.0746-6.65845c14.16367,0.03701,28.2139,2.52692,41.52771,7.35934"/>
	<path class="st0" d="M162.38322,75.17344c-0.48341-7.33881,5.07397-13.67999,12.4128-14.16341
		c7.33884-0.48342,13.68001,5.07398,14.16342,12.4128c0.48341,7.33881-5.07397,13.68-12.41281,14.16341
		c-0.34009,0.0224-0.68091,0.03175-1.02173,0.02799c-7.21849-0.09438-13.0473-5.92319-13.14168-13.14169"/>
	<path class="st0" d="M326.04099,75.17344c0.09589-7.2862,6.03009-13.14231,13.31693-13.14168
		c7.30634,0.84225,12.54651,7.44798,11.70425,14.75431c-0.70859,6.14675-5.5575,10.9957-11.70425,11.70428
		C332.00317,88.49035,326.04099,82.52818,326.04099,75.17344L326.04099,75.17344"/>
	<path class="st0" d="M335.15256,456.98315c-0.2435-10.55219-2.07468-21.00754-5.43188-31.0144
		c-15.4653,11.76093-33.46698,19.74167-52.56674,23.3046c-0.46194,8.65408-2.11285,17.2034-4.90622,25.40726h-8.23544
		c-1.05136-5.60709-4.03012-9.63721-7.53458-9.63721c-3.50447,0-6.65846,4.03012-7.70978,9.63721h-7.70982
		c-2.79335-8.20386-4.44426-16.75317-4.90622-25.40726c-19.08058-3.52316-37.07831-11.44217-52.56673-23.12936
		c-3.2489,10.03403-5.07727,20.47345-5.43192,31.01437c-12.09035,0-26.6338,15.06915-49.41272,17.52225
		c20.87421,16.63727,44.63326,29.28897,70.08897,37.32239c16.76947-2.93552,31.69759-12.38367,41.52773-26.28336h9.28679
		c1.22655,5.25668,4.20532,8.93637,7.70976,8.93637c3.50446,0,6.30801-3.67966,7.53458-8.93637h9.2868
		c9.86041,13.75351,24.6955,23.11969,41.35251,26.10815c25.45538-7.95053,49.21884-20.54517,70.08896-37.14719
		c-22.95413-1.92746-37.32239-17.52225-49.58795-17.52225"/>
</g>
</svg>
