<?xml version="1.0" standalone="no"?>
<!DOCTYPE svg PUBLIC "-//W3C//DTD SVG 20010904//EN"
 "http://www.w3.org/TR/2001/REC-SVG-20010904/DTD/svg10.dtd">
<svg version="1.0" xmlns="http://www.w3.org/2000/svg"
 width="700.000000pt" height="700.000000pt" viewBox="0 0 700.000000 700.000000"
 preserveAspectRatio="xMidYMid meet">
<metadata>
Created by potrace 1.11, written by Peter Selinger 2001-2013
</metadata>
<g transform="translate(0.000000,700.000000) scale(0.100000,-0.100000)"
fill="#000000" stroke="none">
<path d="M3423 6975 c-150 -76 -207 -317 -117 -496 22 -45 27 -69 29 -141 l1
-88 -30 0 c-28 1 -35 8 -74 75 -108 186 -265 372 -349 414 -36 18 -60 21 -173
21 -71 0 -130 -2 -130 -3 0 -2 30 -84 66 -183 36 -98 76 -208 89 -244 12 -36
45 -126 73 -200 42 -113 106 -287 157 -427 6 -18 14 -35 17 -38 3 -3 46 6 95
20 93 26 106 29 167 39 219 35 470 25 661 -26 22 -5 49 -12 61 -14 12 -2 40
-11 64 -19 24 -8 44 -14 46 -13 1 2 26 68 54 148 28 80 83 232 121 338 162
451 208 578 214 600 6 21 3 22 -42 23 -176 2 -217 -2 -265 -28 -93 -50 -264
-241 -378 -421 -38 -60 -49 -71 -70 -69 -24 2 -25 4 -25 85 -1 71 2 88 23 118
24 35 48 97 57 143 11 57 6 163 -10 210 -20 62 -90 142 -149 171 -71 34 -122
35 -183 5z"/>
<path d="M1665 6248 c-141 -121 -392 -387 -488 -519 -89 -123 -117 -162 -118
-168 0 -3 -2 -15 -5 -26 -6 -28 -5 -205 1 -235 3 -14 9 -48 14 -77 25 -130
111 -297 207 -401 54 -58 63 -64 99 -63 22 0 51 3 65 6 29 7 253 7 290 1 14
-3 42 -7 63 -10 20 -3 52 -8 70 -11 29 -5 35 -2 45 20 47 102 215 325 355 470
99 102 101 88 -17 157 -94 55 -194 100 -296 133 -118 38 -111 32 -115 100 -2
33 -22 133 -44 221 -22 89 -43 183 -46 210 -8 65 -8 221 -1 233 4 5 3 12 -1
14 -5 3 -39 -22 -78 -55z"/>
<path d="M5272 6203 c1 -129 -2 -150 -54 -363 -23 -91 -41 -190 -42 -220 l-1
-55 -98 -32 c-119 -39 -247 -99 -344 -159 -40 -25 -73 -46 -73 -48 0 -1 43
-47 96 -101 108 -112 250 -297 316 -410 l43 -76 45 6 c25 3 65 9 90 13 50 8
272 9 365 2 33 -2 65 -1 72 3 35 22 139 171 182 260 80 167 102 287 90 486 -3
50 -37 105 -173 280 -85 110 -321 354 -443 460 l-72 62 1 -108z"/>
<path d="M2356 6160 c-87 -27 -143 -108 -133 -192 12 -101 80 -162 178 -162
49 0 65 5 100 29 107 75 108 225 3 297 -43 30 -104 41 -148 28z"/>
<path d="M4565 6136 c-17 -7 -45 -29 -62 -49 -76 -87 -48 -224 57 -277 48 -25
83 -25 136 -1 105 48 136 186 62 275 -51 62 -125 82 -193 52z"/>
<path d="M746 4985 c-122 -284 -231 -649 -271 -905 -3 -24 31 -116 76 -200 51
-96 143 -207 229 -277 76 -62 252 -153 295 -153 18 0 56 18 97 44 96 62 198
110 310 146 75 24 69 13 88 155 20 146 83 391 135 530 14 37 23 70 21 74 -15
24 -356 19 -498 -7 l-47 -9 -25 51 c-14 28 -64 96 -112 151 -134 157 -171 208
-218 302 -24 48 -48 99 -53 113 -10 25 -10 25 -27 -15z"/>
<path d="M6207 4933 c-36 -86 -112 -208 -172 -275 -17 -18 -53 -60 -80 -93
-28 -33 -53 -62 -56 -65 -4 -3 -21 -30 -38 -62 -31 -54 -33 -56 -62 -48 -84
24 -488 36 -509 14 -5 -5 6 -53 30 -124 57 -171 87 -293 116 -470 25 -159 22
-151 86 -169 31 -9 60 -19 64 -23 4 -5 14 -8 22 -8 20 0 138 -57 190 -91 24
-16 45 -29 48 -29 3 0 19 -10 36 -21 38 -27 74 -22 169 26 223 112 383 287
464 510 24 66 24 69 9 139 -9 39 -18 85 -21 101 -16 96 -101 387 -156 535 -36
96 -89 224 -97 233 -4 4 -23 -32 -43 -80z"/>
<path d="M424 3324 c3 -121 8 -230 10 -244 3 -14 7 -52 11 -85 17 -167 35
-271 77 -463 l32 -143 69 -65 c155 -147 329 -224 538 -241 l67 -5 38 44 c50
56 162 167 196 195 14 12 63 47 107 78 45 31 81 58 81 59 0 1 -7 25 -15 52
-19 66 -55 229 -61 279 -3 22 -9 60 -14 85 -7 39 -16 133 -26 270 -1 19 -2 39
-3 43 -1 10 -32 5 -121 -17 -97 -25 -227 -75 -319 -123 l-44 -23 -43 43 c-24
23 -69 58 -99 77 -252 157 -358 244 -431 355 -9 14 -26 31 -37 36 -19 11 -19
8 -13 -207z"/>
<path d="M6517 3473 c-78 -98 -143 -157 -243 -224 -49 -32 -94 -63 -101 -69
-7 -5 -15 -10 -18 -10 -12 0 -101 -65 -146 -107 l-46 -43 -39 21 c-128 66
-393 158 -427 146 -6 -2 -12 -19 -13 -38 -2 -48 -14 -180 -18 -204 -2 -11 -7
-40 -10 -65 -3 -25 -8 -56 -11 -70 -7 -32 -13 -67 -21 -105 -3 -16 -16 -73
-30 -125 -37 -142 -37 -136 -11 -147 58 -27 231 -169 312 -257 l90 -98 75 6
c199 15 392 102 536 242 69 66 68 64 120 323 16 84 20 105 30 176 3 28 8 57 9
65 18 103 23 185 31 438 5 151 4 212 -4 212 -6 0 -35 -30 -65 -67z"/>
<path d="M5175 2002 c-63 -129 -163 -291 -244 -395 -25 -33 -53 -68 -61 -80
-8 -12 -27 -35 -42 -51 -16 -17 -28 -34 -28 -38 0 -4 13 -33 29 -65 48 -95 78
-177 102 -275 34 -145 35 -146 98 -174 59 -27 129 -53 165 -60 11 -2 35 -7 51
-10 61 -13 251 -10 319 4 72 15 75 17 151 107 100 120 345 466 345 489 0 4 11
24 25 46 41 65 147 281 141 288 -3 3 -18 0 -32 -7 -55 -25 -205 -49 -342 -56
-145 -8 -207 -17 -263 -40 -13 -5 -31 14 -74 76 -60 86 -177 214 -256 280
l-47 39 -37 -78z"/>
<path d="M1739 2024 c-93 -81 -192 -193 -254 -286 -21 -32 -41 -58 -45 -58 -4
0 -26 6 -48 14 -39 14 -105 22 -252 31 -136 8 -208 21 -338 61 -22 6 -22 6 6
-52 130 -270 256 -472 435 -697 127 -160 132 -164 212 -180 68 -14 249 -15
310 -3 118 23 259 80 274 111 5 11 19 63 31 115 24 102 64 211 110 299 l29 55
-24 31 c-153 187 -245 324 -331 490 -31 61 -58 111 -59 113 -2 2 -27 -18 -56
-44z"/>
<path d="M2507 1163 c-19 -31 -66 -281 -69 -370 -1 -34 -5 -43 -19 -43 -34 0
-114 -32 -264 -105 -127 -62 -213 -98 -260 -109 -22 -6 -81 -17 -97 -20 -34
-4 -28 -14 39 -63 226 -166 442 -287 673 -378 186 -73 205 -77 273 -60 177 45
341 148 451 281 l51 62 63 0 63 0 16 -39 c42 -107 147 -102 184 8 10 32 12 33
72 33 52 0 64 -4 82 -24 152 -177 295 -270 492 -321 53 -14 56 -13 156 21 266
93 509 220 745 389 60 44 109 81 107 83 -1 2 -16 5 -32 7 -40 5 -151 33 -188
48 -16 7 -100 47 -187 89 -90 44 -183 82 -217 89 l-61 13 -1 41 c-1 70 -15
169 -38 264 -19 78 -30 111 -37 111 -2 0 -37 -23 -78 -50 -160 -108 -359 -196
-543 -241 -68 -16 -93 -26 -94 -38 -2 -56 -30 -205 -52 -281 l-13 -45 -57 0
c-31 0 -56 2 -56 5 4 13 -43 90 -63 104 -49 35 -105 6 -134 -69 l-17 -45 -52
0 -53 0 -25 108 c-26 110 -36 167 -37 213 0 27 -3 29 -95 46 -59 11 -267 89
-354 132 -83 42 -207 115 -258 153 -6 5 -14 5 -16 1z"/>
</g>
</svg>
