<?xml version="1.0" standalone="no"?>
<!DOCTYPE svg PUBLIC "-//W3C//DTD SVG 20010904//EN"
 "http://www.w3.org/TR/2001/REC-SVG-20010904/DTD/svg10.dtd">
<svg version="1.0" xmlns="http://www.w3.org/2000/svg"
 width="270.000000pt" height="270.000000pt" viewBox="0 0 270.000000 270.000000"
 preserveAspectRatio="xMidYMid meet">
<metadata>
Created by potrace 1.11, written by Peter Selinger 2001-2013
</metadata>
<g transform="translate(0.000000,270.000000) scale(0.100000,-0.100000)"
fill="#000000" stroke="none">
<path d="M1237 2485 c-1 -2 -33 -5 -72 -9 -211 -18 -457 -85 -635 -174 -49
-24 -57 -33 -77 -82 -12 -30 -31 -88 -42 -128 l-20 -73 52 31 c134 81 378 185
477 204 14 2 48 9 75 15 112 24 219 34 350 35 315 0 630 -91 903 -262 95 -60
91 -67 45 83 -38 121 -44 129 -125 168 -176 85 -325 133 -539 170 -76 14 -381
30 -392 22z"/>
<path d="M1248 2135 c-2 -1 -32 -5 -68 -8 -125 -11 -314 -60 -440 -114 -36
-16 -43 -24 -55 -68 -21 -77 -27 -129 -30 -270 -6 -271 67 -515 223 -740 51
-75 192 -225 256 -273 16 -12 27 -24 25 -26 -2 -3 -36 -14 -76 -24 l-71 -20
-80 81 c-136 139 -168 183 -258 354 -54 101 -98 228 -124 356 -26 124 -33 339
-16 449 l12 78 -25 -16 c-84 -54 -153 -109 -160 -127 -9 -24 -7 -222 3 -303 7
-52 10 -71 20 -114 3 -14 8 -36 10 -50 22 -122 111 -337 195 -470 77 -123 211
-276 325 -372 l59 -50 56 7 c115 14 317 92 441 170 203 127 383 332 476 541
32 71 73 188 80 228 11 61 18 63 72 12 55 -52 54 -46 20 -156 -44 -138 -162
-348 -257 -454 -177 -200 -377 -336 -612 -416 l-111 -37 34 -20 c18 -12 66
-35 107 -53 l73 -32 58 22 c188 70 426 246 588 435 150 175 270 419 325 662
l14 62 -82 83 c-146 148 -320 256 -512 317 -152 48 -208 56 -383 56 -74 0
-157 -3 -185 -7 -69 -9 -198 -43 -279 -73 l-68 -25 6 27 c3 16 8 46 11 68 3
22 11 45 18 51 17 16 197 65 292 79 44 7 137 13 206 13 110 0 157 -5 306 -32
114 -21 336 -117 456 -198 51 -33 155 -115 177 -138 3 -3 18 -16 33 -30 l28
-25 -2 115 -1 115 -56 43 c-188 146 -463 266 -682 298 -19 3 -44 8 -54 11 -20
6 -312 14 -318 8z m297 -491 c96 -19 201 -52 276 -89 l56 -28 -14 -76 c-49
-259 -202 -502 -415 -661 -45 -33 -85 -60 -91 -60 -19 0 -136 91 -205 159
-166 165 -278 383 -308 600 l-6 41 64 29 c92 42 183 71 268 85 103 18 279 18
375 0z"/>
</g>
</svg>
