<?xml version="1.0" encoding="utf-8"?>
<!-- Generator: Adobe Illustrator 21.0.2, SVG Export Plug-In . SVG Version: 6.00 Build 0)  -->
<svg version="1.1" id="Layer_1" xmlns="http://www.w3.org/2000/svg" xmlns:xlink="http://www.w3.org/1999/xlink" x="0px" y="0px"
	 viewBox="0 0 512 512" style="enable-background:new 0 0 512 512;" xml:space="preserve">
<style type="text/css">
	.st0{fill:#B8C2DA;}
	.st1{fill:#002655;}
</style>
<g>
	
		<rect x="339" y="90.1" transform="matrix(0.8088 0.5881 -0.5881 0.8088 171.0195 -173.257)" class="st0" width="25.9" height="172.5"/>
	<polygon class="st0" points="94.7,412.8 87,412.8 87,380.4 232.2,190.1 254.7,206.1 	"/>
	<g id="Layer_3">
		<g>
			<polygon class="st1" points="249.7,202.6 88,412.7 88,423.7 103.5,423.7 254.3,229.1 315.3,272.4 326,257.3 326,257.3 
				419.9,124.9 443.8,141.7 455.9,150.2 457.8,54.1 445.5,58.8 367.9,88.2 393.4,106.2 404.3,113.9 310.8,245.8 265.3,213.6 
				265.3,213.6 			"/>
		</g>
	</g>
	<polygon class="st1" points="73.8,438.3 73.8,74.3 54.2,74.3 54.2,438.3 54.2,457.9 73.8,457.9 437.8,457.9 437.8,438.3 	"/>
</g>
</svg>
