<?xml version="1.0" encoding="utf-8"?>
<!-- Generator: Adobe Illustrator 21.0.2, SVG Export Plug-In . SVG Version: 6.00 Build 0)  -->
<svg version="1.1" id="Layer_2" xmlns="http://www.w3.org/2000/svg" xmlns:xlink="http://www.w3.org/1999/xlink" x="0px" y="0px"
	 viewBox="0 0 512 512" style="enable-background:new 0 0 512 512;" xml:space="preserve">
<style type="text/css">
	.st0{fill:none;}
	.st1{fill:#B8C2DA;}
	.st2{fill:#002655;}
</style>
<g>
	<path class="st0" d="M203.1,128.4V199h24.7h11.8v-47.1c0-3.5,2.8-6.3,6.3-6.3h21.5h11.8c3.5,0,6.3,2.8,6.3,6.3V199h9.8l-0.5-80.6
		l-52-33.1L190.6,120h4.2C199.4,120,203.1,123.7,203.1,128.4z"/>
	<path class="st0" d="M338.3,344l65.2-49.3c10.6-9.2,21.1-21.6,25-32.6c21.9-61.7,7.6-133.6,7-136.9c-1.5-7.8-3.9-12-6-14.3
		c-1.5,2.1-2.8,4.9-3.6,7.5l-3.7,59.3c3,0.8,5.9,1.9,8.2,4c9.3,8.2,9.2,23.5-0.4,40.9c-18.6,33.7-61.3,77.9-63.1,79.8
		c-3.2,3.3-8.5,3.4-11.8,0.2c0,0-0.1-0.1-0.1-0.1c-11.5-8.7,3.4-32.9,6.6-36.2c0.4-0.4,22.5-20,40-51.7c5.3-9.6,7.7-15.9,6.9-18.7
		c-2.3,1.1-4.9,2.6-7.8,4.8c-2.4,1.8-5.4,6.2-8.3,10.4c-2,3-4.1,6-6.3,8.8c-15.5,19.3-39.9,30.1-40.9,30.5
		c-66.4,33-62.6,71.8-60.8,90.5l0.3,3.1c0.2,2.7-0.1,60.8-0.2,93.4h37.1l-3.7-62.6C318.6,362.1,334.4,347.1,338.3,344z"/>
	<path class="st0" d="M213.7,350.9l0.3-3.1c0-21.4,5.2-54.1-59.2-86.6C102,226.7,94,196.9,91.7,195.8c-0.9,2.9-0.5,9.1,4.9,18.8
		c17.6,31.7,60.1,75.8,60.5,76.3c3.2,3.3,3.1,8.6-0.2,11.8c-3.3,3.2-8.5,3.1-11.7-0.1c0,0-0.1-0.1-0.1-0.1
		c-1.8-1.9-44.5-46.1-63.1-79.8c-8.3-15-9.5-28.3-3.8-37c-0.1-1.5-0.2-4-0.2-7.9l-3.7-59.3c-0.8-2.6-2.1-5.5-3.7-7.5
		c-2.2,2.3-4.5,6.5-6,14.3c-0.6,3.3-15,81.1,7,142.9c3.9,11.1,14.4,25.4,25.5,35l64.6,48.8c4,3.2,19.9,18.2,20.7,29.7l-3.7,55.8
		h35.1C213.8,404.7,213.5,353.6,213.7,350.9z"/>
	<path class="st1" d="M252.1,199v-40.9h9V199H252.1z M272.9,199v-40.9h-11.8V199H272.9z M439.7,109.4c-1.9-1.3-4.1-1.7-6.6-1.2
		c-1.3,0.2-2.5,1.3-3.5,2.7c2.2,2.3,4.5,6.5,6,14.3c0.6,3.3,14.9,75.2-7,136.9c-3.9,11-14.4,23.4-25,32.6L338.3,344
		c-3.9,3.1-19.7,18.1-20.6,30.7l3.7,62.6h11.8l-3.7-54.6c0.9-12.6,16.7-27.6,20.6-30.7l65.2-49.3c10.6-9.2,21.1-23.6,25-34.6
		c21.9-61.7,7.6-139.6,7-142.9C445.5,115.2,442.1,111.1,439.7,109.4z M113,181.9c-2.1-14.7-4.7-29.6-6.6-34.5
		c-1.2-3.2-3.8-6.7-6.5-10.1l2.5,40.6C105.8,178.8,109.3,180,113,181.9z M78,177.8c0,3.9,0.1,6.4,0.2,7.9c0.9-1.4,2-2.7,3.3-3.9
		c2.4-2.1,5.2-3.3,8.2-4l-3.7-59.3c-1.4-4.4-4.1-9.6-7.2-10.2c-2.5-0.5-4.7-0.1-6.6,1.2c-0.5,0.4-1.1,0.8-1.7,1.5
		c1.5,2.1,2.8,4.9,3.7,7.5L78,177.8z M401.6,214.6c-17.5,31.7-39.6,51.3-40,51.7c-3.2,3.3-18,27.6-6.6,36.2
		c-3.2-3.2-3.3-8.4-0.1-11.7c0.4-0.4,42.9-44.5,60.5-76.3c6.7-12.1,5.6-18.9,4-20.3c-1.1-1-4.9-1.3-11,1.5
		C409.3,198.7,406.9,205,401.6,214.6z M166.6,250.2c-0.6-0.3-25-11-40.5-30.4c-2.2-2.8-4.3-5.8-6.4-8.8c-2.9-4.2-5.9-8.6-8.3-10.4
		c-10.7-7.9-17.3-7.7-18.8-6.3c-0.3,0.3-0.6,0.8-0.8,1.5c2.3,1.1,10.3,30.8,63.1,65.3c64.4,32.5,59.2,65.3,59.2,86.6l-0.3,3.1
		c-0.2,2.7,0.1,53.8,0.2,86.4h2h11.8c-0.2-32.6-0.5-90.7-0.2-93.4l0.3-3.1C229.6,322.2,233.4,283.3,166.6,250.2z M412.2,137.3
		c-2.7,3.3-5.3,6.9-6.5,10.1c-1.9,4.9-4.5,19.8-6.6,34.5c3.7-2,7.2-3.2,10.6-4L412.2,137.3z M295.2,199h2H309v-70.6
		c0-4.6,3.7-8.3,8.3-8.3h4.1v-0.8L256,76.3l-5.8,3.9l-7.5,5l52,33.1L295.2,199z"/>
	<path class="st2" d="M244.4,342.4c1.8-18.9,6.7-69-70.8-107.4c-0.2-0.1-21.6-9.5-34.5-25.7c-2-2.5-3.8-5.2-5.6-7.8
		c-0.4-0.7-0.9-1.3-1.3-1.9c-1.2-9.6-6-47.3-10.3-58.3c-4.1-10.5-14.5-21.1-19.1-25.4c-1.7-6.6-7.1-21.5-20.7-24.1
		c-3.6-0.7-7.3-0.6-10.8,0.2c-2.9,0.7-5.7,1.9-8.3,3.6c-7.4,5-12.4,14-14.7,26.5c-0.7,3.5-15.8,85.6,7.7,151.6
		c4.9,13.7,17.1,30.6,30.7,42.4l64.9,49c5.8,4.6,13.8,14.6,14.3,16.6l-4.3,63.5c-0.1,2.3,0.7,4.6,2.2,6.3c1.6,1.7,3.8,2.6,6.1,2.6
		h54.4h11.8c2.2,0,4.4-0.9,5.9-2.5c1.6-1.6,2.4-3.7,2.4-5.9c-0.2-38.4-0.5-96.9-0.4-100.3L244.4,342.4z M106.3,147.4
		c1.9,4.9,4.5,19.8,6.6,34.5c-3.7-2-7.2-3.2-10.6-4l-2.5-40.6C102.5,140.7,105.1,144.2,106.3,147.4z M227.8,340.8l-0.3,3.1
		c-0.2,2.7,0.1,60.8,0.2,93.4h-11.8h-2h-35.1l3.7-55.8c-0.9-11.5-16.7-26.4-20.7-29.7l-64.6-48.8c-11-9.5-21.5-23.9-25.5-35
		c-22-61.8-7.6-139.6-7-142.9c1.5-7.8,3.9-12,6-14.3c0.6-0.6,1.2-1.1,1.7-1.5c1.9-1.3,4.1-1.7,6.6-1.2c3.2,0.6,5.8,5.8,7.2,10.2
		l3.7,59.3c-3,0.8-5.9,1.9-8.2,4c-1.3,1.1-2.4,2.4-3.3,3.9c-5.7,8.7-4.5,22.1,3.8,37c18.6,33.7,61.3,77.9,63.1,79.8
		c0,0,0.1,0.1,0.1,0.1c3.2,3.2,8.4,3.3,11.7,0.1c3.3-3.2,3.4-8.5,0.2-11.8c-0.4-0.4-42.9-44.5-60.5-76.3c-5.3-9.7-5.7-15.9-4.9-18.8
		c0.2-0.7,0.5-1.2,0.8-1.5c1.5-1.3,8.1-1.6,18.8,6.3c2.4,1.8,5.4,6.2,8.3,10.4c2,3,4.1,6,6.4,8.8c15.5,19.3,39.9,30.1,40.5,30.4
		C233.4,283.3,229.6,322.2,227.8,340.8z M463.8,122.1c-2.4-12.5-7.3-21.4-14.7-26.5c-5.5-3.8-12.3-5.1-19.1-3.8
		c-0.3,0.1-0.6,0.1-0.9,0.2c-12.9,3.1-18.1,17.5-19.8,23.9c-4.5,4.3-15,14.9-19.1,25.4c-4.3,11-9.1,48.8-10.3,58.4
		c-0.4,0.6-0.9,1.3-1.3,1.9c-1.8,2.6-3.6,5.3-5.6,7.8c-12.8,16-34.3,25.6-34.9,25.8c-77.2,38.3-72.2,88.4-70.4,107.2l0.3,2.7
		c0.2,3.6-0.1,62.1-0.3,100.5c0,2.2,0.9,4.4,2.4,5.9c1.6,1.6,3.7,2.5,5.9,2.5h54.4h11.8c2.3,0,4.5-1,6.1-2.6c1.6-1.7,2.4-4,2.2-6.3
		l-4.3-62.2c0.5-3.2,8.6-13.2,14.2-17.7l65.5-49.4c13.2-11.4,25.4-28.3,30.3-42C479.5,207.8,464.4,125.6,463.8,122.1z M405.7,147.4
		c1.3-3.2,3.8-6.8,6.5-10.1l-2.5,40.6c-3.4,0.8-6.9,2-10.6,4C401.2,167.2,403.8,152.3,405.7,147.4z M440.4,268.1
		c-3.9,11-14.4,25.4-25,34.6L350.1,352c-3.9,3.1-19.7,18.1-20.6,30.7l3.7,54.6h-11.8h-37.1c0.2-32.6,0.5-90.7,0.2-93.4l-0.3-3.1
		c-1.8-18.7-5.6-57.5,60.8-90.5c1-0.4,25.4-11.2,40.9-30.5c2.2-2.8,4.3-5.8,6.3-8.8c2.9-4.2,5.9-8.6,8.3-10.4
		c2.9-2.2,5.5-3.7,7.8-4.8c6.1-2.9,9.9-2.5,11-1.5c1.6,1.4,2.7,8.2-4,20.3c-17.5,31.7-60.1,75.8-60.5,76.3
		c-3.2,3.3-3.1,8.5,0.1,11.7c0,0,0.1,0.1,0.1,0.1c3.3,3.2,8.6,3.1,11.8-0.2c1.8-1.9,44.5-46.1,63.1-79.8c9.6-17.4,9.8-32.7,0.4-40.9
		c-2.4-2.1-5.2-3.3-8.2-4l3.7-59.3c0.8-2.6,2.1-5.5,3.6-7.5c1.1-1.4,2.3-2.4,3.5-2.7c2.5-0.5,4.7-0.1,6.6,1.2
		c2.5,1.7,5.8,5.8,7.7,15.8C448,128.5,462.3,206.4,440.4,268.1z M182.2,136.7h4.2v70.6c0,4.6,3.7,8.3,8.3,8.3h110.7h11.8
		c4.6,0,8.3-3.7,8.3-8.3v-70.6h4.1c4.6,0,8.3-3.7,8.3-8.3v-13.7c0-2.8-1.4-5.4-3.8-7l-73.8-48.3c-2.8-1.8-6.4-1.8-9.1,0l-1.3,0.9
		l-72.5,47.5c-2.4,1.5-3.8,4.2-3.8,7v13.7C173.9,133,177.6,136.7,182.2,136.7z M261.1,158.1h11.8V199h-11.8h-9v-40.9H261.1z
		 M242.7,85.2l7.5-5l5.8-3.9l65.4,42.9v0.8h-4.1c-4.6,0-8.3,3.7-8.3,8.3V199h-11.8h-2h-9.8v-47.1c0-3.5-2.8-6.3-6.3-6.3h-11.8h-21.5
		c-3.5,0-6.3,2.8-6.3,6.3V199h-11.8h-24.7v-70.6c0-4.6-3.7-8.3-8.3-8.3h-4.2L242.7,85.2z"/>
</g>
</svg>
