<?xml version="1.0" encoding="utf-8"?>
<!-- Generator: Adobe Illustrator 21.0.2, SVG Export Plug-In . SVG Version: 6.00 Build 0)  -->
<svg version="1.1" id="Layer_1" xmlns="http://www.w3.org/2000/svg" xmlns:xlink="http://www.w3.org/1999/xlink" x="0px" y="0px"
	 viewBox="0 0 512 512" style="enable-background:new 0 0 512 512;" xml:space="preserve">
<style type="text/css">
	.st0{fill:#B8C2DA;}
	.st1{fill:#002655;}
</style>
<path class="st0" d="M339.5,359.4c0-7.3,0-19.1,0-32.8h15.6v32.8H339.5z M339.5,220.9c0,13,0,52.6,0,87.4H355v-90.9
	c0-9.6,6.8-17.5,15.9-19.3l0,0C370.9,198,339.5,196.1,339.5,220.9z M424.4,197.6v-96.3c0-7.5-6.1-13.6-13.6-13.6h-5.1v109.9H424.4z
	 M486.8,379.8v15.5h-11v30.6h16.5c0.8,0,1.5-0.7,1.5-1.5V217.4c0-0.8-0.7-1.5-1.5-1.5h-16.5v164H486.8z M268.9,426.1h20.6
	c-7-6.9-11.8-15.4-13.6-24.5l0,0c-1.4-7.1-2.1-15-2.1-24h-14.3C259,387,259,410.2,268.9,426.1z"/>
<path class="st1" d="M492.3,197.6h-49.6v-96.3c0-17.5-14.3-31.8-31.8-31.8H31.7c-17.5,0-31.8,14.3-31.8,31.8v246.2
	c0,16.6,13.5,30.1,30.1,30.1h120.7c0,7.6-0.6,14.5-1.8,20.5c-1.9,9.2-8.9,17.5-19.4,22.9c-5.3,2.8-7.9,8.3-6.6,13.7
	c1.4,5.7,6.8,9.7,13.2,9.7h170.6c6.3,0,11.7-4,13.2-9.7c1.3-5.5-1.4-11.1-6.6-13.7c-10.4-5.4-17.5-13.7-19.3-22.9
	c-1.2-6-1.8-12.9-1.8-20.5h63.1v47c0,10.9,8.8,19.7,19.7,19.7h117.4c10.9,0,19.7-8.8,19.7-19.7V217.4
	C512,206.5,503.2,197.6,492.3,197.6z M18.1,101.3c0-7.5,6.1-13.6,13.6-13.6h374.1h5.1c7.5,0,13.6,6.1,13.6,13.6v96.3h-18.6h-31
	c-1.3,0-2.6,0.1-3.8,0.4c-9,1.8-15.9,9.8-15.9,19.3v90.9h-15.5H18.1V101.3z M168.8,377.6h90.7h14.3c0,9,0.7,16.9,2.1,24l0,0
	c1.9,9.1,6.6,17.5,13.6,24.5h-20.6H153c7-6.9,11.8-15.4,13.6-24.5C168.5,392.2,168.8,383.1,168.8,377.6z M30,359.4
	c-6.5,0-11.9-5.3-11.9-11.9v-20.9h321.4h15.6v32.8h-15.6H30z M373.3,424.4V217.4c0-0.8,0.7-1.5,1.5-1.5h101h16.5
	c0.8,0,1.5,0.7,1.5,1.5v207.1c0,0.8-0.7,1.5-1.5,1.5h-16.5h-101C374,425.9,373.3,425.2,373.3,424.4z M111.1,196.9
	c0.1,0.4,0.1,0.8,0.1,1.2c0,1.5-0.6,3-1.7,4.1c-1.1,1.1-2.6,1.7-4.1,1.7c-1.5,0-3-0.6-4.1-1.7c-1.1-1.1-1.7-2.6-1.7-4.1
	c0-0.4,0-0.9,0.1-1.2c0.1-0.3,0.2-0.8,0.3-1.1c0.1-0.3,0.3-0.6,0.5-1c0.2-0.3,0.4-0.5,0.8-0.9c0.2-0.3,0.5-0.5,0.9-0.8
	c0.2-0.2,0.6-0.4,1-0.5c0.3-0.1,0.6-0.2,1.1-0.3c1.8-0.3,3.9,0.2,5.3,1.6c0.3,0.2,0.5,0.5,0.8,0.9c0.2,0.2,0.4,0.6,0.5,1
	C110.9,196.1,111,196.5,111.1,196.9z M282.6,193.9c1.1,1.1,1.7,2.6,1.7,4.1c0,0.4,0,0.9-0.1,1.2c0,0.3-0.2,0.8-0.3,1.1
	c-0.1,0.3-0.3,0.6-0.5,1c-0.2,0.3-0.4,0.5-0.8,0.9c-0.2,0.3-0.5,0.5-0.9,0.8c-0.2,0.2-0.6,0.4-1,0.5c-0.3,0.1-0.8,0.2-1.1,0.3
	c-0.4,0.1-0.9,0.1-1.2,0.1c-1.5,0-3-0.6-4.1-1.7c-0.3-0.2-0.5-0.5-0.8-0.9c-0.2-0.2-0.4-0.6-0.5-1c-0.1-0.3-0.2-0.6-0.3-1.1
	c-0.1-0.4-0.1-0.8-0.1-1.2c0-1.5,0.6-3,1.7-4.1c1.3-1.4,3.3-2,5.3-1.6c0.3,0,0.8,0.2,1.1,0.3c0.3,0.1,0.6,0.3,1,0.5
	C282.1,193.3,282.3,193.5,282.6,193.9z M433.6,400.8c-5.3,0-9.6,4.3-9.6,9.6c0,5.3,4.3,9.6,9.6,9.6c5.3,0,9.6-4.3,9.6-9.6
	C443.2,405,438.8,400.8,433.6,400.8z M433.6,412.5c-1.2,0-2.2-1-2.2-2.2c0-1.2,1-2.2,2.2-2.2c1.2,0,2.2,1,2.2,2.2
	C435.7,411.5,434.7,412.5,433.6,412.5z M244.7,204.2c4.2,4.2,6.4,9.9,6.4,17.1c0,7.4-2.2,13.3-6.6,17.6c-4.4,4.4-10.5,6.9-18.1,7.8
	v12.3h-10v-12.3c-7.4-0.8-13.4-3.4-18.1-8.2c-4.7-4.6-7-11.4-6.8-20.3l0.1-0.3h12.2c0,6.7,1.6,11.3,5,14.1c3.3,2.8,7.4,4.2,12.2,4.2
	c5.5,0,9.8-1.4,12.9-4c3.1-2.6,4.6-6.2,4.6-10.9c0-3.8-1.4-7.1-4.1-9.8c-2.7-2.7-7.2-5.1-13.5-7.2c-8.6-2.6-15.1-6.1-19.5-10.5
	c-4.4-4.4-6.6-10.2-6.6-17.5c0-7,1.9-12.8,6-17.2c4-4.4,9.6-7.1,16.7-8v-14.1h10.1v14.2c7.1,0.9,12.6,3.8,16.6,8.7
	c4,4.8,5.9,11.4,5.9,19.7h-12.6c0-5.4-1.3-9.8-4-13.1c-2.7-3.3-6.4-5.1-11.1-5.1c-5.1,0-8.8,1.4-11.3,4c-2.5,2.6-3.8,6.2-3.8,10.8
	c0,4.1,1.3,7.4,3.9,10c2.6,2.6,7.2,5.1,14,7.3C234,196.5,240.5,200,244.7,204.2z M339.4,203.4c-0.3,0.1-0.6,0.2-1.1,0.3
	c-0.4,0.1-0.9,0.1-1.2,0.1c-0.4,0-0.8,0-1.2-0.1c-0.3-0.1-0.8-0.2-1.1-0.3c-0.3-0.1-0.6-0.3-1-0.5c-0.3-0.2-0.6-0.4-0.9-0.8
	c-0.3-0.2-0.5-0.5-0.8-0.9c-0.2-0.2-0.4-0.6-0.5-1c-0.2-0.3-0.3-0.6-0.3-1.1c-0.1-0.4-0.1-0.8-0.1-1.2c0-0.4,0.1-0.9,0.1-1.2
	s0.2-0.8,0.3-1.1c0.1-0.3,0.3-0.6,0.5-1c0.2-0.3,0.4-0.5,0.8-0.9c0.2-0.3,0.5-0.5,0.9-0.8c0.2-0.2,0.6-0.4,1-0.5
	c0.3-0.1,0.8-0.2,1.1-0.3c1.8-0.3,3.9,0.2,5.3,1.6c0.3,0.2,0.5,0.5,0.8,0.9c0.2,0.2,0.4,0.6,0.5,1c0.1,0.3,0.2,0.6,0.3,1.1
	c0.1,0.4,0.1,0.8,0.1,1.2c0,0.4,0,0.9-0.1,1.2c0,0.3-0.2,0.8-0.3,1.1c-0.1,0.3-0.3,0.6-0.5,1c-0.2,0.3-0.5,0.5-0.8,0.9
	c-0.2,0.3-0.5,0.5-0.9,0.8C340.2,203,339.7,203.2,339.4,203.4z M313.6,198.1c0,3.2-2.6,5.8-5.8,5.8c-3.2,0-5.8-2.6-5.8-5.8
	s2.6-5.8,5.8-5.8C311.1,192.3,313.6,194.8,313.6,198.1z M169.7,196.9c0.1,0.4,0.1,0.8,0.1,1.2c0,1.5-0.6,3-1.7,4.1s-2.6,1.7-4.1,1.7
	c-0.4,0-0.9,0-1.2-0.1c-0.3-0.1-0.8-0.2-1.1-0.3c-0.3-0.1-0.6-0.3-1-0.5c-0.3-0.2-0.6-0.4-0.9-0.8c-1.1-1.1-1.7-2.6-1.7-4.1
	s0.6-3,1.7-4.1c1.4-1.4,3.4-2,5.3-1.6c0.3,0.1,0.8,0.2,1.1,0.3c0.3,0.1,0.6,0.3,1,0.5c0.3,0.2,0.5,0.4,0.9,0.8
	c0.3,0.2,0.5,0.5,0.8,0.9c0.2,0.2,0.4,0.6,0.5,1C169.5,196.1,169.6,196.5,169.7,196.9z M414,229.9c0-3.2,2.6-5.8,5.8-5.8h27.5
	c3.2,0,5.8,2.6,5.8,5.8c0,3.2-2.6,5.8-5.8,5.8h-27.5C416.5,235.7,414,233.1,414,229.9z M221.3,333c-5.5,0-10,4.5-10,10
	c0,5.5,4.5,10,10,10c5.5,0,10-4.5,10-10C231.3,337.4,226.8,333,221.3,333z M221.3,344.6c-1,0-1.7-0.8-1.7-1.7c0-1,0.8-1.7,1.7-1.7
	c1,0,1.7,0.8,1.7,1.7C223,343.8,222.2,344.6,221.3,344.6z M140.5,198.1c0,3.2-2.6,5.8-5.8,5.8s-5.8-2.6-5.8-5.8s2.6-5.8,5.8-5.8
	S140.5,194.8,140.5,198.1z M486.8,395.3h-11h-95.4v-15.5h95.4h11V395.3z"/>
</svg>
