<?xml version="1.0" encoding="utf-8"?>
<!-- Generator: Adobe Illustrator 21.0.2, SVG Export Plug-In . SVG Version: 6.00 Build 0)  -->
<svg version="1.1" id="Layer_1" xmlns="http://www.w3.org/2000/svg" xmlns:xlink="http://www.w3.org/1999/xlink" x="0px" y="0px"
	 viewBox="0 0 512 512" style="enable-background:new 0 0 512 512;" xml:space="preserve">
<style type="text/css">
	.st0{fill:#B8C2DA;}
	.st1{fill:#002655;}
</style>
<path class="st0" d="M137.5,379.9c0,6.4-5.2,11.6-11.6,11.6c-6.4,0-11.6-5.2-11.6-11.6c0-6.4,5.2-11.6,11.6-11.6
	C132.3,368.3,137.5,373.5,137.5,379.9z M161.8,411.8c0.5,0,1-0.4,1-1V207.9c0-0.5-0.4-1-1-1H144V370c1.6,2.9,2.5,6.3,2.5,9.9
	c0,3.5-0.9,6.9-2.5,9.8v22.1H161.8z M254.2,107.5c2.4-3.1,5.9-4.1,6.8-4.3c1.5-0.3,9.2-1.6,13,6.3c12.4,25.9,15.7,53.1,9.6,80.9
	c-1.5,7.1,0.2,14.3,4.7,19.7c3.5,4.3,8.3,7.2,13.6,8.3c-0.1,0-0.3,0-0.4,0c-38.5,0-36.4-23.4-32-56C274,129,261.3,116.2,254.2,107.5
	z M395,219h11.3c4.7,0,9,1.9,12.2,5.3l0.2,0.2c3.3,3.3,5,7.7,4.6,12.3l0,0.1c-0.6,8.8-8.4,15.7-17.7,15.7c-3.4,0-7.3,0-11.6,0
	c8,0,13.5-8.6,13.5-18.6S395,219,395,219z M387.5,273.7h5.4c0.3,0,0.8,0,1.5-0.1c4.5,0.1,8.7,2,11.9,5.3c3.2,3.3,4.7,7.8,4.5,12.6
	c-0.6,8.8-8.4,15.7-17.7,15.7h-7.2c6.5-1.9,10.7-10.1,10.7-19.4C396.5,280.8,391.2,276.1,387.5,273.7z M374.9,328.3h7.7
	c4.2,0.3,7.9,2.1,10.9,5.2c3.2,3.3,4.7,7.8,4.5,12.5c-0.6,8.7-8.4,15.6-17.7,15.6h-5c5.7-2.6,9.3-10.2,9.3-18.9
	C384.5,335.4,378.5,330.6,374.9,328.3z M362.7,382.7h5.8c9.7,0,16.7,6.1,16.7,14.4c0,12.9-12.4,14.3-17.7,14.3c-1.7,0-3.4,0-5,0
	c5.8-2.1,9.5-8.8,9.5-16.4C372,388.8,366.4,384.7,362.7,382.7z"/>
<path class="st1" d="M434.2,209.9c-7.1-7.6-17.2-12-27.6-12H307c-0.8,0-1.5-0.4-2-0.9c-0.5-0.6-0.7-1.4-0.5-2.1
	c7-32.3,3.3-64-11.2-94.3c-7.8-16.2-23.9-20.6-36.5-17.8c-12.6,2.7-25.4,13.4-25.6,31.2c-1,51-31.1,75-49.4,84.9
	c-3.5-7.7-11.2-13-20-13H78.5c-5.8,0-10.5,4.7-10.5,10.5v226c0,5.8,4.7,10.5,10.5,10.5h83.3c9.5,0,17.8-6.2,20.8-14.9
	c24.8,3.8,101.2,14.5,185.2,14.5c18.6,0,38.7-11,38.7-35.3c0-7.3-2.1-14.1-6.1-19.8c10.7-6.3,18-17.5,18.7-29.9
	c0.6-8.7-1.8-17.2-6.8-24.3c11.1-6.2,18.6-17.5,19.5-30.3c0.6-8.7-1.8-17.2-6.8-24.3c11.1-6.2,18.6-17.5,19.5-30.3l0-0.1
	C445,227.5,441.3,217.5,434.2,209.9z M125.9,391.5c-6.4,0-11.6-5.2-11.6-11.6c0-6.4,5.2-11.6,11.6-11.6c6.4,0,11.6,5.2,11.6,11.6
	C137.5,386.3,132.3,391.5,125.9,391.5z M162.8,410.8c0,0.6-0.5,1-1,1H144h-13.6V400c5.9-1.3,10.8-5.2,13.6-10.3
	c1.6-2.9,2.5-6.2,2.5-9.8c0-3.6-0.9-6.9-2.5-9.9c-3.5-6.4-10.3-10.7-18.1-10.7c-11.4,0-20.6,9.2-20.6,20.6c0,9.8,6.9,18,16.1,20.1
	v11.8H89V206.9h55h17.8c0.6,0,1,0.5,1,1V410.8z M423.3,236.8L423.3,236.8c-0.6,8.9-8.4,15.8-17.7,15.8c-3.4,0-7.3,0-11.6,0
	c-0.3,0-0.9,0-1.5,0.1h-37c-5.8,0-10.5,4.7-10.5,10.5s4.7,10.5,10.5,10.5h32h5.4c0.3,0,0.8,0,1.5-0.1c4.5,0.1,8.7,2,11.9,5.3
	c3.2,3.3,4.7,7.8,4.5,12.6c-0.6,8.8-8.4,15.7-17.7,15.7h-7.2h-4.5c-0.3,0-0.9,0-1.6,0.1h-28c-5.8,0-10.5,4.7-10.5,10.5
	s4.7,10.5,10.5,10.5h23.2h7.7c4.2,0.3,7.9,2.1,10.9,5.2c3.2,3.3,4.7,7.8,4.5,12.5c-0.6,8.7-8.4,15.6-17.7,15.6h-5h-27.7
	c-5.8,0-10.5,4.7-10.5,10.5s4.7,10.5,10.5,10.5h15.2h5.8c9.7,0,16.7,6.1,16.7,14.4c0,12.9-12.4,14.3-17.7,14.3c-1.7,0-3.4,0-5,0
	c-83.3-0.4-157.9-11.2-178.9-14.5V221.3c7.4-3.3,18.7-9.4,30.1-19.6c17-15.2,37.5-42.7,38.2-87.3c0.1-3,1-5.2,2.3-6.9
	c2.4-3.1,5.9-4.1,6.8-4.3c1.5-0.3,9.2-1.6,13,6.3c12.4,25.9,15.7,53.1,9.6,80.9c-1.5,7.1,0.2,14.3,4.7,19.7
	c3.5,4.3,8.3,7.2,13.6,8.3c1.6,0.3,3.2,0.5,4.8,0.5H395h11.3c4.7,0,9,1.9,12.2,5.3l0.2,0.2C422,227.8,423.7,232.1,423.3,236.8z"/>
</svg>
