<?xml version="1.0" encoding="utf-8"?>
<!-- Generator: Adobe Illustrator 21.0.2, SVG Export Plug-In . SVG Version: 6.00 Build 0)  -->
<svg version="1.1" id="Layer_2" xmlns="http://www.w3.org/2000/svg" xmlns:xlink="http://www.w3.org/1999/xlink" x="0px" y="0px"
	 viewBox="0 0 512 512" style="enable-background:new 0 0 512 512;" xml:space="preserve">
<style type="text/css">
	.st0{display:none;fill:#002655;}
	.st1{fill:#B8C2DA;}
	.st2{fill:#002655;}
</style>
<path class="st0" d="M181.1,224.6l-18.5-18.5l13.5-13.5l10.9,10.9l26-32.9l15,11.8l-32.7,41.4c-1.7,2.1-4.2,3.5-7,3.6
	c-0.2,0-0.4,0-0.6,0C185.4,227.4,182.9,226.4,181.1,224.6z M347.5,189.2h-89.1v19.1h89.1V189.2z M347.5,271.9h-89.1V291h89.1V271.9z
	 M258.4,373.7h89.1v-19.1h-89.1V373.7z M409.5,62H366v19.1h15.7H400V450h-18.3H112.1V81.1h33.6V62h-43.1c-5.3,0-9.5,4.3-9.5,9.5v388
	c0,5.3,4.3,9.5,9.5,9.5h306.9c5.3,0,9.5-4.2,9.5-9.5v-388C419,66.3,414.7,62,409.5,62z M187.8,309.7c0.2,0,0.4,0,0.6,0
	c2.8-0.2,5.2-1.5,7-3.6l32.7-41.4l-15-11.8l-26,32.9l-10.9-10.9l-13.5,13.5l18.5,18.5C182.9,308.7,185.4,309.7,187.8,309.7z
	 M187.8,392.8c0.2,0,0.4,0,0.6,0c2.8-0.2,5.2-1.5,7-3.6l32.7-41.4l-15-11.8l-26,32.9L176.2,358l-13.5,13.5l18.5,18.5
	C182.9,391.8,185.4,392.8,187.8,392.8z M171.9,85.3V52.5c0-5.2,4.3-9.5,9.5-9.5h149.1c5.2,0,9.5,4.3,9.5,9.5v32.8
	c0,22.2-18.1,40.3-40.3,40.3h-87.6C190,125.7,171.9,107.6,171.9,85.3z M191,85.3c0,11.6,9.5,21.2,21.2,21.2h87.6
	c1,0,2.1-0.1,3.1-0.2c10.2-1.5,18.1-10.4,18.1-20.9V62h-18.1H191V85.3z"/>
<path class="st1" d="M412.8,180.3h-23.3l-18.6-56.5c0,0-2.8-11.4-16.1-11.4c-13.3,0-8.3,0-8.3,0c34.6-3.3,46.4-3.3,51.1,7.1
	S412.8,180.3,412.8,180.3z"/>
<path class="st1" d="M453.8,180.2c0,0,4.7,0.5,6.2,3.8c1.4,3.3,2.8,6.2,2.8,6.2s5.7,8.5-2.4,11.8c19.9-6.2,22.3-8.1,21.3-13.3
	C480.8,183.5,476.1,171.2,453.8,180.2z"/>
<path class="st1" d="M427.4,213.5l-20,5.6l39.3,34.1c0,0,5.9,2.8,5.9,21.3c0,14.9,0,127.9,0,127.9h22.7l6.6-10.4V250.8L427.4,213.5z
	"/>
<rect x="78.9" y="359.4" class="st1" width="21.8" height="43"/>
<g>
	<path class="st2" d="M495.8,183.9l-3.3-7.9c-3.5-8.3-11.5-13.7-20.5-13.7h-46.2l-13.9-43c-4.8-14.7-18.4-24.6-33.9-24.6H134
		c-15.5,0-29.1,9.9-33.9,24.6l-13.9,43H40c-9,0-17.1,5.4-20.5,13.7l-3.3,7.9c-2.3,5.6-2.3,12.1,0.2,17.6c2.5,5.6,7.2,9.9,13,11.9
		l20.2,7l-15.9,14.1c-8.1,7.2-12.8,17.5-12.8,28.4v132c0,12.3,10,22.3,22.3,22.3h53.1c12.3,0,22.3-10,22.3-22.3v-17.5h274.5v17.5
		c0,12.3,10,22.3,22.3,22.3h53.1c12.3,0,22.3-10,22.3-22.3v-132c0-10.8-4.7-21.2-12.8-28.4l-15.9-14.1l20.2-7
		c5.8-2,10.5-6.3,13-11.9C498.1,196,498.1,189.5,495.8,183.9z M479.1,194.2c-0.3,0.6-1,1.7-2.5,2.3l-49.3,17l39,34.5
		c4.3,3.8,6.7,9.2,6.7,14.9v132c0,2.4-2,4.3-4.3,4.3h-53.1c-2.4,0-4.3-2-4.3-4.3v-35.5H100.7v35.5c0,2.4-2,4.3-4.3,4.3H43.3
		c-2.4,0-4.3-2-4.3-4.3v-132c0-5.7,2.4-11.1,6.7-14.9l39-34.5l-49.3-17c-1.5-0.5-2.2-1.6-2.5-2.3c-0.3-0.6-0.7-1.9,0-3.4l3.3-7.9
		c0.7-1.6,2.2-2.6,3.9-2.6h59.2l18-55.4c2.4-7.3,9.1-12.2,16.8-12.2h244c7.7,0,14.4,4.9,16.8,12.2l18,55.4H472c1.7,0,3.2,1,3.9,2.6
		l3.3,7.9C479.8,192.3,479.4,193.6,479.1,194.2z"/>
	<path class="st2" d="M138.6,270.5l-61.3-13.3c-8.8-1.9-17,4.8-17,13.7v13.3c0,7.8,6.3,14,14,14h61.3c7.8,0,14-6.3,14-14
		C149.6,277.6,145,271.9,138.6,270.5z"/>
	<path class="st2" d="M383.6,146.9c-3.2-10-12.5-16.7-23-16.7H256h0H151.5c-10.5,0-19.8,6.8-23,16.7l-18.1,55.9H256h145.7
		L383.6,146.9z M256,184.8H135l10.5-32.3c0.8-2.6,3.2-4.3,5.9-4.3H256h104.5c2.7,0,5.1,1.7,5.9,4.3l10.5,32.3H256z"/>
	<path class="st2" d="M362.4,284.2c0,7.8,6.3,14,14,14h61.3c7.8,0,14-6.3,14-14V271c0-9-8.3-15.6-17-13.7l-61.3,13.3
		C367,271.9,362.4,277.6,362.4,284.2z"/>
</g>
<rect x="185.1" y="298.3" class="st2" width="139.9" height="13.5"/>
<rect x="185.1" y="268.5" class="st2" width="139.9" height="13.5"/>
</svg>
