<?xml version="1.0" encoding="utf-8"?>
<!-- Generator: Adobe Illustrator 21.0.2, SVG Export Plug-In . SVG Version: 6.00 Build 0)  -->
<svg version="1.1" id="Layer_1" xmlns="http://www.w3.org/2000/svg" xmlns:xlink="http://www.w3.org/1999/xlink" x="0px" y="0px"
	 viewBox="0 0 512 512" style="enable-background:new 0 0 512 512;" xml:space="preserve">
<style type="text/css">
	.st0{fill:#B8C2DA;}
	.st1{fill:#002655;}
</style>
<path class="st0" d="M134,308.4h21.6v123.8H134V308.4z M255.8,144.6l-17.9,15.7l150,131.5l-0.2,140.2h23v-151L255.8,144.6z
	 M311.9,360.3h32.4v-32.4h-32.4V360.3z"/>
<path class="st1" d="M81.2,272.3v179.4h93.9V327.9h50.7v123.8h204.5V272.3L255.7,118.6L81.2,272.3z M277,163.3l133.8,117.8v151h0
	h-0.1h-23H245.3V308.4h-88.8h-0.9v123.8H134h-7.2h-26.1V281.1l137.2-120.7l17.9-15.7l0.1,0L277,163.3z M473.9,255l-13,14.6
	L255.7,87.1L50.6,269.6l-13-14.6L255.7,61l151.1,134.4v-45.1h23.5v65.9v0.1L473.9,255z M292.4,308.4v71.4h71.4v-71.4H292.4z
	 M344.3,360.3h-32.4v-32.4h32.4V360.3z"/>
</svg>
