<?xml version="1.0" encoding="utf-8"?>
<!-- Generator: Adobe Illustrator 21.0.2, SVG Export Plug-In . SVG Version: 6.00 Build 0)  -->
<svg version="1.1" id="Layer_1" xmlns="http://www.w3.org/2000/svg" xmlns:xlink="http://www.w3.org/1999/xlink" x="0px" y="0px"
	 viewBox="0 0 512 512" style="enable-background:new 0 0 512 512;" xml:space="preserve">
<style type="text/css">
	.st0{fill:#002655;}
	.st1{fill:#B8C2DA;}
</style>
<path class="st0" d="M293.7,160.4c0-2.6-0.2-5-0.7-7.4c-3.4-17.6-18.9-30.9-37.5-30.9S221.4,135.4,218,153c-0.4,2.4-0.7,4.9-0.7,7.4
	c0,21.1,17.1,38.2,38.2,38.2S293.8,181.4,293.7,160.4z M274.1,153c0.9,2.3,1.4,4.8,1.4,7.4c0,11-8.9,20-20,20c-11,0-20-8.9-20-20
	c0-2.6,0.5-5.1,1.4-7.4c2.9-7.4,10.1-12.7,18.6-12.7C264,140.3,271.2,145.6,274.1,153z M484.6,325.8h-41.5v-18.2h41.5V325.8z
	 M4.2,162.2H87v6.6h0.1v48.4v3.6v86.8v9.1v9.1v52.8H87V419H4.2v18.2h502.6V419h-82.7v-40.4H424v-52.8v-9.1v-9.1v-86.8V217v-48.3l0,0
	v-6.6h82.8v-18.2H398.2C368.4,103.2,315.5,76,255.5,76s-112.8,27.1-142.7,67.9H4.2V162.2L4.2,162.2z M255.4,94.3
	c48.6,0,91.9,19.5,119.4,49.7h-29.5v0.4v8.6v9.1l0,0V162h43.3h17.2v0.1l0,0v58.6v86.8h-39.2c-13.7-49.4-59.3-84.5-111.1-84.5
	s-97.4,35.1-111.1,84.5h-39.2v-86.8v-58.6l0,0V162h17.2h43.3v0.1l0,0V153v-9.1h-29.5C163.7,113.7,206.8,94.3,255.4,94.3z
	 M405.9,418.9h-19.7v-93.2h19.7C405.9,325.7,405.9,418.9,405.9,418.9z M297.7,418.9v0.2h-86.5v-0.2v-74.6h86.5L297.7,418.9
	L297.7,418.9z M174.1,418.9H143h-0.1v-93.2h0.1h13.3h0.3h2.2l0.3-1.5l1.1-5.3l0.1-0.5c1.2-5.6,2.8-11,4.9-16.2
	c14.5-36.1,50.2-61,90.2-61c40.1,0,75.7,24.8,90.2,61c2.1,5.2,3.7,10.6,4.9,16.2l0.1,0.5l1.1,5.3l0.3,1.5h2.2l0,0h13.7h0.1v93.2l0,0
	h-31h-21.1v-92.8H193v92.8L174.1,418.9L174.1,418.9z M105.2,325.7h19.7v93.2h-19.7V325.7z M68,325.8H26.2v-18.2H68V325.8z"/>
<path class="st1" d="M156.5,325.6h-13.3v93.2h31v-90.5c0.2-2.4,0.5-4.7,0.9-6.8c8.1-37.7,41.8-65,80.5-65s72.5,27.4,80.5,65.2
	c0.4,2.1,0.7,4.4,0.9,6.7v90.5h31v-93.2h-13.6l0,0h-2.2l-0.3-1.5l-1.1-5.3l-0.1-0.5c-1.2-5.6-2.8-11-4.9-16.2
	c-14.5-36.1-50.2-61-90.2-61c-40.1,0-75.7,24.8-90.2,61c-2.1,5.2-3.7,10.6-4.9,16.2l-0.1,0.5l-1.1,5.3l-0.3,1.5h-2.2h-0.3V325.6z
	 M345.4,144.3v-0.4h29.5c-27.5-30.2-70.8-49.7-119.4-49.6l0,0C321.6,94.3,345.4,144.3,345.4,144.3z M275.5,160.4
	c0-2.6-0.5-5.1-1.4-7.4c-2.9-7.4-10.1-12.7-18.6-12.7c-8.5,0-15.7,5.3-18.6,12.7c-0.9,2.3-1.4,4.8-1.4,7.4c0,11,8.9,20,20,20
	C266.6,180.4,275.6,171.4,275.5,160.4z M211.2,419.1h86.5v-0.2v-74.6h-86.5v74.6V419.1z M405.9,219.5v-57.4V162h-17.2h-43.3v0.1v18
	h42.3v127.4h18.2V219.5z M165.7,180.1v-18V162h-43.3h-17.2v0.1v18h8H165.7z"/>
</svg>
