<?xml version="1.0" standalone="no"?>
<!DOCTYPE svg PUBLIC "-//W3C//DTD SVG 20010904//EN"
 "http://www.w3.org/TR/2001/REC-SVG-20010904/DTD/svg10.dtd">
<svg version="1.0" xmlns="http://www.w3.org/2000/svg"
 width="3000.000000pt" height="3000.000000pt" viewBox="0 0 3000.000000 3000.000000"
 preserveAspectRatio="xMidYMid meet">

<g transform="translate(0.000000,3000.000000) scale(0.100000,-0.100000)"
fill="#000000" stroke="none">
<path d="M17855 18320 c-111 -12 -193 -36 -295 -87 -176 -86 -299 -244 -365
-469 -36 -120 -45 -276 -20 -359 43 -150 113 -214 361 -336 198 -97 245 -134
258 -203 17 -90 -55 -212 -139 -235 -51 -13 -108 1 -130 32 -17 24 -20 114 -5
165 6 24 6 39 -3 53 -11 18 -27 19 -273 19 l-262 0 -15 -87 c-34 -190 -29
-274 25 -376 68 -128 192 -187 435 -208 214 -19 424 15 583 93 105 52 228 169
283 268 50 90 94 228 108 338 22 175 -17 300 -128 410 -57 56 -86 73 -256 156
-191 93 -248 132 -268 183 -34 91 32 216 129 242 97 27 142 -46 111 -178 -16
-72 -21 -71 267 -71 232 0 253 1 258 18 15 53 28 194 23 257 -17 196 -129 318
-332 359 -90 19 -261 27 -350 16z"/>
<path d="M7476 18223 c-8 -38 -103 -484 -211 -992 -158 -746 -194 -929 -186
-948 l11 -23 251 2 252 3 111 522 c61 287 113 519 117 515 3 -4 20 -230 38
-502 18 -272 34 -505 37 -518 l4 -22 302 2 302 3 212 995 c193 907 210 997
196 1013 -14 15 -39 17 -264 17 -136 0 -248 -2 -248 -5 0 -14 -221 -1039 -225
-1043 -3 -3 -5 6 -5 19 0 13 -14 242 -30 509 -16 267 -30 493 -30 503 0 16
-21 17 -309 17 l-309 0 -16 -67z"/>
<path d="M11525 18278 c-2 -7 -22 -96 -44 -198 -35 -169 -37 -187 -23 -203 14
-16 37 -17 271 -15 l256 3 42 195 c39 179 41 196 26 212 -15 16 -40 18 -270
18 -194 0 -255 -3 -258 -12z"/>
<path d="M10656 18251 c-5 -7 -96 -423 -96 -436 0 -3 -38 -5 -84 -5 l-84 0
-10 -47 c-78 -370 -79 -343 24 -343 45 0 64 -4 64 -12 0 -7 -39 -193 -86 -413
-70 -328 -86 -417 -87 -495 -2 -87 0 -99 25 -142 41 -69 105 -97 244 -107 112
-8 393 3 405 16 4 5 23 84 43 177 26 126 33 173 25 183 -7 7 -32 13 -60 13
-57 0 -94 12 -103 35 -3 9 29 180 71 381 l77 364 98 0 c83 0 97 2 102 18 13
47 66 306 66 325 0 38 -19 47 -102 47 -43 0 -78 2 -78 5 0 3 18 90 40 194 44
206 46 221 28 239 -14 14 -513 17 -522 3z"/>
<path d="M18890 18108 c-17 -84 -39 -186 -48 -225 l-15 -73 -82 0 -83 0 -15
-67 c-74 -329 -74 -323 29 -323 35 0 64 -4 64 -10 0 -5 -39 -191 -86 -412 -72
-335 -87 -419 -88 -498 -1 -84 2 -100 24 -140 54 -97 205 -131 498 -110 86 6
157 12 158 13 0 1 17 80 38 176 25 122 33 177 26 186 -6 7 -40 15 -77 18 -72
5 -96 22 -88 61 2 12 37 174 76 361 39 187 74 343 78 347 3 4 49 8 100 10 l94
3 38 175 c45 214 46 210 -73 210 -43 0 -78 3 -78 8 1 4 20 97 44 207 39 181
42 202 28 218 -14 15 -40 17 -272 17 l-257 0 -33 -152z"/>
<path d="M9546 17840 c-112 -14 -166 -30 -265 -77 -159 -76 -271 -212 -316
-383 -13 -49 -13 -56 2 -72 15 -17 35 -18 236 -16 l220 3 17 51 c38 112 71
144 148 144 56 0 77 -19 76 -72 -1 -65 -35 -122 -86 -146 -24 -12 -120 -39
-213 -60 -341 -79 -458 -152 -545 -337 -77 -164 -99 -366 -52 -470 47 -103
130 -158 266 -175 140 -18 275 20 377 106 l44 37 5 -54 5 -54 244 -3 c287 -3
283 -4 274 84 -8 72 3 136 109 629 105 493 111 557 63 664 -60 132 -187 192
-440 204 -55 3 -131 1 -169 -3z m19 -912 c-47 -232 -89 -302 -185 -315 -54 -7
-80 21 -80 85 0 122 58 198 179 236 97 31 94 31 86 -6z"/>
<path d="M12710 17839 c-109 -8 -197 -31 -285 -75 -239 -117 -368 -341 -462
-798 -21 -107 -26 -159 -27 -281 0 -133 2 -156 22 -207 67 -168 229 -249 502
-249 262 -1 436 64 579 216 110 118 179 261 236 490 104 415 96 634 -30 774
-91 100 -293 150 -535 130z m80 -384 c20 -24 6 -201 -28 -367 -62 -292 -95
-398 -144 -454 -25 -29 -37 -34 -73 -34 -27 0 -47 6 -56 17 -32 38 0 284 76
577 34 136 69 220 105 256 25 25 101 28 120 5z"/>
<path d="M14415 17840 c-98 -13 -186 -54 -259 -119 l-29 -26 7 37 c4 22 2 46
-4 58 -11 20 -18 20 -263 18 l-252 -3 -157 -735 c-86 -404 -157 -746 -157
-760 -1 -15 4 -31 11 -38 15 -15 514 -17 523 -3 3 5 55 241 115 525 60 284
116 531 124 549 20 49 60 77 110 77 53 0 66 -13 66 -67 0 -24 -47 -266 -105
-538 -58 -272 -105 -502 -105 -513 0 -40 14 -42 276 -42 146 0 255 4 259 9 3
5 62 274 131 598 142 661 149 722 106 818 -28 60 -55 91 -102 115 -73 37 -192
53 -295 40z"/>
<path d="M15557 17839 c-356 -35 -609 -280 -610 -594 0 -88 15 -140 56 -201
55 -83 131 -126 376 -215 150 -54 189 -105 138 -180 -45 -68 -137 -90 -183
-44 -22 22 -25 33 -23 85 4 93 12 90 -251 90 l-228 0 -12 -85 c-44 -313 123
-466 510 -467 387 -1 670 203 736 531 30 154 2 262 -92 351 -62 59 -125 90
-307 150 -191 63 -227 107 -154 186 28 31 42 37 84 41 43 5 54 2 73 -17 19
-19 22 -30 17 -70 -10 -79 -7 -80 247 -80 l216 0 9 23 c18 46 23 154 11 213
-21 102 -68 169 -155 220 -91 53 -285 80 -458 63z"/>
<path d="M20160 17840 c-298 -38 -501 -198 -575 -453 -16 -55 -16 -59 1 -78
16 -18 32 -19 239 -19 l223 0 11 46 c20 77 49 124 86 140 44 18 96 18 121 0
23 -18 24 -88 0 -134 -32 -62 -64 -77 -253 -122 -295 -71 -401 -117 -492 -216
-117 -128 -188 -393 -147 -552 27 -105 79 -163 180 -201 153 -56 333 -26 473
80 l53 40 0 -56 0 -55 251 0 c290 0 282 -2 272 85 -7 69 4 134 108 624 100
469 110 549 76 648 -37 106 -133 179 -275 208 -87 18 -269 26 -352 15z m9
-981 c-38 -169 -84 -235 -168 -246 -54 -7 -81 20 -81 82 0 92 45 176 115 213
29 15 147 52 153 47 1 -1 -7 -44 -19 -96z"/>
<path d="M21880 17839 c-66 -13 -161 -63 -219 -115 -28 -25 -51 -42 -51 -37 0
4 5 26 10 48 7 32 6 43 -7 57 -15 16 -40 18 -265 18 -136 0 -248 -2 -248 -4 0
-1 -72 -342 -160 -756 -151 -711 -159 -754 -143 -772 15 -17 34 -18 272 -16
l256 3 92 434 c51 239 99 452 108 474 25 64 63 105 123 134 53 26 65 28 182
28 l126 -1 51 241 c46 218 49 242 35 258 -17 19 -82 22 -162 6z"/>
<path d="M11424 17796 c-3 -7 -76 -348 -163 -757 -145 -678 -158 -746 -143
-761 14 -16 40 -18 269 -18 194 0 255 3 258 13 3 6 76 347 164 757 144 675
157 747 143 763 -14 15 -40 17 -269 17 -205 0 -255 -3 -259 -14z"/>
<path d="M7460 16068 c-6 -29 -101 -476 -211 -993 -158 -743 -198 -945 -190
-962 l11 -23 264 0 c146 0 267 4 270 9 3 4 100 453 216 997 195 921 208 989
193 1006 -15 16 -38 18 -279 18 l-262 0 -12 -52z"/>
<path d="M16925 16108 c-2 -7 -22 -96 -44 -198 -35 -168 -37 -187 -23 -202 14
-16 40 -18 269 -18 194 0 255 3 258 13 3 6 23 95 44 197 37 170 38 186 24 202
-15 16 -40 18 -270 18 -194 0 -255 -3 -258 -12z"/>
<path d="M22055 16108 c-2 -7 -99 -456 -214 -998 -191 -899 -208 -987 -193
-1002 14 -16 40 -18 269 -18 194 0 255 3 258 13 3 6 99 455 214 997 194 908
209 986 194 1002 -15 16 -40 18 -270 18 -194 0 -255 -3 -258 -12z"/>
<path d="M9795 16081 c-4 -8 -95 -422 -95 -436 0 -3 -38 -5 -84 -5 l-84 0 -10
-47 c-78 -370 -79 -343 24 -343 45 0 64 -4 64 -12 0 -7 -39 -193 -86 -413 -70
-328 -86 -417 -87 -495 -2 -87 0 -99 25 -142 41 -69 105 -97 244 -107 112 -8
393 3 405 16 4 5 23 84 43 177 26 126 33 173 25 183 -7 7 -32 13 -60 13 -57 0
-94 12 -103 35 -3 9 29 180 71 381 l77 364 98 0 c83 0 97 2 102 18 13 47 66
306 66 325 0 38 -19 47 -102 47 -43 0 -78 2 -78 5 0 3 18 90 40 194 44 206 46
221 28 239 -15 15 -514 17 -523 3z"/>
<path d="M16055 16081 c-4 -8 -95 -422 -95 -436 0 -3 -38 -5 -84 -5 l-84 0
-10 -47 c-78 -370 -79 -343 24 -343 45 0 64 -4 64 -12 0 -7 -39 -193 -86 -413
-70 -328 -86 -417 -87 -495 -2 -87 0 -99 25 -142 41 -69 105 -97 244 -107 112
-8 393 3 405 16 4 5 23 84 43 177 26 126 33 173 25 183 -7 7 -32 13 -60 13
-57 0 -94 12 -103 35 -3 9 29 180 71 381 l77 364 98 0 c83 0 97 2 102 18 13
47 66 306 66 325 0 38 -19 47 -102 47 -43 0 -78 2 -78 5 0 3 18 90 40 194 44
206 46 221 28 239 -15 15 -514 17 -523 3z"/>
<path d="M8940 15670 c-103 -13 -184 -49 -257 -113 l-36 -32 7 37 c4 22 2 46
-4 58 -11 20 -18 20 -263 18 l-252 -3 -157 -735 c-86 -404 -157 -746 -157
-760 -1 -15 4 -31 11 -38 15 -15 514 -17 523 -3 3 5 52 231 110 503 58 271
112 516 120 545 20 67 61 103 119 103 53 0 66 -13 66 -67 0 -23 -47 -265 -105
-537 -58 -272 -105 -502 -105 -513 0 -41 13 -43 276 -43 149 0 255 4 259 9 3
6 62 275 132 598 141 661 149 721 105 818 -28 60 -55 91 -102 115 -71 36 -192
53 -290 40z"/>
<path d="M11060 15670 c-383 -39 -591 -268 -704 -770 -39 -179 -50 -255 -50
-385 -1 -161 22 -240 95 -319 92 -100 208 -137 439 -137 383 0 611 160 711
503 33 113 45 108 -237 108 l-233 0 -11 -42 c-39 -153 -88 -217 -167 -218 -76
0 -90 62 -52 240 l22 100 368 0 c342 0 368 1 373 18 3 9 18 78 33 152 24 115
28 158 28 295 0 145 -3 166 -24 219 -29 72 -98 149 -163 182 -93 47 -274 70
-428 54z m103 -368 c25 -27 29 -69 15 -147 l-13 -70 -112 -3 -112 -3 20 72
c11 39 27 85 35 101 31 60 131 90 167 50z"/>
<path d="M12712 15670 c-70 -10 -164 -58 -229 -115 -29 -26 -53 -43 -53 -38 0
4 5 26 10 48 7 32 6 43 -7 57 -15 16 -40 18 -264 18 l-248 0 -11 -57 c-7 -32
-79 -373 -161 -757 -139 -655 -148 -701 -132 -718 15 -17 35 -18 271 -16 l255
3 92 431 c51 237 98 447 104 467 20 59 67 115 123 144 50 26 61 28 183 29
l129 0 48 220 c26 120 47 230 48 245 0 49 -32 57 -158 39z"/>
<path d="M13770 15670 c-103 -13 -184 -49 -257 -113 l-36 -32 7 37 c4 22 2 46
-4 58 -11 20 -18 20 -263 18 l-252 -3 -157 -735 c-86 -404 -157 -746 -157
-760 -1 -15 4 -31 11 -38 15 -15 514 -17 523 -3 3 5 52 231 110 503 58 271
112 516 120 545 20 67 61 103 119 103 53 0 66 -13 66 -67 0 -23 -47 -265 -105
-537 -58 -272 -105 -502 -105 -513 0 -41 13 -43 276 -43 149 0 255 4 259 9 3
6 62 275 132 598 141 661 149 721 105 818 -28 60 -55 91 -102 115 -71 36 -192
53 -290 40z"/>
<path d="M14946 15670 c-112 -14 -166 -30 -265 -77 -159 -76 -271 -212 -316
-383 -13 -49 -13 -56 2 -72 15 -17 35 -18 236 -16 l220 3 17 51 c38 112 71
144 148 144 56 0 77 -19 76 -72 -1 -65 -35 -122 -86 -146 -24 -12 -120 -39
-213 -60 -341 -79 -458 -152 -545 -337 -77 -164 -99 -366 -52 -470 47 -103
130 -158 265 -175 142 -18 274 19 378 106 l44 37 5 -54 5 -54 244 -3 c287 -3
283 -4 274 84 -8 71 4 138 103 604 47 217 89 430 94 472 26 224 -70 357 -291
401 -96 20 -256 27 -343 17z m19 -912 c-47 -232 -89 -302 -185 -315 -54 -7
-80 21 -80 85 0 122 58 198 179 236 97 31 94 31 86 -6z"/>
<path d="M18110 15669 c-108 -8 -196 -31 -285 -74 -237 -115 -368 -342 -462
-799 -21 -107 -26 -159 -27 -281 0 -133 2 -156 22 -207 67 -168 229 -249 502
-249 264 -1 436 63 579 216 110 118 179 261 236 490 105 416 96 634 -30 774
-91 100 -293 150 -535 130z m80 -384 c19 -23 6 -206 -25 -350 -67 -316 -98
-415 -147 -471 -25 -29 -37 -34 -73 -34 -27 0 -47 6 -56 17 -32 38 0 284 76
577 34 136 69 220 105 256 25 25 101 28 120 5z"/>
<path d="M19820 15670 c-103 -13 -184 -49 -257 -113 l-36 -32 7 37 c4 22 2 46
-4 58 -11 20 -18 20 -263 18 l-252 -3 -157 -735 c-86 -404 -157 -746 -157
-760 -1 -15 4 -31 11 -38 15 -15 514 -17 523 -3 3 5 52 231 110 503 58 271
112 516 120 545 20 67 61 103 119 103 53 0 66 -13 66 -67 0 -23 -47 -265 -105
-537 -58 -272 -105 -502 -105 -513 0 -41 13 -43 276 -43 149 0 255 4 259 9 3
6 62 275 132 598 141 661 149 721 105 818 -28 60 -55 91 -102 115 -71 36 -192
53 -290 40z"/>
<path d="M20996 15670 c-112 -14 -166 -30 -265 -77 -159 -76 -271 -212 -316
-383 -13 -49 -13 -56 2 -72 15 -17 35 -18 236 -16 l220 3 17 51 c38 112 71
144 148 144 56 0 77 -19 76 -72 -1 -65 -35 -122 -86 -146 -24 -12 -120 -39
-213 -60 -341 -79 -458 -152 -545 -337 -77 -164 -99 -366 -52 -470 47 -103
130 -158 265 -175 142 -18 274 19 378 106 l44 37 5 -54 5 -54 244 -3 c287 -3
283 -4 274 84 -8 71 4 138 103 604 47 217 89 430 94 472 26 224 -70 357 -291
401 -96 20 -256 27 -343 17z m19 -912 c-47 -232 -89 -302 -185 -315 -54 -7
-80 21 -80 85 0 122 58 198 179 236 97 31 94 31 86 -6z"/>
<path d="M16824 15626 c-3 -8 -77 -349 -164 -758 -144 -678 -157 -745 -142
-760 14 -16 40 -18 269 -18 194 0 255 3 258 13 3 6 76 347 164 757 143 675
157 747 143 763 -14 15 -40 17 -269 17 -209 0 -255 -2 -259 -14z"/>
<path d="M6900 12695 l0 -1085 8105 0 8105 0 0 1085 0 1085 -8105 0 -8105 0 0
-1085z m1219 900 c233 -55 315 -214 261 -509 l-23 -126 -219 0 c-188 0 -219 2
-225 16 -3 8 2 52 11 97 19 97 21 178 4 195 -20 20 -82 14 -113 -10 -55 -43
-105 -203 -185 -598 -50 -247 -61 -367 -36 -405 25 -38 88 -36 126 5 30 32 68
135 95 255 9 39 18 78 21 88 5 15 24 17 218 17 164 0 216 -3 224 -13 14 -16
-23 -187 -62 -291 -104 -276 -317 -416 -630 -416 -257 1 -386 64 -448 219 -20
50 -22 73 -22 216 1 172 22 308 84 556 112 442 268 643 546 703 92 19 291 20
373 1z m10956 -30 c73 -19 147 -67 180 -118 37 -54 58 -148 50 -216 -10 -89
-34 -171 -68 -236 -36 -68 -128 -165 -176 -184 l-32 -14 50 -33 c74 -50 111
-130 111 -238 0 -163 -64 -321 -175 -431 -82 -82 -144 -118 -251 -145 -70 -18
-111 -20 -455 -20 -332 0 -378 2 -383 16 -3 8 72 379 166 825 l172 809 376 0
c305 0 387 -3 435 -15z m3309 -2 c3 -10 -28 -173 -68 -363 -41 -190 -73 -346
-72 -347 1 -1 58 74 127 167 l124 169 230 -2 c208 -2 230 -4 233 -19 3 -14
-224 -282 -405 -479 l-25 -27 111 -350 c62 -194 109 -357 105 -366 -6 -15 -31
-16 -237 -14 l-232 3 -47 175 c-62 227 -54 211 -87 175 -22 -26 -33 -58 -61
-193 l-34 -162 -218 0 c-189 0 -219 2 -225 16 -4 12 221 1102 324 1567 l15 67
218 0 c200 0 219 -2 224 -17z m-13156 -358 c117 -28 188 -80 233 -171 76 -157
-8 -642 -151 -868 -51 -80 -140 -163 -216 -200 -106 -52 -201 -69 -354 -63
-142 5 -201 19 -271 63 -151 94 -175 300 -80 674 84 329 223 497 463 560 92
24 284 26 376 5z m1307 4 c52 -13 117 -66 135 -109 l13 -30 41 38 c95 87 181
116 325 110 134 -6 198 -42 236 -130 31 -75 21 -150 -85 -650 -56 -260 -103
-481 -106 -490 -5 -16 -24 -18 -218 -18 -159 0 -216 3 -224 13 -7 8 16 133 79
427 48 228 89 432 89 453 0 31 -4 39 -24 47 -35 13 -78 -2 -101 -37 -15 -21
-47 -154 -109 -444 -48 -228 -90 -424 -93 -436 -5 -23 -5 -23 -223 -23 -187 0
-219 2 -224 15 -3 9 33 196 80 417 93 442 99 476 85 498 -15 22 -77 18 -105
-9 -31 -29 -38 -57 -138 -528 l-83 -393 -218 0 c-188 0 -218 2 -224 16 -4 12
211 1062 248 1207 l10 37 212 -2 212 -3 0 -36 0 -35 47 33 c71 51 139 72 236
73 46 0 103 -5 127 -11z m1800 0 c52 -13 117 -66 135 -109 l13 -30 41 38 c95
87 181 116 325 110 134 -6 198 -42 236 -130 31 -75 21 -150 -85 -650 -56 -260
-103 -481 -106 -490 -5 -16 -24 -18 -218 -18 -159 0 -216 3 -224 13 -7 8 16
133 79 427 48 228 89 432 89 453 0 31 -4 39 -24 47 -35 13 -78 -2 -101 -37
-15 -21 -47 -154 -109 -444 -48 -228 -90 -424 -93 -436 -5 -23 -5 -23 -223
-23 -187 0 -219 2 -224 15 -3 9 33 196 80 417 93 442 99 476 85 498 -15 22
-77 18 -105 -9 -31 -29 -38 -57 -138 -528 l-83 -393 -218 0 c-188 0 -218 2
-224 16 -4 12 211 1062 248 1207 l10 37 212 -2 212 -3 0 -36 0 -35 47 33 c71
51 139 72 236 73 46 0 103 -5 127 -11z m1640 -3 c118 -31 198 -102 230 -201
26 -83 22 -226 -10 -395 l-27 -140 -301 -2 -301 -3 -18 -75 c-22 -98 -23 -164
-1 -185 25 -25 82 -13 114 24 24 30 59 120 59 154 0 15 20 17 200 17 231 0
223 4 196 -93 -42 -150 -147 -285 -268 -345 -105 -52 -181 -65 -348 -59 -169
5 -236 24 -306 89 -109 100 -127 263 -64 568 79 376 226 575 472 640 89 23
296 27 373 6z m1221 -1 c5 -11 -39 -242 -72 -381 -5 -20 -11 -21 -107 -21 -86
1 -109 -2 -148 -21 -91 -44 -96 -59 -200 -549 l-63 -303 -219 0 c-188 0 -218
2 -224 16 -4 12 211 1062 248 1207 l10 37 212 -2 212 -3 -2 -48 -1 -47 49 44
c66 59 134 85 227 85 55 1 74 -3 78 -14z m815 -13 c150 -59 211 -185 188 -390
-17 -148 9 -132 -214 -132 -142 0 -195 3 -203 13 -7 8 -7 36 1 89 13 92 4 128
-34 139 -45 12 -84 -13 -113 -73 -52 -106 -134 -500 -121 -579 8 -46 16 -53
63 -51 64 3 104 67 132 210 l13 62 199 0 c172 0 199 -2 205 -16 10 -26 -35
-174 -81 -269 -67 -135 -160 -219 -296 -267 -58 -20 -84 -22 -240 -23 -156 0
-181 2 -232 22 -73 27 -112 55 -149 106 -80 110 -84 304 -13 590 84 337 243
528 485 582 100 23 337 15 410 -13z m1054 14 c118 -31 198 -102 230 -201 26
-83 22 -226 -10 -395 l-27 -140 -301 -2 -301 -3 -18 -75 c-22 -98 -23 -164 -1
-185 25 -25 82 -13 114 24 24 30 59 120 59 154 0 15 20 17 200 17 231 0 223 4
196 -93 -42 -150 -147 -285 -268 -345 -105 -52 -181 -65 -348 -59 -169 5 -236
24 -306 89 -109 100 -127 263 -64 568 79 376 226 575 472 640 89 23 296 27
373 6z m3169 -16 c75 -29 140 -88 163 -148 32 -82 23 -162 -63 -557 -58 -270
-78 -382 -80 -447 -1 -47 -5 -91 -9 -97 -4 -7 -77 -11 -215 -11 l-209 0 -3 42
-3 41 -32 -27 c-62 -52 -140 -80 -235 -84 -149 -7 -241 37 -289 135 -43 90
-25 263 42 400 67 138 181 207 440 268 167 39 213 59 230 103 31 79 16 122
-41 122 -62 0 -104 -44 -125 -132 l-7 -28 -187 0 c-124 0 -191 4 -198 11 -15
15 8 94 50 174 63 118 179 205 329 245 61 17 98 20 228 17 132 -3 164 -7 214
-27z m1316 0 c24 -14 57 -44 74 -67 25 -36 30 -54 33 -120 4 -70 -6 -128 -96
-551 -55 -260 -104 -484 -107 -497 l-6 -25 -213 0 c-164 0 -215 3 -224 13 -8
10 12 121 79 435 50 232 90 432 90 445 0 37 -16 51 -56 50 -55 -2 -80 -33
-103 -128 -10 -44 -54 -245 -97 -447 l-77 -368 -219 0 c-183 0 -220 2 -224 15
-5 11 229 1146 252 1228 5 16 22 17 217 15 l212 -3 0 -36 0 -35 47 33 c80 58
137 73 263 70 96 -2 116 -6 155 -27z"/>
<path d="M18655 13218 c-4 -15 -55 -256 -55 -263 0 -12 104 -4 130 10 46 24
84 98 85 166 0 80 -19 99 -97 99 -38 0 -60 -4 -63 -12z"/>
<path d="M18526 12604 c-8 -26 -66 -302 -66 -314 0 -6 29 -10 65 -10 63 0 67
2 109 41 52 47 76 107 76 185 0 79 -26 104 -112 111 -58 5 -66 3 -72 -13z"/>
<path d="M8974 12912 c-53 -8 -92 -93 -138 -302 -74 -335 -73 -404 5 -402 63
2 94 66 148 307 58 258 66 381 26 394 -11 4 -30 5 -41 3z"/>
<path d="M13713 12920 c-28 -11 -60 -61 -74 -115 -5 -22 -12 -48 -15 -57 -5
-16 3 -18 80 -18 54 0 87 4 92 12 4 6 9 45 12 86 4 65 2 77 -13 89 -21 15 -50
16 -82 3z"/>
<path d="M16803 12920 c-28 -11 -60 -61 -74 -115 -5 -22 -12 -48 -15 -57 -5
-16 3 -18 80 -18 54 0 87 4 92 12 4 6 9 45 12 86 4 65 2 77 -13 89 -21 15 -50
16 -82 3z"/>
<path d="M19850 12476 c-89 -25 -131 -65 -150 -146 -21 -87 7 -128 74 -109 46
13 74 47 95 113 24 74 41 156 32 155 -3 0 -26 -6 -51 -13z"/>
</g>
</svg>
