<?xml version="1.0" standalone="no"?>
<!DOCTYPE svg PUBLIC "-//W3C//DTD SVG 20010904//EN"
 "http://www.w3.org/TR/2001/REC-SVG-20010904/DTD/svg10.dtd">
<svg version="1.0" xmlns="http://www.w3.org/2000/svg"
 width="500.000000pt" height="500.000000pt" viewBox="0 0 500.000000 500.000000"
 preserveAspectRatio="xMidYMid meet">

<g transform="translate(0.000000,500.000000) scale(0.100000,-0.100000)"
fill="#000000" stroke="none">
<path d="M3288 3011 c-91 -30 -142 -102 -143 -203 0 -68 13 -85 102 -132 50
-27 58 -35 61 -63 2 -23 -3 -35 -19 -47 -30 -21 -52 -3 -47 36 l5 28 -78 0
-78 0 -6 -42 c-13 -88 26 -128 134 -136 162 -11 262 68 264 209 1 64 -19 89
-102 133 -62 32 -71 41 -71 65 0 35 31 66 48 49 7 -7 12 -22 12 -35 0 -22 3
-23 75 -23 l75 0 0 45 c0 56 -15 90 -49 105 -33 16 -147 22 -183 11z"/>
<path d="M501 2963 c-28 -120 -101 -475 -101 -489 0 -12 13 -14 72 -12 l72 3
26 117 c14 64 28 120 33 124 4 4 7 -15 7 -43 0 -27 3 -84 6 -126 l7 -77 83 0
c78 0 84 1 89 23 22 90 105 494 105 508 0 17 -8 19 -70 19 l-69 0 -10 -37 c-5
-21 -18 -78 -28 -127 -20 -100 -30 -91 -32 30 -1 39 -4 86 -7 103 l-6 31 -83
0 -83 0 -11 -47z"/>
<path d="M1607 3003 c-3 -5 -8 -29 -12 -55 l-7 -48 75 0 c74 0 75 0 80 29 3
16 9 40 13 55 l6 26 -75 0 c-42 0 -78 -3 -80 -7z"/>
<path d="M1366 2973 c-3 -10 -8 -35 -12 -55 -5 -31 -10 -38 -29 -38 -18 0 -25
-7 -30 -32 -4 -18 -9 -41 -11 -50 -4 -13 0 -18 15 -18 26 0 26 -8 1 -122 -12
-51 -20 -112 -18 -137 3 -42 5 -45 38 -54 33 -8 135 -6 145 4 2 3 7 24 11 47
5 35 4 42 -10 42 -27 0 -29 25 -11 107 24 113 24 113 50 113 29 0 31 3 40 58
7 41 6 42 -20 42 -20 0 -25 4 -21 18 3 9 8 34 12 55 l6 37 -75 0 c-63 0 -76
-3 -81 -17z"/>
<path d="M3616 2973 c-3 -10 -8 -35 -12 -55 -5 -31 -11 -38 -29 -38 -18 0 -25
-8 -34 -44 -14 -58 -14 -56 9 -56 25 0 25 7 -5 -139 -28 -141 -25 -166 27
-176 18 -3 58 -5 88 -3 l54 3 12 45 c9 34 12 38 13 19 2 -66 91 -101 162 -65
21 11 35 13 37 6 2 -6 35 -10 75 -10 l72 0 1 38 c1 20 14 93 29 161 42 195 26
226 -120 226 -62 0 -88 -4 -114 -20 -40 -23 -67 -59 -77 -97 l-6 -28 66 0 c63
0 66 1 81 31 17 32 38 34 43 5 6 -29 -26 -53 -86 -65 -82 -16 -120 -43 -145
-102 -14 -33 -27 -49 -39 -49 -28 0 -31 22 -13 107 24 114 24 113 50 113 29 0
32 5 41 58 6 41 6 42 -21 42 -21 0 -26 4 -21 16 3 9 9 33 12 55 l7 39 -76 0
c-63 0 -76 -3 -81 -17z m344 -348 c0 -26 -30 -77 -43 -72 -19 6 -20 47 -1 68
21 23 44 25 44 4z"/>
<path d="M1033 2881 c-63 -16 -104 -56 -118 -113 l-7 -28 65 0 c62 0 67 2 79
28 15 31 41 36 46 9 6 -30 -24 -53 -86 -67 -105 -23 -145 -60 -157 -145 -9
-58 7 -91 50 -105 39 -13 100 -6 124 13 11 9 15 9 18 0 3 -9 27 -13 71 -13
l67 0 34 173 c36 184 35 214 -9 237 -27 14 -137 21 -177 11z m25 -298 c-17
-36 -42 -36 -46 -2 -2 19 5 33 25 49 28 22 28 22 31 1 2 -11 -3 -33 -10 -48z"/>
<path d="M1895 2881 c-88 -23 -132 -76 -159 -191 -30 -126 -18 -198 38 -222
34 -14 135 -17 178 -5 75 20 127 107 149 247 12 81 1 132 -35 155 -27 18 -129
27 -171 16z m58 -105 c7 -17 -20 -148 -38 -193 -17 -39 -45 -44 -45 -9 0 14 7
58 15 98 21 96 53 145 68 104z"/>
<path d="M2387 2884 c-4 -4 -53 -8 -109 -8 l-102 -1 -37 -175 c-21 -96 -40
-190 -44 -207 l-6 -33 75 0 75 0 10 38 c5 20 20 86 32 145 25 117 40 150 60
130 11 -11 -6 -112 -48 -291 -5 -23 -4 -23 73 -20 l78 3 32 150 c36 164 41
222 22 248 -14 18 -98 34 -111 21z"/>
<path d="M2680 2881 c-83 -18 -130 -69 -130 -142 0 -28 4 -58 9 -68 6 -10 39
-30 75 -45 68 -29 82 -50 51 -76 -18 -15 -35 -5 -35 21 0 17 -7 19 -70 19
l-70 0 0 -40 c0 -54 31 -85 94 -94 61 -9 121 0 169 27 52 29 77 73 77 134 0
59 -22 85 -92 109 -60 20 -74 36 -53 58 22 21 32 20 40 -4 5 -17 15 -20 71
-20 l65 0 -3 42 c-2 30 -10 46 -28 59 -28 21 -117 32 -170 20z"/>
<path d="M4393 2875 c-18 -8 -33 -10 -33 -5 0 6 -33 10 -74 10 l-73 0 -33
-152 c-17 -84 -38 -179 -45 -210 l-13 -58 78 0 78 0 16 73 c9 39 21 96 27 124
14 71 36 95 89 102 42 6 45 8 52 46 4 22 10 50 13 63 5 19 1 22 -22 22 -16 -1
-43 -7 -60 -15z"/>
<path d="M1576 2863 c-3 -10 -21 -97 -41 -193 -20 -96 -39 -183 -42 -193 -4
-16 2 -18 74 -15 l78 3 42 195 c23 107 42 201 43 208 0 8 -21 12 -74 12 -62 0
-75 -3 -80 -17z"/>
<path d="M451 2163 c-30 -142 -56 -266 -59 -275 -4 -16 4 -18 75 -18 l80 0 57
268 c31 147 56 270 56 275 0 4 -35 7 -78 7 l-77 0 -54 -257z"/>
<path d="M3077 2413 c-3 -5 -8 -29 -12 -55 l-7 -48 75 0 c74 0 75 0 80 29 3
16 9 40 13 55 l6 26 -75 0 c-42 0 -78 -3 -80 -7z"/>
<path d="M4475 2408 c-2 -7 -27 -121 -54 -253 -28 -132 -53 -250 -56 -263 -6
-23 -4 -23 72 -20 l78 3 57 265 c31 146 57 268 57 273 1 13 -149 8 -154 -5z"/>
<path d="M1136 2383 c-3 -10 -8 -35 -12 -55 -5 -31 -10 -38 -29 -38 -18 0 -25
-7 -30 -32 -4 -18 -9 -41 -11 -50 -4 -13 0 -18 15 -18 26 0 26 -8 1 -122 -12
-51 -20 -112 -18 -137 3 -42 5 -45 38 -54 33 -8 135 -6 145 4 2 3 7 24 11 47
5 35 4 42 -10 42 -27 0 -29 25 -11 107 24 113 24 113 50 113 29 0 31 3 40 58
7 41 6 42 -20 42 -20 0 -25 4 -21 18 3 9 8 34 12 55 l6 37 -75 0 c-63 0 -76
-3 -81 -17z"/>
<path d="M2836 2383 c-3 -10 -8 -35 -12 -55 -5 -31 -10 -38 -29 -38 -18 0 -25
-7 -30 -32 -4 -18 -9 -41 -11 -50 -4 -13 0 -18 15 -18 26 0 26 -8 1 -122 -12
-51 -20 -112 -18 -137 3 -42 5 -45 38 -54 33 -8 135 -6 145 4 2 3 7 24 11 47
5 35 4 42 -10 42 -27 0 -29 25 -11 107 24 113 24 113 50 113 29 0 31 3 40 58
7 41 6 42 -20 42 -20 0 -25 4 -21 18 3 9 8 34 12 55 l6 37 -75 0 c-63 0 -76
-3 -81 -17z"/>
<path d="M897 2294 c-4 -4 -53 -8 -109 -8 l-102 -1 -37 -175 c-21 -96 -40
-190 -44 -207 l-6 -33 75 0 75 0 10 38 c5 20 20 86 32 145 25 117 40 150 60
130 11 -11 -6 -112 -48 -291 -5 -23 -4 -23 73 -20 l78 3 32 150 c36 164 41
222 22 248 -14 18 -98 34 -111 21z"/>
<path d="M1450 2291 c-50 -10 -87 -38 -115 -85 -45 -78 -69 -234 -44 -290 16
-35 63 -51 146 -50 102 1 159 39 182 122 l10 32 -70 0 c-63 0 -70 -2 -78 -23
-23 -61 -65 -51 -52 13 l7 35 102 3 101 3 8 37 c14 72 9 149 -11 171 -33 36
-104 48 -186 32z m66 -96 c4 -8 3 -26 0 -40 -5 -18 -13 -25 -31 -25 -29 0 -33
24 -9 58 18 26 32 28 40 7z"/>
<path d="M1903 2285 c-18 -8 -33 -10 -33 -5 0 6 -33 10 -73 10 l-74 0 -42
-197 c-23 -109 -41 -204 -41 -210 0 -9 22 -13 74 -13 l74 0 11 53 c48 225 58
247 125 247 36 0 37 1 51 65 3 17 8 38 11 48 4 13 -1 17 -23 17 -15 -1 -43 -7
-60 -15z"/>
<path d="M2217 2294 c-4 -4 -53 -8 -109 -8 l-102 -1 -37 -175 c-21 -96 -40
-190 -44 -207 l-6 -33 75 0 75 0 10 38 c5 20 20 86 32 145 25 117 40 150 60
130 11 -11 -6 -112 -48 -291 -5 -23 -4 -23 73 -20 l78 3 32 150 c36 164 41
222 22 248 -14 18 -98 34 -111 21z"/>
<path d="M2503 2291 c-63 -16 -104 -56 -118 -113 l-7 -28 65 0 c62 0 67 2 79
28 15 31 41 36 46 9 6 -30 -24 -53 -86 -67 -105 -23 -145 -60 -157 -145 -9
-58 7 -91 50 -105 39 -13 100 -6 124 13 11 9 15 9 18 0 3 -9 27 -13 71 -13
l67 0 34 173 c36 184 35 214 -9 237 -27 14 -137 21 -177 11z m25 -298 c-17
-36 -42 -36 -46 -2 -2 19 5 33 25 49 28 22 28 22 31 1 2 -11 -3 -33 -10 -48z"/>
<path d="M3365 2291 c-88 -23 -132 -76 -159 -191 -30 -126 -18 -198 38 -222
34 -14 135 -17 178 -5 75 20 127 107 149 247 12 81 1 132 -35 155 -27 18 -129
27 -171 16z m58 -105 c7 -17 -20 -148 -38 -193 -17 -39 -45 -44 -45 -9 0 14 7
58 15 98 21 96 53 145 68 104z"/>
<path d="M3857 2294 c-4 -4 -53 -8 -109 -8 l-102 -1 -37 -175 c-21 -96 -40
-190 -44 -207 l-6 -33 75 0 75 0 10 38 c5 20 20 86 32 145 25 117 40 150 60
130 11 -11 -6 -112 -48 -291 -5 -23 -4 -23 73 -20 l78 3 32 150 c36 164 41
222 22 248 -14 18 -98 34 -111 21z"/>
<path d="M4153 2291 c-63 -16 -104 -56 -118 -113 l-7 -28 65 0 c62 0 67 2 79
28 15 31 41 36 46 9 6 -30 -24 -53 -86 -67 -105 -23 -145 -60 -157 -145 -9
-58 7 -91 50 -105 39 -13 100 -6 124 13 11 9 15 9 18 0 3 -9 27 -13 71 -13
l67 0 34 173 c36 184 35 214 -9 237 -27 14 -137 21 -177 11z m25 -298 c-17
-36 -42 -36 -46 -2 -2 19 5 33 25 49 28 22 28 22 31 1 2 -11 -3 -33 -10 -48z"/>
<path d="M3046 2273 c-3 -10 -21 -97 -41 -193 -20 -96 -39 -183 -42 -193 -4
-16 2 -18 74 -15 l78 3 42 195 c23 107 42 201 43 208 0 8 -21 12 -74 12 -62 0
-75 -3 -80 -17z"/>
<path d="M350 1495 l0 -295 2200 0 2200 0 0 295 0 295 -2200 0 -2200 0 0 -295z
m370 230 c34 -18 42 -42 38 -111 l-3 -49 -68 -3 -68 -3 7 47 c5 37 4 46 -7 42
-22 -7 -37 -47 -60 -156 -23 -103 -21 -144 5 -123 8 6 19 32 25 56 l11 45 66
0 67 0 -7 -41 c-15 -97 -71 -149 -168 -156 -139 -11 -174 38 -144 204 34 196
89 263 214 263 37 0 75 -6 92 -15z m2991 -14 c20 -16 24 -28 23 -70 0 -41 -6
-58 -32 -89 -29 -37 -30 -40 -14 -56 23 -23 21 -94 -4 -136 -38 -66 -61 -75
-205 -78 -75 -2 -129 0 -129 6 0 5 20 104 45 221 25 116 45 214 45 216 0 3 56
5 124 5 107 0 127 -3 147 -19z m859 2 c0 -16 -5 -39 -26 -133 -5 -23 -4 -23
23 8 27 32 30 33 97 30 l70 -3 -61 -68 -60 -68 28 -90 c16 -49 29 -94 29 -99
0 -6 -30 -10 -70 -10 l-70 0 -12 47 c-12 49 -19 45 -32 -19 -6 -27 -9 -28 -71
-28 -50 0 -65 3 -65 14 0 8 20 108 45 223 25 114 45 209 45 210 0 2 29 3 65 3
55 0 65 -3 65 -17z m-3550 -98 c36 -19 45 -48 36 -128 -7 -72 -49 -162 -87
-190 -36 -26 -134 -34 -181 -14 -46 20 -59 59 -46 143 12 84 54 163 98 186 43
22 139 24 180 3z m350 0 c11 -13 15 -13 33 0 25 17 99 20 128 5 26 -15 25 -71
-6 -214 -14 -64 -25 -118 -25 -121 0 -3 -29 -5 -65 -5 -77 0 -74 -8 -43 137
19 93 20 128 2 110 -4 -4 -19 -60 -33 -124 l-27 -118 -67 -3 c-37 -2 -67 -1
-67 2 0 2 11 57 25 122 14 64 23 119 20 122 -12 13 -25 -18 -45 -108 -11 -52
-22 -105 -25 -117 -5 -21 -11 -23 -70 -23 -55 0 -65 3 -65 18 1 9 15 85 33
167 l33 150 80 6 c149 10 171 10 184 -6z m490 0 c11 -13 15 -13 33 0 25 17 99
20 128 5 26 -15 25 -71 -6 -214 -14 -64 -25 -118 -25 -121 0 -3 -29 -5 -65 -5
-77 0 -74 -8 -43 137 19 93 20 128 2 110 -4 -4 -19 -60 -33 -124 l-27 -118
-67 -3 c-37 -2 -67 -1 -67 2 0 2 11 57 25 122 14 64 23 119 20 122 -12 13 -25
-18 -45 -108 -11 -52 -22 -105 -25 -117 -5 -21 -11 -23 -70 -23 -55 0 -65 3
-65 18 1 9 15 85 33 167 l33 150 80 6 c149 10 171 10 184 -6z m465 -10 c21
-20 25 -35 26 -82 l1 -58 16 72 c10 39 19 73 22 76 3 2 54 7 114 11 l108 6 -6
-38 c-12 -67 -16 -72 -47 -72 -44 0 -63 -28 -83 -121 -10 -46 -20 -92 -22
-101 -4 -15 -17 -18 -70 -18 -74 0 -72 -4 -48 101 9 39 13 73 10 76 -3 4 -6
-1 -6 -10 0 -15 -12 -17 -84 -17 l-84 0 -4 -30 c-8 -54 16 -60 35 -7 5 14 18
17 67 17 68 0 71 -5 37 -65 -28 -50 -76 -75 -145 -75 -64 0 -109 21 -118 56
-9 36 2 153 17 189 38 88 78 114 177 115 54 0 66 -4 87 -25z m519 14 c31 -14
48 -61 40 -106 -6 -33 -6 -33 -65 -33 l-59 0 0 37 c0 34 -2 36 -15 22 -18 -18
-45 -109 -45 -152 0 -38 22 -31 35 11 9 32 10 32 73 32 61 0 63 -1 57 -22 -27
-93 -69 -130 -153 -136 -74 -5 -129 16 -138 53 -23 94 29 251 96 286 40 22
135 26 174 8z m321 -14 c20 -19 25 -34 25 -77 0 -98 -1 -98 -95 -98 l-83 0 -4
-30 c-8 -54 16 -60 35 -7 5 14 18 17 67 17 68 0 71 -5 37 -65 -28 -50 -76 -75
-145 -75 -64 0 -109 21 -118 56 -9 36 2 153 17 189 38 88 78 114 177 115 54 0
66 -4 87 -25z m828 14 c12 -7 25 -17 29 -23 13 -19 8 -88 -12 -176 -11 -47
-20 -98 -20 -113 l0 -28 -72 0 c-40 0 -96 -2 -125 -5 -43 -5 -55 -2 -72 15
-34 34 -24 110 22 159 11 12 51 31 88 42 61 18 87 38 72 54 -12 11 -22 6 -28
-14 -5 -17 -15 -20 -66 -20 -40 0 -59 4 -59 13 0 26 42 79 73 92 39 17 140 19
170 4z m358 1 c27 -15 25 -67 -8 -217 l-26 -123 -69 0 c-61 0 -69 2 -64 18 9
31 46 206 46 220 0 7 -5 12 -12 10 -7 -3 -24 -58 -38 -124 l-25 -119 -68 -3
c-37 -2 -67 -1 -67 2 0 5 55 267 65 313 5 20 12 22 83 26 42 1 96 4 120 5 24
1 52 -3 63 -8z"/>
<path d="M3554 1605 c-3 -20 -4 -39 0 -42 12 -12 37 21 34 45 -5 40 -26 38
-34 -3z"/>
<path d="M3526 1462 c-3 -5 -8 -29 -12 -53 l-7 -44 24 16 c17 12 24 26 24 49
0 32 -17 51 -29 32z"/>
<path d="M902 1522 c-30 -75 -41 -162 -22 -162 10 0 34 75 45 141 8 45 -9 59
-23 21z"/>
<path d="M2200 1531 c-14 -27 -13 -31 10 -31 15 0 20 7 20 25 0 30 -15 33 -30
6z"/>
<path d="M3040 1531 c-14 -27 -13 -31 10 -31 15 0 20 7 20 25 0 30 -15 33 -30
6z"/>
<path d="M3858 1416 c-19 -19 -24 -56 -8 -56 13 0 32 38 28 57 -3 15 -5 15
-20 -1z"/>
</g>
</svg>
