<?xml version="1.0" encoding="utf-8"?>
<!-- Generator: Adobe Illustrator 21.0.2, SVG Export Plug-In . SVG Version: 6.00 Build 0)  -->
<svg version="1.1" xmlns="http://www.w3.org/2000/svg" xmlns:xlink="http://www.w3.org/1999/xlink" x="0px" y="0px"
	 viewBox="0 0 512 512" style="enable-background:new 0 0 512 512;" xml:space="preserve">
<style type="text/css">
	.st0{fill:#B8C2DA;}
	.st1{fill:#002655;}
</style>
<g id="Layer_2">
	<path class="st0" d="M411.5,342.8c-30.5,54.7-89,91.8-156.1,91.8c-2.7,0-5.4-0.1-8.2-0.2c63.5-3,111.3-39.2,140.6-91.6L411.5,342.8
		z"/>
	<path class="st0" d="M348.4,123.3c-28.9-23.9-61.4-43.9-101.3-45.7c2.8-0.1,5.5-0.2,8.3-0.2c38.8,0,75.1,11.7,104.4,32.8
		L348.4,123.3z"/>
	<path class="st1" d="M83.3,158.5c6.8-11.9,14.9-23.3,24.3-33.9c1.9-2.1,3.8-4.1,5.7-6.1c31.3-32.4,72.7-53.1,117.5-58.8
		c47.1-5.9,94.8,5.1,134.2,31.2l7.2,4.7l11.1-12.5l23.4-26.3l23.2,90.6l3.7,14.4l-107.5-14.2l11.1-12.5l21.9-24.7l-10.1-6.2
		c-35.3-21.6-77.4-30.3-118.7-24.5c-39,5.5-75,23.8-102.3,51.8c-1.9,2-3.8,4-5.7,6.1c-8.5,9.6-15.8,19.9-21.9,30.6L83.3,158.5z"/>
	<path class="st1" d="M428.6,352.5c-6.8,11.9-14.9,23.3-24.3,33.9c-1.9,2.1-3.8,4.1-5.7,6.1c-31.3,32.4-72.7,53.1-117.5,58.8
		c-47.1,5.9-94.8-5.1-134.2-31.2l-7.2-4.7l-11.1,12.5l-23.4,26.3L82,363.6l-3.7-14.4l107.5,14.2l-11.1,12.5l-21.9,24.7l10.1,6.2
		c35.3,21.6,77.4,30.3,118.7,24.5c39-5.5,75-23.8,102.3-51.8c1.9-2,3.8-4,5.7-6.1c8.5-9.6,15.8-19.9,21.9-30.6L428.6,352.5z"/>
	<path class="st1" d="M84.5,300.3c-4.1,3.4-9.6,5.2-16.8,5.2c-6.3,0-11.6-1.8-15.9-5.4c-4.4-3.6-6.5-9.6-6.5-18.4H29.4l-0.1,0.4
		c-0.3,11.6,2.8,20.4,8.9,26.4c6.1,6.3,13.9,9.6,23.5,10.7v16h13v-16c9.9-1.2,17.8-4.4,23.5-10.1c5.7-5.6,8.6-13.3,8.6-22.9
		c0-9.4-2.9-16.8-8.3-22.2s-13.9-10-25.4-13.9c-8.9-2.9-14.9-6.1-18.2-9.5c-3.4-3.4-5.1-7.7-5.1-13c0-6,1.7-10.7,5-14
		s8-5.2,14.7-5.2c6.1,0,10.9,2.3,14.4,6.6c3.5,4.3,5.2,10,5.2,17.1h16.4c0-10.8-2.5-19.4-7.7-25.6c-5.2-6.4-12.4-10.1-21.6-11.3
		v-18.4H63v18.4c-9.2,1.2-16.5,4.7-21.7,10.4c-5.4,5.7-7.8,13.3-7.8,22.4c0,9.5,2.9,17.1,8.6,22.8c5.7,5.7,14.2,10.2,25.4,13.7
		c8.2,2.8,14,5.8,17.5,9.4c3.5,3.5,5.4,7.8,5.4,12.7C90.5,292.2,88.5,296.9,84.5,300.3z"/>
	<path class="st1" d="M460.5,300.3c-4.1,3.4-9.6,5.2-16.8,5.2c-6.3,0-11.6-1.8-15.9-5.4c-4.4-3.6-6.5-9.6-6.5-18.4h-15.9l-0.1,0.4
		c-0.3,11.6,2.8,20.4,8.9,26.4c6.1,6.3,13.9,9.6,23.5,10.7v16h13v-16c9.9-1.2,17.8-4.4,23.5-10.1c5.7-5.6,8.6-13.3,8.6-22.9
		c0-9.4-2.9-16.8-8.3-22.2s-13.9-10-25.4-13.9c-8.9-2.9-14.9-6.1-18.2-9.5c-3.4-3.4-5.1-7.7-5.1-13c0-6,1.7-10.7,5-14
		c3.2-3.4,8-5.2,14.7-5.2c6.1,0,10.9,2.3,14.4,6.6c3.5,4.3,5.2,10,5.2,17.1h16.4c0-10.8-2.5-19.4-7.7-25.6
		c-5.2-6.4-12.4-10.1-21.6-11.3v-18.4H439v18.4c-9.2,1.2-16.5,4.7-21.7,10.4c-5.4,5.7-7.8,13.3-7.8,22.4c0,9.5,2.9,17.1,8.6,22.8
		c5.7,5.7,14.2,10.2,25.4,13.7c8.2,2.8,14,5.8,17.5,9.4c3.5,3.5,5.4,7.8,5.4,12.7C466.5,292.2,464.5,296.9,460.5,300.3z"/>
</g>
<g id="Layer_3">
</g>
</svg>
