<?xml version="1.0" encoding="utf-8"?>
<!-- Generator: Adobe Illustrator 21.0.2, SVG Export Plug-In . SVG Version: 6.00 Build 0)  -->
<svg version="1.1" id="Layer_1" xmlns="http://www.w3.org/2000/svg" xmlns:xlink="http://www.w3.org/1999/xlink" x="0px" y="0px"
	 viewBox="0 0 512 512" style="enable-background:new 0 0 512 512;" xml:space="preserve">
<style type="text/css">
	.st0{fill:#B8C2DA;}
	.st1{fill:#002655;}
</style>
<path class="st0" d="M473.6,277.1H456v-139h28v128.6C484,272.4,479.4,277.1,473.6,277.1z M473.8,69.7H456v47.6h28V78.1
	C483.1,73.3,478.8,69.7,473.8,69.7z M370.1,442.8c5.8,0,10.4-4.7,10.4-10.4V245.9c0-5.7-4.7-10.4-10.4-10.4h-17.6v207.3H370.1z
	 M142.1,297.7H90.3v31.1h51.8V297.7z"/>
<path class="st1" d="M473.7,49H142.1C124.9,49,111,62.9,111,80.1v134.7H38.5c-17.1,0-31.1,13.9-31.1,31.1v186.5
	c0,17.1,13.9,31.1,31.1,31.1h331.6c16.4,0,29.9-12.8,31-29V243.8c-1.1-16.2-14.5-29-31-29H158.8h-27.1v-76.7h27.1H456h28v128.6
	c0,5.7-4.6,10.4-10.4,10.4H456h-33v20.7h50.7c17.1,0,31.1-13.9,31.1-31.1V80.1C504.8,62.9,490.9,49,473.7,49z M352.5,235.5h17.6
	c5.7,0,10.4,4.7,10.4,10.4v186.5c0,5.7-4.6,10.4-10.4,10.4h-17.6H59.7H38.5c-5.7,0-10.4-4.6-10.4-10.4V245.9
	c0-5.7,4.6-10.4,10.4-10.4h21.2H352.5z M484.2,92.8v24.5H484h-28H158.8v0.1h-27.1V80.1c0-5.7,4.6-10.4,10.4-10.4h16.8H456h17.8
	c5,0,9.3,3.6,10.2,8.4c0.1,0.7,0.2,1.3,0.2,2V92.8z M167.1,183.7V163h103.6v20.7H167.1z M301.8,183.7V163h41.5v20.7H301.8z
	 M90.3,349.5h51.8c11.4,0,20.7-9.3,20.7-20.7v-31.1c0-11.4-9.3-20.7-20.7-20.7H90.3c-11.4,0-20.7,9.3-20.7,20.7v31.1
	C69.5,340.2,78.8,349.5,90.3,349.5z M90.3,297.7h51.8v31.1H90.3V297.7z M111,401.3H69.5v-20.7H111V401.3z M131.7,380.6h41.5v20.7
	h-41.5V380.6z M235.4,401.3h-41.5v-20.7h41.5V401.3z M297.6,401.3h-41.5v-20.7h41.5V401.3z"/>
</svg>
