<?xml version="1.0" encoding="utf-8"?>
<!-- Generator: Adobe Illustrator 21.0.2, SVG Export Plug-In . SVG Version: 6.00 Build 0)  -->
<svg version="1.1" id="Layer_1" xmlns="http://www.w3.org/2000/svg" xmlns:xlink="http://www.w3.org/1999/xlink" x="0px" y="0px"
	 viewBox="0 0 512 512" style="enable-background:new 0 0 512 512;" xml:space="preserve">
<style type="text/css">
	.st0{fill:#B0BAD1;}
	.st1{fill:#002655;}
</style>
<path class="st0" d="M419.9,434.8h-24.6v-36h9.7V113.6h-9.7V77.7h24.6V434.8z M350,256.2c0,10.6-8.6,19.2-19.2,19.2
	s-19.2-8.6-19.2-19.2s8.6-19.2,19.2-19.2S350,245.6,350,256.2z M222.2,296.7c35.4,2.9,63.4,32.7,63.4,68.9s-27.9,65.9-63.4,68.9
	c24-13.6,40.3-39.3,40.3-68.9S246.2,310.2,222.2,296.7z M170.5,395.8c0,20.7-16.3,37.6-36.7,38.8c11.7-8.9,19.3-22.9,19.3-38.8
	c0-15.8-7.6-29.9-19.3-38.8C154.2,358.2,170.5,375.1,170.5,395.8z"/>
<path class="st1" d="M439.6,57.8v396.9H265.8c9.5-5.3,18-12,25.3-19.9h109.2h19.6V77.7h-19.6H266.6h-24.8v189.1
	c-6.4-1.6-13.1-2.6-19.9-3v-206H439.6z M405,113.6h-4.7h-16.4V92.5H277.7v21.1h-11.2h-9.9V272c7.1,3,13.7,6.9,19.9,11.4V133.5h21.1
	v-21.1H364v21.1h21.1V379H364v21.1h-51.7c-2.5,7-5.8,13.7-9.7,19.9h81.3v-21.2h16.4h4.7V113.6z M369.9,256.2
	c0,21.6-17.5,39.1-39.1,39.1s-39.1-17.5-39.1-39.1s17.5-39.1,39.1-39.1C352.3,217.1,369.9,234.6,369.9,256.2z M350,256.3
	c0-10.6-8.6-19.2-19.2-19.2s-19.2,8.6-19.2,19.2s8.6,19.2,19.2,19.2S350,266.8,350,256.3z M330.8,203.7h-9.9v-46.5h19.8v46.5H330.8z
	 M330.8,308.7h9.9v46.5h-19.8v-46.5H330.8z M174.6,286.8c12.5-6.6,26.7-10.4,41.8-10.4c49.1,0,89.1,40,89.1,89.1s-40,89.1-89.1,89.1
	c-12.4,0-24.3-2.6-35.1-7.2c5-4.8,9.3-10.3,12.7-16.4c7,2.4,14.6,3.8,22.4,3.8c2,0,3.9-0.1,5.8-0.3c35.4-2.9,63.4-32.7,63.4-68.9
	s-27.9-65.9-63.4-68.9c-1.9-0.2-3.8-0.3-5.8-0.3c-24.8,0-46.5,13.1-58.7,32.7c-6.3-2.5-13.1-4.1-20.2-4.7
	C145.8,308.5,158.8,295.4,174.6,286.8z M190.3,395.8c0,32.4-26.4,58.8-58.8,58.8s-58.8-26.4-58.8-58.8S99.1,337,131.5,337
	S190.3,363.4,190.3,395.8z M170.5,395.7c0-20.7-16.3-37.6-36.7-38.8c-0.8,0-1.5-0.1-2.3-0.1c-21.5,0-39,17.5-39,39s17.5,39,39,39
	c0.8,0,1.5-0.1,2.3-0.1C154.2,433.5,170.5,416.5,170.5,395.7z"/>
</svg>
