<?xml version="1.0" encoding="utf-8"?>
<!-- Generator: Adobe Illustrator 21.0.2, SVG Export Plug-In . SVG Version: 6.00 Build 0)  -->
<svg version="1.1" id="Layer_2" xmlns="http://www.w3.org/2000/svg" xmlns:xlink="http://www.w3.org/1999/xlink" x="0px" y="0px"
	 viewBox="0 0 512 512" style="enable-background:new 0 0 512 512;" xml:space="preserve">
<style type="text/css">
	.st0{fill:#B8C2DA;}
	.st1{fill:#002655;}
</style>
<path class="st0" d="M412.9,467.5H393V65.3h19.9V467.5z M326.9,69.9V44.5h-19.7v48.3C318.3,91.2,326.9,81.5,326.9,69.9z"/>
<path class="st1" d="M181.1,224.6l-18.5-18.5l13.5-13.5l10.9,10.9l26-32.9l15,11.8l-32.7,41.4c-1.7,2.1-4.2,3.5-7,3.6
	c-0.2,0-0.4,0-0.6,0C185.4,227.4,182.9,226.4,181.1,224.6z M347.5,189.2h-89.1v19.1h89.1V189.2z M347.5,271.9h-89.1v19.1h89.1V271.9
	z M258.4,373.7h89.1v-19.1h-89.1V373.7z M409.5,62H366v19.1h15.7h18.3V450h-18.3H112.1V81.1h33.6V62h-43.1c-5.3,0-9.5,4.3-9.5,9.5
	v388c0,5.3,4.3,9.5,9.5,9.5h306.9c5.3,0,9.5-4.2,9.5-9.5v-388C419,66.3,414.7,62,409.5,62z M187.8,309.7c0.2,0,0.4,0,0.6,0
	c2.8-0.2,5.2-1.5,7-3.6l32.7-41.4l-15-11.8l-26,32.9l-10.9-10.9l-13.5,13.5l18.5,18.5C182.9,308.7,185.4,309.7,187.8,309.7z
	 M187.8,392.8c0.2,0,0.4,0,0.6,0c2.8-0.2,5.2-1.5,7-3.6l32.7-41.4l-15-11.8l-26,32.9L176.2,358l-13.5,13.5l18.5,18.5
	C182.9,391.8,185.4,392.8,187.8,392.8z M171.9,85.3V52.5c0-5.2,4.3-9.5,9.5-9.5h149.1c5.2,0,9.5,4.3,9.5,9.5v32.8
	c0,22.2-18.1,40.3-40.3,40.3h-87.6C190,125.7,171.9,107.6,171.9,85.3z M191,85.3c0,11.6,9.5,21.2,21.2,21.2h87.6
	c1,0,2.1-0.1,3.1-0.2c10.2-1.5,18.1-10.4,18.1-20.9V62h-18.1H191V85.3z"/>
</svg>
