<?xml version="1.0" encoding="utf-8"?>
<!-- Generator: Adobe Illustrator 21.0.2, SVG Export Plug-In . SVG Version: 6.00 Build 0)  -->
<svg version="1.1" id="Layer_2" xmlns="http://www.w3.org/2000/svg" xmlns:xlink="http://www.w3.org/1999/xlink" x="0px" y="0px"
	 viewBox="0 0 512 512" style="enable-background:new 0 0 512 512;" xml:space="preserve">
<style type="text/css">
	.st0{fill:#B8C2DA;}
	.st1{fill:#002655;}
</style>
<path class="st0" d="M435.3,354.2V79.2h12.3c2.7,0,4.9,2.2,4.9,4.9v270.2H435.3z M484,99.4h-0.5C483.7,99.5,483.9,99.5,484,99.4
	L484,99.4z M482,408.3V123.4l0.1-23.9h-9.9v264.6c0,4.1-2.5,7.5-6,9v40.1h10.9C479.8,413.2,482,411,482,408.3z M246.2,381.4V112.3
	c-2.6-2.8-7.8-7.6-16.2-12.8v272.4C236.3,375,241.7,378.3,246.2,381.4z"/>
<path class="st1" d="M501.6,123.4v284.9c0,13.6-11,24.6-24.6,24.6H293.9c-4.1,0-8.1,2.3-9.4,6.2c-2.6,7.8-10,13.4-18.6,13.4h-19.7
	c-8.7,0-16-5.6-18.6-13.4c-1.3-3.9-5.3-6.2-9.4-6.2H34.9c-13.6,0-24.6-11-24.6-24.6V123.4c0-11.9,8.4-21.8,19.6-24.1
	c0,18,0,24.1,0,24.1v284.9c0,2.7,2.2,4.9,4.9,4.9h191.6c8.7,0,16,5.6,18.6,13.4c1.3,3.9,5.3,6.2,9.4,6.2h2.9c4.1,0,8.1-2.3,9.4-6.2
	c2.6-7.8,10-13.4,18.6-13.4h180.7h10.9c2.7,0,4.9-2.2,4.9-4.9V123.4l0.1-23.9l0-0.3c0.5,0.1,1,0.2,1.5,0.3c0.1,0,0.3,0.1,0.5,0.1
	C494.6,102.2,501.6,111.8,501.6,123.4z M466.2,373.1c-1.2,0.5-2.5,0.8-3.9,0.8h-98.2c-72.1,0-99.1,34-100.3,35.4
	c-0.1,0.1-0.2,0.1-0.2,0.2c-0.8,1-1.8,1.8-2.9,2.4c-0.2,0.1-0.5,0.3-0.7,0.4c-0.3,0.1-0.5,0.3-0.8,0.4c-1,0.3-2.1,0.5-3.1,0.5
	c-0.2,0-0.3-0.1-0.5-0.1c-1.1-0.1-2.1-0.3-3.2-0.7c-0.4-0.2-0.8-0.4-1.3-0.7c-0.3-0.2-0.7-0.3-1-0.5c-0.4-0.3-0.6-0.7-0.9-1
	c-0.3-0.3-0.7-0.5-1-0.8c-1.2-1.6-28.3-35.4-100.2-35.4H49.7c-5.4,0-9.8-4.4-9.8-9.8v-280c0-13.6,11-24.6,24.6-24.6h83.5
	c60.8,0,94.2,22.5,108.1,35c13.9-12.6,47.2-35,108.1-35h83.5c13.6,0,24.6,11,24.6,24.6v15.4v264.6
	C472.2,368.1,469.7,371.6,466.2,373.1z M147.9,354.2c36.8,0,63.6,8.2,82.1,17.5c6.3,3.2,11.7,6.5,16.2,9.6V112.3
	c-2.6-2.8-7.8-7.6-16.2-12.8c-15.5-9.6-41.7-20.3-82.1-20.3H64.4c-2.7,0-4.9,2.2-4.9,4.9v270.2H147.9z M364.1,354.2h71.3h17.2V84.1
	c0-2.7-2.2-4.9-4.9-4.9h-12.3h-71.3c-62.2,0-90.9,25.3-98.2,33.1v269.2C283.3,369.2,314.5,354.2,364.1,354.2z M212.2,275.2h-25.5
	l-8.5-24.9h-41.8l-8.8,24.9h-24.8l42.3-111.9h25.2L212.2,275.2z M171.7,231.9l-14.1-41.1h-0.3l-14.6,41.1H171.7z M345.4,254.5
	l60-71.8v-19.4h-88.1v20.7h55.3l-60,71.8v19.4H407v-20.7H345.4z"/>
</svg>
