<?xml version="1.0" encoding="utf-8"?>
<!-- Generator: Adobe Illustrator 21.0.2, SVG Export Plug-In . SVG Version: 6.00 Build 0)  -->
<svg version="1.1" id="Layer_2" xmlns="http://www.w3.org/2000/svg" xmlns:xlink="http://www.w3.org/1999/xlink" x="0px" y="0px"
	 viewBox="0 0 512 512" style="enable-background:new 0 0 512 512;" xml:space="preserve">
<style type="text/css">
	.st0{fill:#B8C2DA;}
	.st1{fill:#002655;}
</style>
<path class="st0" d="M258.6,435.2c-2.7,0-5.4-0.1-8.2-0.2c94.6-4.5,170.1-82.8,170.1-178.4c0-95.7-75.7-174.1-170.3-178.4
	c2.8-0.1,5.5-0.2,8.3-0.2c98.5,0,178.7,80.1,178.7,178.7C437.2,355,357.1,435.2,258.6,435.2z"/>
<path class="st1" d="M457.1,256.5C457.1,366,368,455,258.6,455c-2.8,0-5.5-0.1-8.3-0.2c-28.6-1.2-56-8.3-81.5-21.4
	c-24.5-12.5-46.6-30.5-64.1-52l4.1-6.1l7.5-11.1c16.5,21.8,37.9,39.7,62,51.9c22.2,11.2,47,17.7,72.1,18.8c2.7,0.1,5.4,0.2,8.2,0.2
	c98.5,0,178.7-80.1,178.7-178.7c0-98.5-80.1-178.7-178.7-178.7c-2.8,0-5.6,0.1-8.3,0.2c-39.1,1.8-76.7,16.6-106.7,42.1
	C111.9,147,90.4,184.3,83.1,225L81,236.7h33h16.7L70,326.5l-8.3-12.3L9.3,236.7h35.2h16.7l1.2-8.5c6.7-46.8,30.1-89.8,65.8-121.1
	c34-29.7,77-46.9,122-48.8c2.8-0.1,5.6-0.2,8.4-0.2C368,58,457.1,147,457.1,256.5z M279.8,320.7c-5.9,4.9-14,7.6-24.4,7.6
	c-9.1,0-16.8-2.6-23.1-7.9c-6.4-5.3-9.5-14-9.5-26.7h-23.1l-0.2,0.6c-0.4,16.8,4,29.7,12.9,38.4c8.9,9.1,20.2,14,34.2,15.5v23.3
	h18.9v-23.3c14.4-1.7,25.9-6.4,34.2-14.7c8.3-8.1,12.5-19.3,12.5-33.3c0-13.6-4.2-24.4-12.1-32.3s-20.2-14.6-36.9-20.2
	c-12.9-4.2-21.6-8.9-26.5-13.8c-4.9-4.9-7.4-11.2-7.4-18.9c0-8.7,2.5-15.5,7.2-20.4c4.7-4.9,11.7-7.6,21.4-7.6
	c8.9,0,15.9,3.4,21,9.6c5.1,6.2,7.6,14.6,7.6,24.8h23.8c0-15.7-3.6-28.2-11.2-37.2c-7.6-9.3-18-14.7-31.4-16.4v-26.8h-19.1v26.7
	c-13.4,1.7-24,6.8-31.6,15.1c-7.8,8.3-11.3,19.3-11.3,32.5c0,13.8,4.2,24.8,12.5,33.1c8.3,8.3,20.6,14.9,36.9,19.9
	c11.9,4,20.4,8.5,25.5,13.6c5.1,5.1,7.8,11.3,7.8,18.5C288.5,308.9,285.7,315.7,279.8,320.7z"/>
</svg>
