<?xml version="1.0" encoding="utf-8"?>
<!-- Generator: Adobe Illustrator 21.0.2, SVG Export Plug-In . SVG Version: 6.00 Build 0)  -->
<svg version="1.1" id="Layer_1" xmlns="http://www.w3.org/2000/svg" xmlns:xlink="http://www.w3.org/1999/xlink" x="0px" y="0px"
	 viewBox="0 0 512 512" style="enable-background:new 0 0 512 512;" xml:space="preserve">
<style type="text/css">
	.st0{fill:#B8C2DA;}
	.st1{fill:#002655;}
</style>
<path class="st0" d="M132.4,127.3v-12.9h12.8c0.1,4.1,0.5,8.4,1,12.9H132.4z M342.7,147.6c7-32.1,6.7-58.8,6-71.7h-16.5
	c0.2,2.7,0.4,7,0.4,12.4c1,0.2,2,0.7,2.7,1.4c0.9,1,1.4,2.2,1.4,3.6c-0.3,21.4-3.7,54.4-17.6,89.6c-0.7,2-2.6,3.2-4.6,3.2
	c-0.3,0-0.6,0-0.9-0.1c-10.2,25.2-25.7,51.7-49.3,76.2h19C312.9,230.7,332.9,192.2,342.7,147.6z M421,114.4
	c-4.4,23.1-20.2,73.5-74,80.8c2.1-5,4-9.7,5.7-14.3c6.4-1.8,12-4.4,17-7.5c0.9,0.8,2.1,1.3,3.3,1.3c1.1,0,2.2-0.3,3.2-1.2
	c22.3-18.4,29-38.2,29.2-39.4c0.3-1.5,0-3-0.9-4.2c-0.4-0.5-0.8-0.8-1.3-1.2c2.3-6.8,3.4-12.2,3.7-14.5H421z M309.9,391.1h-13.7
	c-1.5-4.5-4.7-10.4-11.7-14.8c-11.4-7.3-30.5-21.1-30.5-51c0,0,0.1-15.5,7.4-31.3v-13.8h14h2.3l0.4,8.8
	c-4.5,5.3-12.4,17.5-12.4,37.8c0,22.6,18.8,34.7,30,42l1.5,1c2.7,1.7,5.1,4.2,7.2,7.3C307.6,381.9,309.1,386.9,309.9,391.1z
	 M351.2,437.3h-15c-3.6-14.3-27.2-24.5-36.6-28.1h15.6C332.4,409.3,347.1,421,351.2,437.3z"/>
<path class="st1" d="M435.4,102.5L435.4,102.5c-3.3-4-8.1-6.2-13.2-6.2h-55c0.3-10.7-0.1-21-1-30l-0.1-0.7c-0.6-4.5-4.5-7.8-9-7.8
	H154.5c-4.5,0-8.4,3.3-9,7.8c-0.3,2-1.6,13.6-1.1,30.8h-55c-5.1,0-9.9,2.3-13.2,6.2c-3.2,3.9-4.6,9-3.7,14.2
	c2.2,12,8.1,35.4,23.2,56.4c18.6,26,44.7,39.9,77.5,41.2c11.3,22.6,25.7,43.1,42.8,61.2l-0.7,16.6c-0.2,2.7,1,5.5,3.1,7.3
	c0.6,0.6,9.3,9,9.3,27.6c0,12.9-13.1,21.2-21.8,26.7l-1.3,0.8c-4.8,3.1-9.1,7.4-12.6,12.7c-5.9,9-8.1,18.4-8.8,25.5
	c-24.6,6.1-42.1,28.2-42.1,53.8c0,5,4.1,9.1,9.1,9.1h211.4c5,0,9.1-4.1,9.1-9.1c0-25.6-17.5-47.7-42.1-53.8
	c-0.7-7.1-2.8-16.5-8.8-25.6c-3.5-5.3-7.8-9.6-12.5-12.6l-1.3-0.9c-9.2-5.9-21.8-14-21.8-26.7c0-17.7,7.7-26.1,9.3-27.6
	c2-1.8,3.1-4.3,3.1-7l-0.8-16.9c17.2-18,31.6-38.6,42.8-61.2c32.8-1.4,58.9-15.2,77.5-41.2c15.1-21.1,21-44.4,23.2-56.4
	C440,111.6,438.7,106.4,435.4,102.5z M90.5,114.4h41.9h12.8c0.1,4.1,0.5,8.4,1,12.9h-13.8h-19.1c-1.5,0-2.9,0.7-3.9,1.9
	c-0.9,1.2-1.2,2.7-0.9,4.2c0.2,1.2,6.1,21.9,28.4,40.2c0.9,0.7,2,1.2,3.2,1.2c1.4,0,2.8-0.6,3.8-1.8c1.7-2.1,1.4-5.2-0.7-7
	c-13.7-11.3-20-20.3-23.2-28.8h27.7c1.8,10.5,4.7,22,8.5,34.2c3.1,10.1,6.3,18.5,8.4,23.9C110.7,188,94.9,137.6,90.5,114.4z
	 M315.2,409.3c17.2,0,31.9,11.8,36,28.1h-15h-176c4.1-16.3,18.8-28.1,36.1-28.1h103.3H315.2z M295.7,368.9l1.5,1
	c2.7,1.7,5.1,4.2,7.2,7.3c3.1,4.7,4.6,9.7,5.4,13.9h-13.7h-94.6c0.7-4.2,2.3-9.2,5.4-13.9c2-3,4.5-5.6,7.3-7.4l1.2-0.8
	c10.6-6.7,30.2-19.2,30.2-42.1c0-20.1-7.8-32.4-12.1-37.8l0.4-8.8h27.5h14h2.3l0.4,8.8c-4.5,5.3-12.4,17.5-12.4,37.8
	C265.8,349.5,284.5,361.6,295.7,368.9z M283.3,262.1h-19h-36c-67.1-71-67-160.8-65.5-186.2h169.3h16.5c0.8,12.9,1.1,39.7-6,71.7
	C332.9,192.2,312.9,230.7,283.3,262.1z M347,195.3c2.1-5,4-9.7,5.7-14.3c5.5-14.4,9.1-27.2,11.3-42.2c0-0.2,0.1-0.4,0.2-0.8h29.6
	c-3.1,8.5-10.2,16.6-24,28c-2.1,1.7-2.4,4.8-0.7,7c0.2,0.2,0.4,0.4,0.5,0.5c0.9,0.8,2.1,1.3,3.3,1.3c1.1,0,2.2-0.3,3.2-1.2
	c22.3-18.4,29-38.2,29.2-39.4c0.3-1.5,0-3-0.9-4.2c-0.4-0.5-0.8-0.8-1.3-1.2c-0.8-0.5-1.7-0.8-2.6-0.8h-35c0.3-3.6,0.6-8.2,0.7-13.7
	H407h14C416.6,137.6,400.8,187.9,347,195.3z M335.2,89.7c0.9,1,1.4,2.2,1.4,3.6c-0.3,21.4-3.7,54.4-17.6,89.6
	c-0.7,2-2.6,3.2-4.6,3.2c-0.3,0-0.6,0-0.9-0.1c-0.3-0.1-0.6-0.1-0.9-0.3c-2.5-1-3.7-3.8-2.7-6.4c12.4-31.1,16-60.5,16.8-81.1h-35.6
	c-2.7,0-4.9-2.4-4.9-5.1s2.2-4.9,4.9-4.9h40.6c0.3,0,0.5,0,0.8,0.1C333.6,88.4,334.5,88.9,335.2,89.7z"/>
</svg>
